BBB Poppins TN-900.ufo
<glyph name="exclam" format="1">
  <advance width="455"/>
  <unicode hex="0021"/>
  <outline>
    <contour>
      <point x="107" y="755" type="line"/>
      <point x="133" y="281" type="line"/>
      <point x="323" y="281" type="line"/>
      <point x="349" y="755" type="line"/>
    </contour>
    <component base="period" xOffset="68"/>
  </outline>
</glyph>
<glyph name="quotedbl" format="1">
  <advance width="490"/>
  <unicode hex="0022"/>
  <outline>
    <contour>
      <point x="45" y="803" type="line"/>
      <point x="59" y="568" type="line"/>
      <point x="207" y="568" type="line"/>
      <point x="220" y="803" type="line"/>
    </contour>
    <contour>
      <point x="270" y="803" type="line"/>
      <point x="284" y="568" type="line"/>
      <point x="432" y="568" type="line"/>
      <point x="445" y="803" type="line"/>
    </contour>
  </outline>
</glyph>
<glyph name="ampersand" format="1">
  <advance width="831"/>
  <unicode hex="0026"/>
  <outline>
    <contour>
      <point x="396" y="524" type="curve"/>
      <point x="598" y="524" type="line"/>
      <point x="598" y="623"/>
      <point x="521" y="721"/>
      <point x="359" y="721" type="curve" smooth="yes"/>
      <point x="201" y="721"/>
      <point x="116" y="630"/>
      <point x="116" y="524" type="curve" smooth="yes"/>
      <point x="116" y="471"/>
      <point x="137" y="424"/>
      <point x="196" y="367" type="curve" smooth="yes"/>
      <point x="587" y="0" type="line"/>
      <point x="831" y="0" type="line"/>
      <point x="364" y="452" type="line" smooth="yes"/>
      <point x="336" y="479"/>
      <point x="320" y="505"/>
      <point x="320" y="526" type="curve" smooth="yes"/>
      <point x="320" y="550"/>
      <point x="339" y="562"/>
      <point x="359" y="562" type="curve" smooth="yes"/>
      <point x="377" y="562"/>
      <point x="396" y="551"/>
    </contour>
    <contour>
      <point x="398" y="329" type="line"/>
      <point x="317" y="459" type="line"/>
      <point x="228" y="431" type="line" smooth="yes"/>
      <point x="98" y="390"/>
      <point x="36" y="304"/>
      <point x="36" y="207" type="curve" smooth="yes"/>
      <point x="36" y="78"/>
      <point x="143" y="-10"/>
      <point x="317" y="-10" type="curve" smooth="yes"/>
      <point x="536" y="-10"/>
      <point x="672" y="116"/>
      <point x="758" y="340" type="curve" smooth="yes"/>
      <point x="768" y="366" type="line"/>
      <point x="553" y="366" type="line"/>
      <point x="550" y="357" type="line" smooth="yes"/>
      <point x="512" y="242"/>
      <point x="445" y="165"/>
      <point x="333" y="165" type="curve" smooth="yes"/>
      <point x="277" y="165"/>
      <point x="248" y="194"/>
      <point x="248" y="227" type="curve" smooth="yes"/>
      <point x="248" y="259"/>
      <point x="277" y="296"/>
      <point x="335" y="312" type="curve" smooth="yes"/>
    </contour>
  </outline>
</glyph>
<glyph name="quotesingle" format="1">
  <advance width="265"/>
  <unicode hex="0027"/>
  <outline>
    <contour>
      <point x="45" y="803" type="line"/>
      <point x="59" y="568" type="line"/>
      <point x="207" y="568" type="line"/>
      <point x="220" y="803" type="line"/>
    </contour>
  </outline>
</glyph>
<glyph name="parenleft" format="1">
  <advance width="533"/>
  <unicode hex="0028"/>
  <outline>
    <contour>
      <point x="283" y="-86" type="curve"/>
      <point x="523" y="-86" type="line"/>
      <point x="383" y="69"/>
      <point x="310" y="186"/>
      <point x="310" y="344" type="curve" smooth="yes"/>
      <point x="310" y="502"/>
      <point x="383" y="636"/>
      <point x="523" y="794" type="curve"/>
      <point x="283" y="794" type="line"/>
      <point x="161" y="659"/>
      <point x="90" y="522"/>
      <point x="90" y="344" type="curve" smooth="yes"/>
      <point x="90" y="166"/>
      <point x="161" y="41"/>
    </contour>
  </outline>
</glyph>
<glyph name="plus" format="1">
  <advance width="551"/>
  <unicode hex="002B"/>
  <outline>
    <contour>
      <point x="382" y="595" type="line"/>
      <point x="169" y="595" type="line"/>
      <point x="169" y="85" type="line"/>
      <point x="382" y="85" type="line"/>
    </contour>
    <contour>
      <point x="20" y="441" type="line"/>
      <point x="20" y="238" type="line"/>
      <point x="531" y="238" type="line"/>
      <point x="531" y="441" type="line"/>
    </contour>
  </outline>
</glyph>
<glyph name="period" format="1">
  <advance width="319"/>
  <unicode hex="002E"/>
  <outline>
    <contour>
      <point x="160" y="-8" type="curve" smooth="yes"/>
      <point x="238" y="-8"/>
      <point x="287" y="40"/>
      <point x="287" y="101" type="curve" smooth="yes"/>
      <point x="287" y="163"/>
      <point x="238" y="212"/>
      <point x="160" y="212" type="curve" smooth="yes"/>
      <point x="81" y="212"/>
      <point x="32" y="163"/>
      <point x="32" y="101" type="curve" smooth="yes"/>
      <point x="32" y="40"/>
      <point x="81" y="-8"/>
    </contour>
  </outline>
</glyph>
<glyph name="one" format="1">
  <advance width="399"/>
  <unicode hex="0031"/>
  <outline>
    <contour>
      <point x="116" y="523" type="line"/>
      <point x="116" y="0" type="line"/>
      <point x="349" y="0" type="line"/>
      <point x="349" y="731" type="line"/>
      <point x="10" y="731" type="line"/>
      <point x="10" y="523" type="line"/>
    </contour>
  </outline>
</glyph>
<glyph name="three" format="1">
  <advance width="615"/>
  <unicode hex="0033"/>
  <outline>
    <contour>
      <point x="317" y="427" type="curve"/>
      <point x="260" y="427" type="line"/>
      <point x="333" y="370" type="line"/>
      <point x="538" y="551" type="line"/>
      <point x="538" y="717" type="line"/>
      <point x="74" y="717" type="line"/>
      <point x="74" y="527" type="line"/>
      <point x="367" y="527" type="line"/>
      <point x="308" y="561" type="line"/>
      <point x="173" y="441" type="line"/>
      <point x="173" y="302" type="line"/>
      <point x="268" y="302" type="line" smooth="yes"/>
      <point x="320" y="302"/>
      <point x="355" y="275"/>
      <point x="355" y="229" type="curve" smooth="yes"/>
      <point x="355" y="197"/>
      <point x="336" y="176"/>
      <point x="307" y="176" type="curve" smooth="yes"/>
      <point x="265" y="176"/>
      <point x="250" y="202"/>
      <point x="253" y="249" type="curve"/>
      <point x="37" y="249" type="line"/>
      <point x="40" y="65"/>
      <point x="153" y="-7"/>
      <point x="307" y="-7" type="curve" smooth="yes"/>
      <point x="459" y="-7"/>
      <point x="561" y="84"/>
      <point x="561" y="215" type="curve" smooth="yes"/>
      <point x="561" y="354"/>
      <point x="463" y="427"/>
    </contour>
  </outline>
</glyph>
<glyph name="four" format="1">
  <advance width="704"/>
  <unicode hex="0034"/>
  <outline>
    <contour>
      <point x="365" y="110" type="line"/>
      <point x="365" y="0" type="line"/>
      <point x="589" y="0" type="line"/>
      <point x="589" y="110" type="line"/>
      <point x="661" y="110" type="line"/>
      <point x="661" y="302" type="line"/>
      <point x="589" y="302" type="line"/>
      <point x="589" y="720" type="line"/>
      <point x="350" y="720" type="line"/>
      <point x="52" y="295" type="line"/>
      <point x="52" y="110" type="line"/>
    </contour>
    <contour>
      <point x="383" y="302" type="line"/>
      <point x="275" y="302" type="line"/>
      <point x="383" y="467" type="line"/>
    </contour>
  </outline>
</glyph>
<glyph name="six" format="1">
  <advance width="594"/>
  <unicode hex="0036"/>
  <outline>
    <contour>
      <point x="305" y="-7" type="curve" smooth="yes"/>
      <point x="452" y="-7"/>
      <point x="572" y="82"/>
      <point x="572" y="240" type="curve" smooth="yes"/>
      <point x="572" y="389"/>
      <point x="481" y="463"/>
      <point x="371" y="463" type="curve" smooth="yes"/>
      <point x="266" y="463"/>
      <point x="182" y="388"/>
      <point x="171" y="237" type="curve"/>
      <point x="319" y="428" type="line"/>
      <point x="518" y="717" type="line"/>
      <point x="275" y="717" type="line"/>
      <point x="112" y="468" type="line" smooth="yes"/>
      <point x="55" y="381"/>
      <point x="35" y="312"/>
      <point x="35" y="245" type="curve" smooth="yes"/>
      <point x="35" y="94"/>
      <point x="144" y="-7"/>
    </contour>
    <contour>
      <point x="246" y="237" type="curve" smooth="yes"/>
      <point x="246" y="272"/>
      <point x="270" y="295"/>
      <point x="305" y="295" type="curve" smooth="yes"/>
      <point x="340" y="295"/>
      <point x="364" y="272"/>
      <point x="364" y="237" type="curve" smooth="yes"/>
      <point x="364" y="202"/>
      <point x="340" y="179"/>
      <point x="305" y="179" type="curve" smooth="yes"/>
      <point x="270" y="179"/>
      <point x="246" y="202"/>
    </contour>
  </outline>
</glyph>
<glyph name="seven" format="1">
  <advance width="514"/>
  <unicode hex="0037"/>
  <outline>
    <contour>
      <point x="494" y="731" type="line"/>
      <point x="10" y="731" type="line"/>
      <point x="10" y="541" type="line"/>
      <point x="268" y="541" type="line"/>
      <point x="38" y="0" type="line"/>
      <point x="266" y="0" type="line"/>
      <point x="494" y="568" type="line"/>
    </contour>
  </outline>
</glyph>
<glyph name="nine" format="1">
  <advance width="594"/>
  <unicode hex="0039"/>
  <outline>
    <contour>
      <point x="289" y="722" type="curve" smooth="yes"/>
      <point x="142" y="722"/>
      <point x="19" y="631"/>
      <point x="19" y="473" type="curve" smooth="yes"/>
      <point x="19" y="326"/>
      <point x="113" y="252"/>
      <point x="223" y="252" type="curve" smooth="yes"/>
      <point x="328" y="252"/>
      <point x="412" y="327"/>
      <point x="423" y="478" type="curve"/>
      <point x="275" y="287" type="line"/>
      <point x="76" y="-6" type="line"/>
      <point x="321" y="-6" type="line"/>
      <point x="484" y="247" type="line" smooth="yes"/>
      <point x="540" y="334"/>
      <point x="561" y="403"/>
      <point x="561" y="470" type="curve" smooth="yes"/>
      <point x="561" y="621"/>
      <point x="450" y="722"/>
    </contour>
    <contour>
      <point x="230" y="478" type="curve" smooth="yes"/>
      <point x="230" y="513"/>
      <point x="254" y="536"/>
      <point x="289" y="536" type="curve" smooth="yes"/>
      <point x="324" y="536"/>
      <point x="348" y="513"/>
      <point x="348" y="478" type="curve" smooth="yes"/>
      <point x="348" y="443"/>
      <point x="324" y="420"/>
      <point x="289" y="420" type="curve" smooth="yes"/>
      <point x="254" y="420"/>
      <point x="230" y="443"/>
    </contour>
  </outline>
</glyph>
<glyph name="less" format="1">
  <advance width="497"/>
  <unicode hex="003C"/>
  <outline>
    <contour>
      <point x="477" y="125" type="line"/>
      <point x="297" y="340" type="line"/>
      <point x="477" y="556" type="line"/>
      <point x="200" y="556" type="line"/>
      <point x="20" y="340" type="line"/>
      <point x="200" y="125" type="line"/>
    </contour>
  </outline>
</glyph>
<glyph name="equal" format="1">
  <advance width="626"/>
  <unicode hex="003D"/>
  <outline>
    <contour>
      <point x="20" y="300" type="line"/>
      <point x="20" y="99" type="line"/>
      <point x="606" y="99" type="line"/>
      <point x="606" y="300" type="line"/>
    </contour>
    <contour>
      <point x="20" y="580" type="line"/>
      <point x="20" y="379" type="line"/>
      <point x="606" y="379" type="line"/>
      <point x="606" y="580" type="line"/>
    </contour>
  </outline>
</glyph>
<glyph name="greater" format="1">
  <advance width="497"/>
  <unicode hex="003E"/>
  <outline>
    <contour>
      <point x="200" y="340" type="line"/>
      <point x="20" y="125" type="line"/>
      <point x="297" y="125" type="line"/>
      <point x="477" y="340" type="line"/>
      <point x="297" y="556" type="line"/>
      <point x="20" y="556" type="line"/>
    </contour>
  </outline>
</glyph>
<glyph name="A" format="1">
  <advance width="773"/>
  <unicode hex="0041"/>
  <outline>
    <contour>
      <point x="515" y="708" type="line"/>
      <point x="259" y="708" type="line"/>
      <point x="0" y="0" type="line"/>
      <point x="233" y="0" type="line"/>
      <point x="426" y="593" type="line"/>
      <point x="347" y="593" type="line"/>
      <point x="539" y="0" type="line"/>
      <point x="773" y="0" type="line"/>
    </contour>
    <contour>
      <point x="170" y="274" type="line"/>
      <point x="114" y="107" type="line"/>
      <point x="634" y="107" type="line"/>
      <point x="579" y="274" type="line"/>
    </contour>
    <contour>
      <point x="773" y="0" type="move" name="ogonek"/>
    </contour>
    <contour>
      <point x="387" y="711" type="move" name="top"/>
    </contour>
  </outline>
</glyph>
<glyph name="C" format="1">
  <advance width="743"/>
  <unicode hex="0043"/>
  <outline>
    <contour>
      <point x="30" y="566"/>
      <point x="30" y="355" type="curve"/>
      <point x="30" y="144"/>
      <point x="163" y="-5"/>
      <point x="380" y="-5" type="curve"/>
      <point x="567" y="-5"/>
      <point x="694" y="107"/>
      <point x="723" y="274" type="curve"/>
      <point x="489" y="274" type="line"/>
      <point x="468" y="227"/>
      <point x="426" y="200"/>
      <point x="376" y="200" type="curve"/>
      <point x="301" y="200"/>
      <point x="255" y="261"/>
      <point x="255" y="355" type="curve"/>
      <point x="255" y="449"/>
      <point x="301" y="510"/>
      <point x="376" y="510" type="curve"/>
      <point x="426" y="510"/>
      <point x="468" y="483"/>
      <point x="489" y="436" type="curve"/>
      <point x="723" y="436" type="line"/>
      <point x="694" y="603"/>
      <point x="567" y="715"/>
      <point x="380" y="715" type="curve"/>
      <point x="163" y="715"/>
    </contour>
    <contour>
      <point x="377" y="0" type="move" name="bottom"/>
    </contour>
    <contour>
      <point x="377" y="711" type="move" name="top"/>
    </contour>
  </outline>
</glyph>
<glyph name="D" format="1">
  <advance width="746"/>
  <unicode hex="0044"/>
  <outline>
    <contour>
      <point x="571" y="708"/>
      <point x="345" y="708" type="curve" smooth="yes"/>
      <point x="50" y="708" type="line"/>
      <point x="50" y="0" type="line"/>
      <point x="345" y="0" type="line" smooth="yes"/>
      <point x="571" y="0"/>
      <point x="713" y="154"/>
      <point x="713" y="356" type="curve" smooth="yes"/>
      <point x="713" y="560"/>
    </contour>
    <contour>
      <point x="325" y="198" type="curve" smooth="yes"/>
      <point x="272" y="198" type="line"/>
      <point x="272" y="514" type="line"/>
      <point x="325" y="514" type="line" smooth="yes"/>
      <point x="423" y="514"/>
      <point x="488" y="459"/>
      <point x="488" y="356" type="curve" smooth="yes"/>
      <point x="488" y="253"/>
      <point x="423" y="198"/>
    </contour>
    <contour>
      <point x="359" y="711" type="move" name="top"/>
    </contour>
  </outline>
</glyph>
<glyph name="E" format="1">
  <advance width="555"/>
  <unicode hex="0045"/>
  <outline>
    <contour>
      <point x="522" y="531" type="line"/>
      <point x="522" y="708" type="line"/>
      <point x="50" y="708" type="line"/>
      <point x="50" y="0" type="line"/>
      <point x="522" y="0" type="line"/>
      <point x="522" y="177" type="line"/>
      <point x="272" y="177" type="line"/>
      <point x="272" y="277" type="line"/>
      <point x="492" y="277" type="line"/>
      <point x="492" y="444" type="line"/>
      <point x="272" y="444" type="line"/>
      <point x="272" y="531" type="line"/>
    </contour>
    <contour>
      <point x="282" y="0" type="move" name="bottom"/>
    </contour>
    <contour>
      <point x="522" y="0" type="move" name="ogonek"/>
    </contour>
    <contour>
      <point x="282" y="711" type="move" name="top"/>
    </contour>
  </outline>
</glyph>
<glyph name="F" format="1">
  <advance width="573"/>
  <unicode hex="0046"/>
  <outline>
    <contour>
      <point x="50" y="708" type="line"/>
      <point x="50" y="0" type="line"/>
      <point x="272" y="0" type="line"/>
      <point x="272" y="267" type="line"/>
      <point x="405" y="267" type="line"/>
      <point x="522" y="434" type="line"/>
      <point x="272" y="434" type="line"/>
      <point x="272" y="532" type="line"/>
      <point x="550" y="532" type="line"/>
      <point x="550" y="708" type="line"/>
    </contour>
  </outline>
</glyph>
<glyph name="G" format="1">
  <advance width="756"/>
  <unicode hex="0047"/>
  <outline>
    <contour>
      <point x="718" y="466" type="line"/>
      <point x="697" y="617"/>
      <point x="576" y="715"/>
      <point x="388" y="715" type="curve"/>
      <point x="166" y="715"/>
      <point x="30" y="566"/>
      <point x="30" y="355" type="curve"/>
      <point x="30" y="144"/>
      <point x="167" y="-5"/>
      <point x="390" y="-5" type="curve"/>
      <point x="573" y="-5"/>
      <point x="673" y="102"/>
      <point x="722" y="187" type="curve"/>
      <point x="722" y="409" type="line"/>
      <point x="431" y="409" type="line"/>
      <point x="321" y="252" type="line"/>
      <point x="538" y="252" type="line"/>
      <point x="505" y="208"/>
      <point x="464" y="190"/>
      <point x="414" y="190" type="curve"/>
      <point x="305" y="190"/>
      <point x="255" y="245"/>
      <point x="255" y="355" type="curve"/>
      <point x="255" y="449"/>
      <point x="303" y="510"/>
      <point x="389" y="510" type="curve"/>
      <point x="435" y="510"/>
      <point x="467" y="493"/>
      <point x="484" y="466" type="curve"/>
    </contour>
    <contour>
      <point x="377" y="0" type="move" name="bottom"/>
    </contour>
    <contour>
      <point x="377" y="711" type="move" name="top"/>
    </contour>
  </outline>
</glyph>
<glyph name="H" format="1">
  <advance width="755"/>
  <unicode hex="0048"/>
  <outline>
    <contour>
      <point x="50" y="708" type="line"/>
      <point x="50" y="0" type="line"/>
      <point x="272" y="0" type="line"/>
      <point x="272" y="708" type="line"/>
    </contour>
    <contour>
      <point x="483" y="708" type="line"/>
      <point x="483" y="0" type="line"/>
      <point x="705" y="0" type="line"/>
      <point x="705" y="708" type="line"/>
    </contour>
    <contour>
      <point x="252" y="453" type="line"/>
      <point x="252" y="276" type="line"/>
      <point x="505" y="276" type="line"/>
      <point x="505" y="453" type="line"/>
    </contour>
  </outline>
</glyph>
<glyph name="J" format="1">
  <advance width="589"/>
  <unicode hex="004A"/>
  <outline>
    <contour>
      <point x="318" y="708" type="line"/>
      <point x="318" y="251" type="line" smooth="yes"/>
      <point x="318" y="205"/>
      <point x="300" y="193"/>
      <point x="276" y="193" type="curve" smooth="yes"/>
      <point x="247" y="193"/>
      <point x="224" y="209"/>
      <point x="224" y="271" type="curve"/>
      <point x="5" y="271" type="line"/>
      <point x="5" y="85"/>
      <point x="120" y="-7"/>
      <point x="286" y="-7" type="curve" smooth="yes"/>
      <point x="442" y="-7"/>
      <point x="539" y="78"/>
      <point x="539" y="251" type="curve" smooth="yes"/>
      <point x="539" y="708" type="line"/>
    </contour>
  </outline>
</glyph>
<glyph name="K" format="1">
  <advance width="737"/>
  <unicode hex="004B"/>
  <outline>
    <contour>
      <point x="50" y="708" type="line"/>
      <point x="50" y="0" type="line"/>
      <point x="272" y="0" type="line"/>
      <point x="272" y="708" type="line"/>
    </contour>
    <contour>
      <point x="479" y="708" type="line"/>
      <point x="272" y="359" type="line"/>
      <point x="485" y="0" type="line"/>
      <point x="742" y="0" type="line"/>
      <point x="512" y="375" type="line"/>
      <point x="488" y="329" type="line"/>
      <point x="726" y="708" type="line"/>
    </contour>
    <contour>
      <point x="374" y="0" type="move" name="bottom"/>
    </contour>
    <contour>
      <point x="374" y="711" type="move" name="top"/>
    </contour>
  </outline>
</glyph>
<glyph name="L" format="1">
  <advance width="501"/>
  <unicode hex="004C"/>
  <outline>
    <contour>
      <point x="272" y="708" type="line"/>
      <point x="50" y="708" type="line"/>
      <point x="50" y="0" type="line"/>
      <point x="486" y="0" type="line"/>
      <point x="486" y="168" type="line"/>
      <point x="272" y="168" type="line"/>
    </contour>
    <contour>
      <point x="265" y="0" type="move" name="bottom"/>
    </contour>
    <contour>
      <point x="265" y="10" type="move" name="commaaccent"/>
    </contour>
    <contour>
      <point x="231" y="711" type="move" name="top"/>
    </contour>
    <contour>
      <point x="466" y="711" type="move" name="topright"/>
    </contour>
  </outline>
</glyph>
<glyph name="M" format="1">
  <advance width="951"/>
  <unicode hex="004D"/>
  <outline>
    <contour>
      <point x="50" y="708" type="line"/>
      <point x="50" y="0" type="line"/>
      <point x="272" y="0" type="line"/>
      <point x="272" y="579" type="line"/>
      <point x="267" y="564" type="line"/>
      <point x="391" y="0" type="line"/>
      <point x="561" y="0" type="line"/>
      <point x="685" y="564" type="line"/>
      <point x="680" y="579" type="line"/>
      <point x="680" y="0" type="line"/>
      <point x="901" y="0" type="line"/>
      <point x="901" y="708" type="line"/>
      <point x="557" y="708" type="line"/>
      <point x="437" y="149" type="line"/>
      <point x="515" y="149" type="line"/>
      <point x="396" y="708" type="line"/>
    </contour>
  </outline>
</glyph>
<glyph name="N" format="1">
  <advance width="779"/>
  <unicode hex="004E"/>
  <outline>
    <contour>
      <point x="552" y="0" type="line"/>
      <point x="407" y="708" type="line"/>
      <point x="228" y="708" type="line"/>
      <point x="374" y="0" type="line"/>
    </contour>
    <contour>
      <point x="507" y="0" type="line"/>
      <point x="729" y="0" type="line"/>
      <point x="729" y="708" type="line"/>
      <point x="507" y="708" type="line"/>
    </contour>
    <contour>
      <point x="272" y="708" type="line"/>
      <point x="50" y="708" type="line"/>
      <point x="50" y="0" type="line"/>
      <point x="272" y="0" type="line"/>
    </contour>
    <contour>
      <point x="389" y="0" type="move" name="bottom"/>
    </contour>
    <contour>
      <point x="389" y="711" type="move" name="top"/>
    </contour>
  </outline>
</glyph>
<glyph name="O" format="1">
  <advance width="788"/>
  <unicode hex="004F"/>
  <outline>
    <contour>
      <point x="395" y="-7" type="curve" smooth="yes"/>
      <point x="595" y="-7"/>
      <point x="758" y="144"/>
      <point x="758" y="357" type="curve" smooth="yes"/>
      <point x="758" y="570"/>
      <point x="597" y="720"/>
      <point x="395" y="720" type="curve" smooth="yes"/>
      <point x="194" y="720"/>
      <point x="30" y="570"/>
      <point x="30" y="357" type="curve" smooth="yes"/>
      <point x="30" y="144"/>
      <point x="194" y="-7"/>
    </contour>
    <contour>
      <point x="395" y="200" type="curve" smooth="yes"/>
      <point x="304" y="200"/>
      <point x="256" y="263"/>
      <point x="256" y="357" type="curve" smooth="yes"/>
      <point x="256" y="453"/>
      <point x="304" y="515"/>
      <point x="395" y="515" type="curve" smooth="yes"/>
      <point x="484" y="515"/>
      <point x="533" y="453"/>
      <point x="533" y="357" type="curve" smooth="yes"/>
      <point x="533" y="263"/>
      <point x="484" y="200"/>
    </contour>
    <contour>
      <point x="395" y="711" type="move" name="top"/>
    </contour>
  </outline>
</glyph>
<glyph name="P" format="1">
  <advance width="649"/>
  <unicode hex="0050"/>
  <outline>
    <contour>
      <point x="335" y="400" type="curve"/>
      <point x="272" y="400" type="line"/>
      <point x="272" y="530" type="line"/>
      <point x="335" y="530" type="line" smooth="yes"/>
      <point x="385" y="530"/>
      <point x="404" y="504"/>
      <point x="404" y="465" type="curve"/>
      <point x="404" y="426"/>
      <point x="385" y="400"/>
    </contour>
    <contour>
      <point x="629" y="334"/>
      <point x="629" y="465" type="curve"/>
      <point x="629" y="607.88"/>
      <point x="538" y="708"/>
      <point x="360" y="708" type="curve" smooth="yes"/>
      <point x="50" y="708" type="line"/>
      <point x="50" y="0" type="line"/>
      <point x="272" y="0" type="line"/>
      <point x="272" y="225" type="line"/>
      <point x="360" y="225" type="line" smooth="yes"/>
      <point x="538" y="225"/>
    </contour>
  </outline>
</glyph>
<glyph name="Q" format="1">
  <advance width="788"/>
  <unicode hex="0051"/>
  <outline>
    <contour>
      <point x="459" y="366" type="line"/>
      <point x="290" y="366" type="line"/>
      <point x="580" y="-115" type="line"/>
      <point x="772" y="-115" type="line"/>
    </contour>
    <component base="O"/>
  </outline>
</glyph>
<glyph name="R" format="1">
  <advance width="675"/>
  <unicode hex="0052"/>
  <outline>
    <contour>
      <point x="424" y="498"/>
      <point x="424" y="462" type="curve" smooth="yes"/>
      <point x="424" y="420"/>
      <point x="402" y="402"/>
      <point x="360" y="402" type="curve" smooth="yes"/>
      <point x="272" y="402" type="line"/>
      <point x="272" y="522" type="line"/>
      <point x="360" y="522" type="line" smooth="yes"/>
      <point x="402" y="522"/>
    </contour>
    <contour>
      <point x="380" y="708" type="curve" smooth="yes"/>
      <point x="50" y="708" type="line"/>
      <point x="50" y="0" type="line"/>
      <point x="272" y="0" type="line"/>
      <point x="272" y="254" type="line"/>
      <point x="380" y="254" type="line"/>
      <point x="558" y="254"/>
      <point x="649" y="352"/>
      <point x="649" y="476" type="curve"/>
      <point x="649" y="605.586"/>
      <point x="558" y="708"/>
    </contour>
    <contour>
      <point x="482" y="295" type="line"/>
      <point x="251" y="295" type="line"/>
      <point x="406" y="0" type="line"/>
      <point x="650" y="0" type="line"/>
    </contour>
    <contour>
      <point x="325" y="0" type="move" name="bottom"/>
    </contour>
    <contour>
      <point x="325" y="711" type="move" name="top"/>
    </contour>
  </outline>
</glyph>
<glyph name="S" format="1">
  <advance width="625"/>
  <unicode hex="0053"/>
  <outline>
    <contour>
      <point x="327" y="-7" type="curve" smooth="yes"/>
      <point x="498" y="-7"/>
      <point x="597" y="89"/>
      <point x="597" y="219" type="curve" smooth="yes"/>
      <point x="597" y="437"/>
      <point x="268" y="422"/>
      <point x="268" y="511" type="curve" smooth="yes"/>
      <point x="268" y="535"/>
      <point x="282" y="547"/>
      <point x="300" y="547" type="curve" smooth="yes"/>
      <point x="324" y="547"/>
      <point x="347" y="534"/>
      <point x="349" y="491" type="curve"/>
      <point x="588" y="491" type="line"/>
      <point x="582" y="638"/>
      <point x="472" y="720"/>
      <point x="301" y="720" type="curve" smooth="yes"/>
      <point x="150" y="720"/>
      <point x="30" y="646"/>
      <point x="30" y="504" type="curve"/>
      <point x="26" y="262"/>
      <point x="360" y="297"/>
      <point x="361" y="201" type="curve" smooth="yes"/>
      <point x="361" y="176"/>
      <point x="340" y="166"/>
      <point x="318" y="166" type="curve" smooth="yes"/>
      <point x="296" y="166"/>
      <point x="268" y="175"/>
      <point x="264" y="227" type="curve"/>
      <point x="28" y="227" type="line"/>
      <point x="38" y="68"/>
      <point x="165" y="-7"/>
    </contour>
    <contour>
      <point x="313" y="0" type="move" name="bottom"/>
    </contour>
    <contour>
      <point x="313" y="711" type="move" name="top"/>
    </contour>
  </outline>
</glyph>
<glyph name="T" format="1">
  <advance width="610"/>
  <unicode hex="0054"/>
  <outline>
    <contour>
      <point x="7" y="708" type="line"/>
      <point x="7" y="532" type="line"/>
      <point x="193" y="532" type="line"/>
      <point x="193" y="0" type="line"/>
      <point x="415" y="0" type="line"/>
      <point x="415" y="532" type="line"/>
      <point x="603" y="532" type="line"/>
      <point x="603" y="708" type="line"/>
    </contour>
    <contour>
      <point x="300" y="0" type="move" name="bottom"/>
    </contour>
    <contour>
      <point x="300" y="711" type="move" name="top"/>
    </contour>
  </outline>
</glyph>
<glyph name="U" format="1">
  <advance width="717"/>
  <unicode hex="0055"/>
  <outline>
    <contour>
      <point x="45" y="708" type="line"/>
      <point x="45" y="309" type="line" smooth="yes"/>
      <point x="45" y="100"/>
      <point x="175" y="-7"/>
      <point x="352" y="-7" type="curve" smooth="yes"/>
      <point x="529" y="-7"/>
      <point x="672" y="100"/>
      <point x="672" y="309" type="curve" smooth="yes"/>
      <point x="672" y="708" type="line"/>
      <point x="451" y="708" type="line"/>
      <point x="451" y="309" type="line" smooth="yes"/>
      <point x="451" y="248"/>
      <point x="424" y="203"/>
      <point x="357" y="203" type="curve" smooth="yes"/>
      <point x="290" y="203"/>
      <point x="266" y="248"/>
      <point x="266" y="309" type="curve" smooth="yes"/>
      <point x="266" y="708" type="line"/>
    </contour>
    <contour>
      <point x="448" y="3" type="move" name="ogonek"/>
    </contour>
    <contour>
      <point x="359" y="711" type="move" name="top"/>
    </contour>
  </outline>
</glyph>
<glyph name="V" format="1">
  <advance width="675"/>
  <unicode hex="0056"/>
  <outline>
    <contour>
      <point x="439" y="708" type="line"/>
      <point x="324" y="22" type="line"/>
      <point x="362" y="22" type="line"/>
      <point x="236" y="708" type="line"/>
      <point x="0" y="708" type="line"/>
      <point x="168" y="0" type="line"/>
      <point x="517" y="0" type="line"/>
      <point x="675" y="708" type="line"/>
    </contour>
  </outline>
</glyph>
<glyph name="W" format="1">
  <advance width="1040"/>
  <unicode hex="0057"/>
  <outline>
    <contour>
      <point x="0" y="708" type="line"/>
      <point x="135" y="0" type="line"/>
      <point x="465" y="0" type="line"/>
      <point x="530" y="461" type="line"/>
      <point x="510" y="461" type="line"/>
      <point x="575" y="0" type="line"/>
      <point x="905" y="0" type="line"/>
      <point x="1040" y="708" type="line"/>
      <point x="801" y="708" type="line"/>
      <point x="722" y="39" type="line"/>
      <point x="747" y="39" type="line"/>
      <point x="641" y="708" type="line"/>
      <point x="399" y="708" type="line"/>
      <point x="293" y="39" type="line"/>
      <point x="318" y="39" type="line"/>
      <point x="239" y="708" type="line"/>
    </contour>
  </outline>
</glyph>
<glyph name="Y" format="1">
  <advance width="730"/>
  <unicode hex="0059"/>
  <outline>
    <contour>
      <point x="0" y="708" type="line"/>
      <point x="254" y="215" type="line"/>
      <point x="254" y="0" type="line"/>
      <point x="476" y="0" type="line"/>
      <point x="476" y="215" type="line"/>
      <point x="730" y="708" type="line"/>
      <point x="480" y="708" type="line"/>
      <point x="327" y="368" type="line"/>
      <point x="407" y="368" type="line"/>
      <point x="254" y="708" type="line"/>
    </contour>
    <contour>
      <point x="366" y="711" type="move" name="top"/>
    </contour>
  </outline>
</glyph>
<glyph name="Z" format="1">
  <advance width="640"/>
  <unicode hex="005A"/>
  <outline>
    <contour>
      <point x="585" y="541" type="line"/>
      <point x="585" y="708" type="line"/>
      <point x="55" y="708" type="line"/>
      <point x="55" y="532" type="line"/>
      <point x="335" y="532" type="line"/>
      <point x="55" y="167" type="line"/>
      <point x="55" y="0" type="line"/>
      <point x="585" y="0" type="line"/>
      <point x="585" y="177" type="line"/>
      <point x="301" y="177" type="line"/>
    </contour>
    <contour>
      <point x="320" y="711" type="move" name="top"/>
    </contour>
  </outline>
</glyph>
<glyph name="bracketleft" format="1">
  <advance width="533"/>
  <unicode hex="005B"/>
  <outline>
    <contour>
      <point x="95" y="895" type="line"/>
      <point x="95" y="-229" type="line"/>
      <point x="477" y="-229" type="line"/>
      <point x="477" y="-51" type="line"/>
      <point x="303" y="-51" type="line"/>
      <point x="303" y="717" type="line"/>
      <point x="477" y="717" type="line"/>
      <point x="477" y="895" type="line"/>
    </contour>
  </outline>
</glyph>
<glyph name="backslash" format="1">
  <advance width="878"/>
  <unicode hex="005C"/>
  <outline>
    <contour>
      <point x="652" y="-198" type="line"/>
      <point x="412" y="955" type="line"/>
      <point x="200" y="955" type="line"/>
      <point x="440" y="-198" type="line"/>
    </contour>
  </outline>
</glyph>
<glyph name="asciicircum" format="1">
  <advance width="758"/>
  <unicode hex="005E"/>
  <outline>
    <contour>
      <point x="380" y="460" type="line"/>
      <point x="513" y="162" type="line"/>
      <point x="733" y="162" type="line"/>
      <point x="489" y="711" type="line"/>
      <point x="271" y="711" type="line"/>
      <point x="25" y="162" type="line"/>
      <point x="245" y="162" type="line"/>
    </contour>
  </outline>
</glyph>
<glyph name="underscore" format="1">
  <advance width="764"/>
  <unicode hex="005F"/>
  <outline>
    <contour>
      <point x="49" y="-42" type="line"/>
      <point x="49" y="-258" type="line"/>
      <point x="724" y="-258" type="line"/>
      <point x="724" y="-42" type="line"/>
    </contour>
  </outline>
</glyph>
<glyph name="grave" format="1">
  <advance width="279"/>
  <unicode hex="0060"/>
  <outline>
    <component base="acute" xScale="-1" xOffset="279"/>
    <contour>
      <point x="128" y="564" type="move" name="_top"/>
    </contour>
  </outline>
</glyph>
<glyph name="a" format="1">
  <advance width="648"/>
  <unicode hex="0061"/>
  <outline>
    <contour>
      <point x="382" y="76" type="curve"/>
      <point x="382" y="0" type="line"/>
      <point x="603" y="0" type="line"/>
      <point x="603" y="332" type="line" smooth="yes"/>
      <point x="603" y="476"/>
      <point x="493" y="572"/>
      <point x="323" y="572" type="curve" smooth="yes"/>
      <point x="176" y="572"/>
      <point x="66" y="479"/>
      <point x="37" y="354" type="curve"/>
      <point x="261" y="354" type="line"/>
      <point x="269" y="375"/>
      <point x="289" y="394"/>
      <point x="322" y="394" type="curve" smooth="yes"/>
      <point x="358" y="394"/>
      <point x="381" y="370"/>
      <point x="381" y="323" type="curve"/>
      <point x="284" y="323" type="line" smooth="yes"/>
      <point x="107" y="323"/>
      <point x="30" y="251"/>
      <point x="30" y="151" type="curve" smooth="yes"/>
      <point x="30" y="46"/>
      <point x="110" y="-11"/>
      <point x="207" y="-11" type="curve" smooth="yes"/>
      <point x="279" y="-11"/>
      <point x="355" y="20"/>
    </contour>
    <contour>
      <point x="300" y="143" type="curve" smooth="yes"/>
      <point x="272" y="143"/>
      <point x="254" y="158"/>
      <point x="254" y="186" type="curve" smooth="yes"/>
      <point x="254" y="214"/>
      <point x="277" y="233"/>
      <point x="318" y="233" type="curve" smooth="yes"/>
      <point x="380" y="233" type="line"/>
      <point x="380" y="221" type="line" smooth="yes"/>
      <point x="380" y="180"/>
      <point x="344" y="143"/>
    </contour>
    <contour>
      <point x="603" y="0" type="move" name="ogonek"/>
    </contour>
    <contour>
      <point x="323" y="572" type="move" name="top"/>
    </contour>
  </outline>
</glyph>
<glyph name="b" format="1">
  <advance width="680"/>
  <unicode hex="0062"/>
  <outline>
    <contour>
      <point x="299" y="538"/>
      <point x="272" y="487" type="curve"/>
      <point x="272" y="740" type="line"/>
      <point x="50" y="740" type="line"/>
      <point x="50" y="0" type="line"/>
      <point x="272" y="0" type="line"/>
      <point x="272" y="77" type="line"/>
      <point x="299" y="26"/>
      <point x="352" y="-7"/>
      <point x="427" y="-7" type="curve"/>
      <point x="557" y="-7"/>
      <point x="660" y="100"/>
      <point x="660" y="282" type="curve"/>
      <point x="660" y="464"/>
      <point x="557" y="571"/>
      <point x="427" y="571" type="curve"/>
      <point x="352" y="571"/>
    </contour>
    <contour>
      <point x="435" y="344"/>
      <point x="435" y="282" type="curve"/>
      <point x="435" y="220"/>
      <point x="399" y="187"/>
      <point x="353" y="187" type="curve"/>
      <point x="307" y="187"/>
      <point x="271" y="220"/>
      <point x="271" y="282" type="curve"/>
      <point x="271" y="344"/>
      <point x="307" y="377"/>
      <point x="353" y="377" type="curve"/>
      <point x="399" y="377"/>
    </contour>
  </outline>
</glyph>
<glyph name="c" format="1">
  <advance width="601"/>
  <unicode hex="0063"/>
  <outline>
    <contour>
      <point x="20" y="462"/>
      <point x="20" y="282" type="curve"/>
      <point x="20" y="102"/>
      <point x="139" y="-7"/>
      <point x="308" y="-7" type="curve" smooth="yes"/>
      <point x="453" y="-7"/>
      <point x="562" y="79"/>
      <point x="589" y="227" type="curve"/>
      <point x="354" y="227" type="line"/>
      <point x="346" y="200"/>
      <point x="331" y="183"/>
      <point x="303" y="183" type="curve" smooth="yes"/>
      <point x="269" y="183"/>
      <point x="245" y="214"/>
      <point x="245" y="282" type="curve"/>
      <point x="245" y="350"/>
      <point x="269" y="381"/>
      <point x="303" y="381" type="curve" smooth="yes"/>
      <point x="331" y="381"/>
      <point x="346" y="364"/>
      <point x="354" y="337" type="curve"/>
      <point x="589" y="337" type="line"/>
      <point x="562" y="485"/>
      <point x="453" y="571"/>
      <point x="308" y="571" type="curve" smooth="yes"/>
      <point x="139" y="571"/>
    </contour>
    <contour>
      <point x="299" y="0" type="move" name="bottom"/>
    </contour>
    <contour>
      <point x="299" y="564" type="move" name="top"/>
    </contour>
  </outline>
</glyph>
<glyph name="d" format="1">
  <advance width="680"/>
  <unicode hex="0064"/>
  <outline>
    <contour>
      <point x="20" y="464"/>
      <point x="20" y="282" type="curve"/>
      <point x="20" y="100"/>
      <point x="123" y="-7"/>
      <point x="253" y="-7" type="curve"/>
      <point x="328" y="-7"/>
      <point x="381" y="26"/>
      <point x="408" y="77" type="curve"/>
      <point x="408" y="0" type="line"/>
      <point x="630" y="0" type="line"/>
      <point x="630" y="740" type="line"/>
      <point x="408" y="740" type="line"/>
      <point x="408" y="487" type="line"/>
      <point x="381" y="538"/>
      <point x="328" y="571"/>
      <point x="253" y="571" type="curve"/>
      <point x="123" y="571"/>
    </contour>
    <contour>
      <point x="409" y="344"/>
      <point x="409" y="282" type="curve"/>
      <point x="409" y="220"/>
      <point x="373" y="187"/>
      <point x="327" y="187" type="curve"/>
      <point x="281" y="187"/>
      <point x="245" y="220"/>
      <point x="245" y="282" type="curve"/>
      <point x="245" y="344"/>
      <point x="281" y="377"/>
      <point x="327" y="377" type="curve"/>
      <point x="373" y="377"/>
    </contour>
    <contour>
      <point x="630" y="740" type="move" name="topright"/>
    </contour>
  </outline>
</glyph>
<glyph name="e" format="1">
  <advance width="616"/>
  <unicode hex="0065"/>
  <outline>
    <contour>
      <point x="216" y="340" type="line"/>
      <point x="216" y="243" type="line"/>
      <point x="593" y="243" type="line"/>
      <point x="595" y="257"/>
      <point x="596" y="273"/>
      <point x="596" y="287" type="curve" smooth="yes"/>
      <point x="596" y="464"/>
      <point x="477" y="571"/>
      <point x="308" y="571" type="curve"/>
      <point x="139" y="571"/>
      <point x="20" y="462"/>
      <point x="20" y="282" type="curve" smooth="yes"/>
      <point x="20" y="102"/>
      <point x="139" y="-7"/>
      <point x="308" y="-7" type="curve" smooth="yes"/>
      <point x="450" y="-7"/>
      <point x="560" y="83"/>
      <point x="584" y="203" type="curve"/>
      <point x="349" y="203" type="line"/>
      <point x="341" y="186"/>
      <point x="326" y="170"/>
      <point x="297" y="170" type="curve" smooth="yes"/>
      <point x="264" y="170"/>
      <point x="236" y="189"/>
      <point x="236" y="258" type="curve" smooth="yes"/>
      <point x="236" y="311" type="line" smooth="yes"/>
      <point x="236" y="370"/>
      <point x="263" y="397"/>
      <point x="308" y="397" type="curve"/>
      <point x="341" y="397"/>
      <point x="371" y="379"/>
      <point x="371" y="340" type="curve"/>
    </contour>
    <contour>
      <point x="308" y="-7" type="move" name="bottom"/>
    </contour>
    <contour>
      <point x="403" y="8" type="move" name="ogonek"/>
    </contour>
    <contour>
      <point x="308" y="571" type="move" name="top"/>
    </contour>
  </outline>
</glyph>
<glyph name="g" format="1">
  <advance width="675"/>
  <unicode hex="0067"/>
  <outline>
    <contour>
      <point x="253" y="571" type="curve"/>
      <point x="123" y="571"/>
      <point x="20" y="464"/>
      <point x="20" y="282" type="curve"/>
      <point x="20" y="100"/>
      <point x="123" y="-7"/>
      <point x="253" y="-7" type="curve"/>
      <point x="328" y="-7"/>
      <point x="382" y="26"/>
      <point x="409" y="77" type="curve"/>
      <point x="409" y="10" type="line"/>
      <point x="409" y="-69"/>
      <point x="371" y="-85"/>
      <point x="326" y="-85" type="curve" smooth="yes"/>
      <point x="285" y="-85"/>
      <point x="260" y="-70"/>
      <point x="254" y="-41" type="curve"/>
      <point x="36" y="-41" type="line"/>
      <point x="51" y="-184"/>
      <point x="158" y="-277"/>
      <point x="342" y="-277" type="curve" smooth="yes"/>
      <point x="553" y="-277"/>
      <point x="630" y="-139"/>
      <point x="630" y="10" type="curve"/>
      <point x="630" y="564" type="line"/>
      <point x="409" y="564" type="line"/>
      <point x="409" y="487" type="line"/>
      <point x="382" y="538"/>
      <point x="328" y="571"/>
    </contour>
    <contour>
      <point x="409" y="344"/>
      <point x="409" y="282" type="curve"/>
      <point x="409" y="220"/>
      <point x="373" y="187"/>
      <point x="327" y="187" type="curve"/>
      <point x="281" y="187"/>
      <point x="245" y="220"/>
      <point x="245" y="282" type="curve"/>
      <point x="245" y="344"/>
      <point x="281" y="377"/>
      <point x="327" y="377" type="curve"/>
      <point x="373" y="377"/>
    </contour>
    <contour>
      <point x="347" y="564" type="move" name="top"/>
    </contour>
  </outline>
</glyph>
<glyph name="h" format="1">
  <advance width="697"/>
  <unicode hex="0068"/>
  <outline>
    <contour>
      <point x="50" y="740" type="line"/>
      <point x="50" y="0" type="line"/>
      <point x="272" y="0" type="line"/>
      <point x="272" y="740" type="line"/>
    </contour>
    <contour>
      <point x="430" y="299" type="curve" smooth="yes"/>
      <point x="430" y="0" type="line"/>
      <point x="651" y="0" type="line"/>
      <point x="651" y="327" type="line" smooth="yes"/>
      <point x="651" y="473"/>
      <point x="575" y="568"/>
      <point x="445" y="568" type="curve" smooth="yes"/>
      <point x="345" y="568"/>
      <point x="284" y="511"/>
      <point x="257" y="451" type="curve"/>
      <point x="272" y="299" type="line"/>
      <point x="272" y="353"/>
      <point x="302" y="386"/>
      <point x="351" y="386" type="curve" smooth="yes"/>
      <point x="399" y="386"/>
      <point x="430" y="353"/>
    </contour>
  </outline>
</glyph>
<glyph name="i" format="1">
  <advance width="323"/>
  <unicode hex="0069"/>
  <outline>
    <contour>
      <point x="50" y="564" type="line"/>
      <point x="50" y="0" type="line"/>
      <point x="272" y="0" type="line"/>
      <point x="272" y="564" type="line"/>
    </contour>
    <contour>
      <point x="83" y="609"/>
      <point x="162" y="609" type="curve" smooth="yes"/>
      <point x="240" y="609"/>
      <point x="289" y="657"/>
      <point x="289" y="718" type="curve" smooth="yes"/>
      <point x="289" y="780"/>
      <point x="240" y="829"/>
      <point x="162" y="829" type="curve" smooth="yes"/>
      <point x="83" y="829"/>
      <point x="34" y="780"/>
      <point x="34" y="718" type="curve" smooth="yes"/>
      <point x="34" y="657"/>
    </contour>
    <contour>
      <point x="272" y="-1" type="move" name="ogonek"/>
    </contour>
  </outline>
</glyph>
<glyph name="j" format="1">
  <advance width="321"/>
  <unicode hex="006A"/>
  <outline>
    <contour>
      <point x="81" y="609"/>
      <point x="160" y="609" type="curve" smooth="yes"/>
      <point x="238" y="609"/>
      <point x="287" y="657"/>
      <point x="287" y="718" type="curve" smooth="yes"/>
      <point x="287" y="780"/>
      <point x="238" y="829"/>
      <point x="160" y="829" type="curve" smooth="yes"/>
      <point x="81" y="829"/>
      <point x="32" y="780"/>
      <point x="32" y="718" type="curve" smooth="yes"/>
      <point x="32" y="657"/>
    </contour>
    <contour>
      <point x="272" y="564" type="line"/>
      <point x="50" y="564" type="line"/>
      <point x="50" y="-43" type="line" smooth="yes"/>
      <point x="50" y="-69"/>
      <point x="38" y="-81"/>
      <point x="9" y="-81" type="curve" smooth="yes"/>
      <point x="-34" y="-81" type="line"/>
      <point x="-34" y="-270" type="line"/>
      <point x="40" y="-270" type="line" smooth="yes"/>
      <point x="172" y="-270"/>
      <point x="272" y="-214"/>
      <point x="272" y="-39" type="curve" smooth="yes"/>
    </contour>
  </outline>
</glyph>
<glyph name="k" format="1">
  <advance width="674"/>
  <unicode hex="006B"/>
  <outline>
    <contour>
      <point x="50" y="740" type="line"/>
      <point x="50" y="0" type="line"/>
      <point x="272" y="0" type="line"/>
      <point x="272" y="740" type="line"/>
    </contour>
    <contour>
      <point x="418" y="564" type="line"/>
      <point x="272" y="291" type="line"/>
      <point x="416" y="0" type="line"/>
      <point x="676" y="0" type="line"/>
      <point x="487" y="298" type="line"/>
      <point x="494" y="271" type="line"/>
      <point x="671" y="564" type="line"/>
    </contour>
    <contour>
      <point x="347" y="0" type="move" name="bottom"/>
    </contour>
  </outline>
</glyph>
<glyph name="l" format="1">
  <advance width="322"/>
  <unicode hex="006C"/>
  <outline>
    <contour>
      <point x="50" y="646" type="line"/>
      <point x="50" y="0" type="line"/>
      <point x="272" y="0" type="line"/>
      <point x="272" y="785" type="line"/>
    </contour>
    <contour>
      <point x="163" y="0" type="move" name="bottom"/>
    </contour>
    <contour>
      <point x="163" y="10" type="move" name="commaaccent"/>
    </contour>
    <contour>
      <point x="163" y="740" type="move" name="top"/>
    </contour>
    <contour>
      <point x="328" y="564" type="move" name="topright"/>
    </contour>
  </outline>
</glyph>
<glyph name="m" format="1">
  <advance width="1076"/>
  <unicode hex="006D"/>
  <outline>
    <contour>
      <point x="50" y="564" type="line"/>
      <point x="50" y="0" type="line"/>
      <point x="272" y="0" type="line"/>
      <point x="272" y="564" type="line"/>
    </contour>
    <contour>
      <point x="430" y="299" type="curve" smooth="yes"/>
      <point x="430" y="0" type="line"/>
      <point x="651" y="0" type="line"/>
      <point x="651" y="327" type="line" smooth="yes"/>
      <point x="651" y="473"/>
      <point x="566" y="568"/>
      <point x="435" y="568" type="curve" smooth="yes"/>
      <point x="340" y="568"/>
      <point x="282" y="516"/>
      <point x="257" y="461" type="curve"/>
      <point x="272" y="299" type="line"/>
      <point x="272" y="347"/>
      <point x="302" y="376"/>
      <point x="351" y="376" type="curve" smooth="yes"/>
      <point x="399" y="376"/>
      <point x="430" y="347"/>
    </contour>
    <contour>
      <point x="809" y="299" type="curve" smooth="yes"/>
      <point x="809" y="0" type="line"/>
      <point x="1030" y="0" type="line"/>
      <point x="1030" y="327" type="line" smooth="yes"/>
      <point x="1030" y="473"/>
      <point x="949" y="568"/>
      <point x="803" y="568" type="curve" smooth="yes"/>
      <point x="701" y="568"/>
      <point x="627" y="497"/>
      <point x="595" y="427" type="curve"/>
      <point x="651" y="299" type="line"/>
      <point x="651" y="347"/>
      <point x="681" y="376"/>
      <point x="730" y="376" type="curve" smooth="yes"/>
      <point x="778" y="376"/>
      <point x="809" y="347"/>
    </contour>
  </outline>
</glyph>
<glyph name="n" format="1">
  <advance width="697"/>
  <unicode hex="006E"/>
  <outline>
    <contour>
      <point x="50" y="564" type="line"/>
      <point x="50" y="0" type="line"/>
      <point x="272" y="0" type="line"/>
      <point x="272" y="564" type="line"/>
    </contour>
    <contour>
      <point x="430" y="299" type="curve" smooth="yes"/>
      <point x="430" y="0" type="line"/>
      <point x="651" y="0" type="line"/>
      <point x="651" y="327" type="line" smooth="yes"/>
      <point x="651" y="473"/>
      <point x="575" y="568"/>
      <point x="445" y="568" type="curve" smooth="yes"/>
      <point x="345" y="568"/>
      <point x="284" y="511"/>
      <point x="257" y="451" type="curve"/>
      <point x="272" y="299" type="line"/>
      <point x="272" y="353"/>
      <point x="302" y="386"/>
      <point x="351" y="386" type="curve" smooth="yes"/>
      <point x="399" y="386"/>
      <point x="430" y="353"/>
    </contour>
    <contour>
      <point x="348" y="0" type="move" name="bottom"/>
    </contour>
    <contour>
      <point x="384" y="564" type="move" name="top"/>
    </contour>
  </outline>
</glyph>
<glyph name="o" format="1">
  <advance width="636"/>
  <unicode hex="006F"/>
  <outline>
    <contour>
      <point x="318" y="-7" type="curve"/>
      <point x="488" y="-7"/>
      <point x="616" y="102"/>
      <point x="616" y="282" type="curve"/>
      <point x="616" y="462"/>
      <point x="488" y="571"/>
      <point x="318" y="571" type="curve"/>
      <point x="148" y="571"/>
      <point x="20" y="462"/>
      <point x="20" y="282" type="curve"/>
      <point x="20" y="102"/>
      <point x="148" y="-7"/>
    </contour>
    <contour>
      <point x="318" y="185" type="curve"/>
      <point x="278" y="185"/>
      <point x="245" y="215"/>
      <point x="245" y="282" type="curve"/>
      <point x="245" y="349"/>
      <point x="279" y="379"/>
      <point x="318" y="379" type="curve"/>
      <point x="357" y="379"/>
      <point x="391" y="349"/>
      <point x="391" y="282" type="curve"/>
      <point x="391" y="215"/>
      <point x="357" y="185"/>
    </contour>
    <contour>
      <point x="343" y="564" type="move" name="top"/>
    </contour>
  </outline>
</glyph>
<glyph name="p" format="1">
  <advance width="680"/>
  <unicode hex="0070"/>
  <outline>
    <contour>
      <point x="299" y="538"/>
      <point x="272" y="487" type="curve"/>
      <point x="272" y="564" type="line"/>
      <point x="50" y="564" type="line"/>
      <point x="50" y="-270" type="line"/>
      <point x="272" y="-270" type="line"/>
      <point x="272" y="77" type="line"/>
      <point x="299" y="26"/>
      <point x="352" y="-7"/>
      <point x="427" y="-7" type="curve"/>
      <point x="557" y="-7"/>
      <point x="660" y="100"/>
      <point x="660" y="282" type="curve"/>
      <point x="660" y="464"/>
      <point x="557" y="571"/>
      <point x="427" y="571" type="curve"/>
      <point x="352" y="571"/>
    </contour>
    <contour>
      <point x="435" y="344"/>
      <point x="435" y="282" type="curve"/>
      <point x="435" y="220"/>
      <point x="399" y="187"/>
      <point x="353" y="187" type="curve"/>
      <point x="307" y="187"/>
      <point x="271" y="220"/>
      <point x="271" y="282" type="curve"/>
      <point x="271" y="344"/>
      <point x="307" y="377"/>
      <point x="353" y="377" type="curve"/>
      <point x="399" y="377"/>
    </contour>
  </outline>
</glyph>
<glyph name="q" format="1">
  <advance width="680"/>
  <unicode hex="0071"/>
  <outline>
    <contour>
      <point x="20" y="448"/>
      <point x="20" y="278" type="curve" smooth="yes"/>
      <point x="20" y="108"/>
      <point x="136" y="-6"/>
      <point x="269" y="-6" type="curve" smooth="yes"/>
      <point x="327" y="-6"/>
      <point x="369" y="16"/>
      <point x="409" y="62" type="curve"/>
      <point x="409" y="-270" type="line"/>
      <point x="630" y="-270" type="line"/>
      <point x="630" y="564" type="line"/>
      <point x="409" y="564" type="line"/>
      <point x="409" y="514" type="line"/>
      <point x="372" y="554"/>
      <point x="327" y="568"/>
      <point x="269" y="568" type="curve" smooth="yes"/>
      <point x="136" y="568"/>
    </contour>
    <contour>
      <point x="409" y="354"/>
      <point x="409" y="282" type="curve" smooth="yes"/>
      <point x="409" y="210"/>
      <point x="360" y="187"/>
      <point x="327" y="187" type="curve" smooth="yes"/>
      <point x="294" y="187"/>
      <point x="245" y="206"/>
      <point x="245" y="278" type="curve" smooth="yes"/>
      <point x="245" y="350"/>
      <point x="294" y="376"/>
      <point x="327" y="376" type="curve" smooth="yes"/>
      <point x="360" y="376"/>
    </contour>
  </outline>
</glyph>
<glyph name="r" format="1">
  <advance width="467"/>
  <unicode hex="0072"/>
  <outline>
    <contour>
      <point x="217" y="291" type="curve"/>
      <point x="272" y="231" type="line"/>
      <point x="272" y="308"/>
      <point x="314" y="331"/>
      <point x="394" y="331" type="curve" smooth="yes"/>
      <point x="457" y="331" type="line"/>
      <point x="457" y="568" type="line"/>
      <point x="327" y="568"/>
      <point x="217" y="428"/>
    </contour>
    <contour>
      <point x="50" y="564" type="line"/>
      <point x="50" y="0" type="line"/>
      <point x="272" y="0" type="line"/>
      <point x="272" y="564" type="line"/>
    </contour>
    <contour>
      <point x="155" y="0" type="move" name="bottom"/>
    </contour>
    <contour>
      <point x="275" y="564" type="move" name="top"/>
    </contour>
  </outline>
</glyph>
<glyph name="s" format="1">
  <advance width="577"/>
  <unicode hex="0073"/>
  <outline>
    <contour>
      <point x="300" y="-7" type="curve" smooth="yes"/>
      <point x="450" y="-7"/>
      <point x="540" y="69"/>
      <point x="540" y="169" type="curve" smooth="yes"/>
      <point x="540" y="386"/>
      <point x="245" y="321"/>
      <point x="245" y="391" type="curve" smooth="yes"/>
      <point x="245" y="408"/>
      <point x="258" y="417"/>
      <point x="280" y="417" type="curve" smooth="yes"/>
      <point x="316" y="417"/>
      <point x="338" y="399"/>
      <point x="344" y="369" type="curve"/>
      <point x="541" y="369" type="line"/>
      <point x="525" y="480"/>
      <point x="446" y="571"/>
      <point x="285" y="571" type="curve" smooth="yes"/>
      <point x="126" y="571"/>
      <point x="45" y="487"/>
      <point x="45" y="385" type="curve" smooth="yes"/>
      <point x="45" y="178"/>
      <point x="336" y="246"/>
      <point x="336" y="172" type="curve" smooth="yes"/>
      <point x="336" y="158"/>
      <point x="322" y="146"/>
      <point x="299" y="146" type="curve" smooth="yes"/>
      <point x="265" y="146"/>
      <point x="238" y="161"/>
      <point x="233" y="195" type="curve"/>
      <point x="20" y="195" type="line"/>
      <point x="30" y="80"/>
      <point x="137" y="-7"/>
    </contour>
    <contour>
      <point x="301" y="0" type="move" name="bottom"/>
    </contour>
    <contour>
      <point x="301" y="564" type="move" name="top"/>
    </contour>
  </outline>
</glyph>
<glyph name="t" format="1">
  <advance width="436"/>
  <unicode hex="0074"/>
  <outline>
    <contour>
      <point x="85" y="636" type="line"/>
      <point x="85" y="231" type="line" smooth="yes"/>
      <point x="85" y="56"/>
      <point x="185" y="0"/>
      <point x="317" y="0" type="curve" smooth="yes"/>
      <point x="401" y="0" type="line"/>
      <point x="401" y="189" type="line"/>
      <point x="348" y="189" type="line" smooth="yes"/>
      <point x="319" y="189"/>
      <point x="307" y="201"/>
      <point x="307" y="227" type="curve" smooth="yes"/>
      <point x="307" y="775" type="line"/>
    </contour>
    <contour>
      <point x="15" y="379" type="line"/>
      <point x="399" y="379" type="line"/>
      <point x="399" y="564" type="line"/>
      <point x="15" y="564" type="line"/>
    </contour>
    <contour>
      <point x="227" y="0" type="move" name="bottom"/>
    </contour>
    <contour>
      <point x="283" y="942" type="move" name="topright"/>
    </contour>
  </outline>
</glyph>
<glyph name="u" format="1">
  <advance width="698"/>
  <unicode hex="0075"/>
  <outline>
    <contour>
      <point x="648" y="0" type="line"/>
      <point x="648" y="564" type="line"/>
      <point x="426" y="564" type="line"/>
      <point x="426" y="0" type="line"/>
    </contour>
    <contour>
      <point x="268" y="265" type="curve" smooth="yes"/>
      <point x="268" y="564" type="line"/>
      <point x="46" y="564" type="line"/>
      <point x="46" y="237" type="line" smooth="yes"/>
      <point x="46" y="91"/>
      <point x="123" y="-4"/>
      <point x="253" y="-4" type="curve" smooth="yes"/>
      <point x="353" y="-4"/>
      <point x="414" y="53"/>
      <point x="441" y="113" type="curve"/>
      <point x="426" y="265" type="line"/>
      <point x="426" y="211"/>
      <point x="396" y="178"/>
      <point x="347" y="178" type="curve" smooth="yes"/>
      <point x="299" y="178"/>
      <point x="268" y="211"/>
    </contour>
    <contour>
      <point x="648" y="-3" type="move" name="ogonek"/>
    </contour>
    <contour>
      <point x="350" y="564" type="move" name="top"/>
    </contour>
  </outline>
</glyph>
<glyph name="w" format="1">
  <advance width="917"/>
  <unicode hex="0077"/>
  <outline>
    <contour>
      <point x="5" y="564" type="line"/>
      <point x="117" y="0" type="line"/>
      <point x="409" y="0" type="line"/>
      <point x="478" y="409" type="line"/>
      <point x="438" y="409" type="line"/>
      <point x="507" y="0" type="line"/>
      <point x="799" y="0" type="line"/>
      <point x="912" y="564" type="line"/>
      <point x="700" y="564" type="line"/>
      <point x="652" y="72" type="line"/>
      <point x="662" y="72" type="line"/>
      <point x="577" y="564" type="line"/>
      <point x="340" y="564" type="line"/>
      <point x="254" y="72" type="line"/>
      <point x="264" y="72" type="line"/>
      <point x="217" y="564" type="line"/>
    </contour>
  </outline>
</glyph>
<glyph name="x" format="1">
  <advance width="668"/>
  <unicode hex="0078"/>
  <outline>
    <contour>
      <point x="0" y="564" type="line"/>
      <point x="420" y="0" type="line"/>
      <point x="668" y="0" type="line"/>
      <point x="248" y="564" type="line"/>
    </contour>
    <contour>
      <point x="373" y="213" type="line"/>
      <point x="249" y="375" type="line"/>
      <point x="10" y="0" type="line"/>
      <point x="254" y="0" type="line"/>
    </contour>
    <contour>
      <point x="306" y="371" type="line"/>
      <point x="420" y="209" type="line"/>
      <point x="659" y="564" type="line"/>
      <point x="415" y="564" type="line"/>
    </contour>
  </outline>
</glyph>
<glyph name="y" format="1">
  <advance width="697"/>
  <unicode hex="0079"/>
  <outline>
    <contour>
      <point x="452" y="564" type="line"/>
      <point x="353" y="278" type="line"/>
      <point x="247" y="564" type="line"/>
      <point x="0" y="564" type="line"/>
      <point x="235" y="28" type="line"/>
      <point x="93" y="-270" type="line"/>
      <point x="336" y="-270" type="line"/>
      <point x="697" y="564" type="line"/>
    </contour>
    <contour>
      <point x="349" y="564" type="move" name="top"/>
    </contour>
  </outline>
</glyph>
<glyph name="z" format="1">
  <advance width="518"/>
  <unicode hex="007A"/>
  <outline>
    <contour>
      <point x="488" y="390" type="line"/>
      <point x="488" y="564" type="line"/>
      <point x="23" y="564" type="line"/>
      <point x="23" y="380" type="line"/>
      <point x="235" y="380" type="line"/>
      <point x="20" y="174" type="line"/>
      <point x="20" y="0" type="line"/>
      <point x="498" y="0" type="line"/>
      <point x="498" y="184" type="line"/>
      <point x="263" y="184" type="line"/>
    </contour>
    <contour>
      <point x="266" y="564" type="move" name="top"/>
    </contour>
  </outline>
</glyph>
<glyph name="bar" format="1">
  <advance width="262"/>
  <unicode hex="007C"/>
  <outline>
    <contour>
      <point x="242" y="828" type="line"/>
      <point x="20" y="828" type="line"/>
      <point x="20" y="-144" type="line"/>
      <point x="242" y="-144" type="line"/>
    </contour>
  </outline>
</glyph>
<glyph name="brokenbar" format="1">
  <advance width="432"/>
  <unicode hex="00A6"/>
  <outline>
    <contour>
      <point x="327" y="287" type="line"/>
      <point x="105" y="287" type="line"/>
      <point x="105" y="-144" type="line"/>
      <point x="327" y="-144" type="line"/>
    </contour>
    <contour>
      <point x="105" y="398" type="line"/>
      <point x="327" y="398" type="line"/>
      <point x="327" y="828" type="line"/>
      <point x="105" y="828" type="line"/>
    </contour>
  </outline>
</glyph>
<glyph name="dieresis" format="1">
  <advance width="417"/>
  <unicode hex="00A8"/>
  <outline>
    <contour>
      <point x="25" y="603"/>
      <point x="82" y="603" type="curve" smooth="yes"/>
      <point x="142" y="603"/>
      <point x="187" y="647"/>
      <point x="187" y="705" type="curve" smooth="yes"/>
      <point x="187" y="765"/>
      <point x="142" y="809"/>
      <point x="82" y="809" type="curve" smooth="yes"/>
      <point x="25" y="809"/>
      <point x="-20" y="765"/>
      <point x="-20" y="705" type="curve" smooth="yes"/>
      <point x="-20" y="647"/>
    </contour>
    <contour>
      <point x="275" y="603"/>
      <point x="332" y="603" type="curve" smooth="yes"/>
      <point x="392" y="603"/>
      <point x="437" y="647"/>
      <point x="437" y="705" type="curve" smooth="yes"/>
      <point x="437" y="765"/>
      <point x="392" y="809"/>
      <point x="332" y="809" type="curve" smooth="yes"/>
      <point x="275" y="809"/>
      <point x="230" y="765"/>
      <point x="230" y="705" type="curve" smooth="yes"/>
      <point x="230" y="647"/>
    </contour>
    <contour>
      <point x="209" y="564" type="move" name="_top"/>
    </contour>
  </outline>
</glyph>
<glyph name="guillemotleft" format="1">
  <advance width="644"/>
  <unicode hex="00AB"/>
  <outline>
    <contour>
      <point x="337" y="106" type="line"/>
      <point x="254" y="290" type="line"/>
      <point x="337" y="474" type="line"/>
      <point x="126" y="474" type="line"/>
      <point x="45" y="290" type="line"/>
      <point x="126" y="106" type="line"/>
    </contour>
    <contour>
      <point x="604" y="106" type="line"/>
      <point x="521" y="290" type="line"/>
      <point x="604" y="474" type="line"/>
      <point x="393" y="474" type="line"/>
      <point x="312" y="290" type="line"/>
      <point x="393" y="106" type="line"/>
    </contour>
  </outline>
</glyph>
<glyph name="logicalnot" format="1">
  <advance width="778"/>
  <unicode hex="00AC"/>
  <outline>
    <contour>
      <point x="55" y="448" type="line"/>
      <point x="55" y="282" type="line"/>
      <point x="491" y="282" type="line"/>
      <point x="491" y="155" type="line"/>
      <point x="713" y="155" type="line"/>
      <point x="713" y="448" type="line"/>
    </contour>
  </outline>
</glyph>
<glyph name="macron" format="1">
  <advance width="451"/>
  <unicode hex="00AF"/>
  <outline>
    <contour>
      <point x="10" y="769" type="line"/>
      <point x="10" y="622" type="line"/>
      <point x="441" y="622" type="line"/>
      <point x="441" y="769" type="line"/>
    </contour>
    <contour>
      <point x="225" y="564" type="move" name="_top"/>
    </contour>
  </outline>
</glyph>
<glyph name="acute" format="1">
  <advance width="279"/>
  <unicode hex="00B4"/>
  <outline>
    <contour>
      <point x="269" y="857" type="line"/>
      <point x="10" y="747" type="line"/>
      <point x="10" y="569" type="line"/>
      <point x="269" y="663" type="line"/>
    </contour>
    <contour>
      <point x="141" y="564" type="move" name="_top"/>
    </contour>
  </outline>
</glyph>
<glyph name="paragraph" format="1">
  <advance width="778"/>
  <unicode hex="00B6"/>
  <outline>
    <contour>
      <point x="703" y="708" type="line"/>
      <point x="261" y="708" type="line" smooth="yes"/>
      <point x="88" y="708"/>
      <point x="22" y="595"/>
      <point x="22" y="486" type="curve" smooth="yes"/>
      <point x="22" y="377"/>
      <point x="89" y="265"/>
      <point x="261" y="265" type="curve" smooth="yes"/>
      <point x="292" y="265" type="line"/>
      <point x="292" y="0" type="line"/>
      <point x="468" y="0" type="line"/>
      <point x="468" y="542" type="line"/>
      <point x="526" y="542" type="line"/>
      <point x="526" y="0" type="line"/>
      <point x="703" y="0" type="line"/>
    </contour>
  </outline>
</glyph>
<glyph name="cedilla" format="1">
  <advance width="343"/>
  <unicode hex="00B8"/>
  <outline>
    <contour>
      <point x="-61" y="-154" type="line"/>
      <point x="137" y="-154" type="line"/>
      <point x="209" y="17" type="line"/>
      <point x="45" y="17" type="line"/>
    </contour>
    <contour>
      <point x="129" y="7" type="move" name="_bottom"/>
    </contour>
  </outline>
</glyph>
<glyph name="onesuperior" format="1">
  <advance width="285"/>
  <unicode hex="00B9"/>
  <outline>
    <contour>
      <point x="86" y="577" type="line"/>
      <point x="86" y="352" type="line"/>
      <point x="250" y="352" type="line"/>
      <point x="250" y="704" type="line"/>
      <point x="20" y="704" type="line"/>
      <point x="20" y="577" type="line"/>
    </contour>
  </outline>
</glyph>
<glyph name="onequarter" format="1">
  <advance width="879"/>
  <unicode hex="00BC"/>
  <outline>
    <contour>
      <point x="498" y="708" type="line"/>
      <point x="110" y="0" type="line"/>
      <point x="327" y="0" type="line"/>
      <point x="714" y="708" type="line"/>
    </contour>
    <contour>
      <point x="857" y="146" type="line"/>
      <point x="822" y="146" type="line"/>
      <point x="822" y="351" type="line"/>
      <point x="595" y="351" type="line"/>
      <point x="454" y="142" type="line"/>
      <point x="454" y="58" type="line"/>
      <point x="657" y="58" type="line"/>
      <point x="657" y="0" type="line"/>
      <point x="822" y="0" type="line"/>
      <point x="822" y="58" type="line"/>
      <point x="857" y="58" type="line"/>
    </contour>
    <contour>
      <point x="666" y="151" type="line"/>
      <point x="607" y="151" type="line"/>
      <point x="666" y="250" type="line"/>
    </contour>
    <component base="onesuperior" xOffset="25"/>
  </outline>
</glyph>
<glyph name="onehalf" format="1">
  <advance width="928"/>
  <unicode hex="00BD"/>
  <outline>
    <contour>
      <point x="508" y="711" type="line"/>
      <point x="110" y="0" type="line"/>
      <point x="327" y="0" type="line"/>
      <point x="724" y="711" type="line"/>
    </contour>
    <component base="onesuperior" xOffset="25"/>
    <component base="twosuperior" xOffset="454" yOffset="-353"/>
  </outline>
</glyph>
<glyph name="AE" format="1">
  <advance width="986"/>
  <unicode hex="00C6"/>
  <outline>
    <contour>
      <point x="248" y="264" type="line"/>
      <point x="155" y="97" type="line"/>
      <point x="598" y="97" type="line"/>
      <point x="598" y="264" type="line"/>
    </contour>
    <contour>
      <point x="712" y="532" type="line"/>
      <point x="952" y="532" type="line"/>
      <point x="952" y="708" type="line"/>
      <point x="339" y="708" type="line"/>
      <point x="0" y="0" type="line"/>
      <point x="241" y="0" type="line"/>
      <point x="490" y="537" type="line"/>
      <point x="490" y="0" type="line"/>
      <point x="952" y="0" type="line"/>
      <point x="952" y="177" type="line"/>
      <point x="712" y="177" type="line"/>
      <point x="712" y="280" type="line"/>
      <point x="922" y="280" type="line"/>
      <point x="922" y="447" type="line"/>
      <point x="712" y="447" type="line"/>
    </contour>
  </outline>
</glyph>
<glyph name="multiply" format="1">
  <advance width="581"/>
  <unicode hex="00D7"/>
  <outline>
    <contour>
      <point x="171" y="612" type="line"/>
      <point x="24" y="467" type="line"/>
      <point x="414" y="78" type="line"/>
      <point x="561" y="223" type="line"/>
    </contour>
    <contour>
      <point x="20" y="221" type="line"/>
      <point x="163" y="79" type="line"/>
      <point x="550" y="470" type="line"/>
      <point x="406" y="612" type="line"/>
    </contour>
  </outline>
</glyph>
<glyph name="Oslash" format="1">
  <advance width="788"/>
  <unicode hex="00D8"/>
  <outline>
    <contour>
      <point x="654" y="712" type="line"/>
      <point x="18" y="1" type="line"/>
      <point x="134" y="1" type="line"/>
      <point x="769" y="712" type="line"/>
    </contour>
    <component base="O" xOffset="-1"/>
  </outline>
</glyph>
<glyph name="germandbls" format="1">
  <advance width="815"/>
  <unicode hex="00DF"/>
  <outline>
    <contour>
      <point x="44" y="509" type="curve" smooth="yes"/>
      <point x="44" y="0" type="line"/>
      <point x="264" y="0" type="line"/>
      <point x="264" y="499" type="line" smooth="yes"/>
      <point x="264" y="548"/>
      <point x="297" y="580"/>
      <point x="346" y="580" type="curve" smooth="yes"/>
      <point x="387" y="580"/>
      <point x="415" y="560"/>
      <point x="415" y="531" type="curve" smooth="yes"/>
      <point x="415" y="483"/>
      <point x="326" y="431"/>
      <point x="326" y="358" type="curve" smooth="yes"/>
      <point x="326" y="301"/>
      <point x="370" y="268"/>
      <point x="488" y="223" type="curve" smooth="yes"/>
      <point x="554" y="198"/>
      <point x="564" y="186"/>
      <point x="564" y="169" type="curve" smooth="yes"/>
      <point x="564" y="153"/>
      <point x="552" y="143"/>
      <point x="534" y="143" type="curve" smooth="yes"/>
      <point x="510" y="143"/>
      <point x="488" y="161"/>
      <point x="480" y="188" type="curve"/>
      <point x="286" y="188" type="line"/>
      <point x="310" y="60"/>
      <point x="396" y="-10"/>
      <point x="540" y="-10" type="curve" smooth="yes"/>
      <point x="676" y="-10"/>
      <point x="771" y="65"/>
      <point x="771" y="179" type="curve" smooth="yes"/>
      <point x="771" y="260"/>
      <point x="730" y="304"/>
      <point x="626" y="346" type="curve" smooth="yes"/>
      <point x="553" y="376"/>
      <point x="546" y="384"/>
      <point x="546" y="398" type="curve" smooth="yes"/>
      <point x="546" y="429"/>
      <point x="634" y="477"/>
      <point x="634" y="572" type="curve" smooth="yes"/>
      <point x="634" y="681"/>
      <point x="516" y="763"/>
      <point x="360" y="763" type="curve" smooth="yes"/>
      <point x="182" y="763"/>
      <point x="44" y="670"/>
    </contour>
  </outline>
</glyph>
<glyph name="ae" format="1">
  <advance width="980"/>
  <unicode hex="00E6"/>
  <outline>
    <contour>
      <point x="490" y="123" type="curve" smooth="yes"/>
      <point x="603" y="290" type="line"/>
      <point x="603" y="332" type="line" smooth="yes"/>
      <point x="603" y="476"/>
      <point x="490" y="572"/>
      <point x="329" y="572" type="curve" smooth="yes"/>
      <point x="174" y="572"/>
      <point x="68" y="482"/>
      <point x="37" y="354" type="curve"/>
      <point x="261" y="354" type="line"/>
      <point x="269" y="375"/>
      <point x="289" y="394"/>
      <point x="322" y="394" type="curve" smooth="yes"/>
      <point x="358" y="394"/>
      <point x="381" y="370"/>
      <point x="381" y="323" type="curve"/>
      <point x="284" y="323" type="line" smooth="yes"/>
      <point x="107" y="323"/>
      <point x="30" y="251"/>
      <point x="30" y="151" type="curve" smooth="yes"/>
      <point x="30" y="52"/>
      <point x="103" y="-11"/>
      <point x="223" y="-11" type="curve" smooth="yes"/>
      <point x="310" y="-11"/>
      <point x="414" y="10"/>
    </contour>
    <contour>
      <point x="300" y="143" type="curve" smooth="yes"/>
      <point x="272" y="143"/>
      <point x="254" y="158"/>
      <point x="254" y="186" type="curve" smooth="yes"/>
      <point x="254" y="214"/>
      <point x="277" y="233"/>
      <point x="318" y="233" type="curve" smooth="yes"/>
      <point x="380" y="233" type="line"/>
      <point x="380" y="221" type="line" smooth="yes"/>
      <point x="380" y="180"/>
      <point x="344" y="143"/>
    </contour>
    <component base="e" xOffset="364" identifier="5020C8E8"/>
    <contour>
      <point x="603" y="0" type="move" name="ogonek"/>
    </contour>
    <contour>
      <point x="323" y="572" type="move" name="top"/>
    </contour>
  </outline>
</glyph>
<glyph name="divide" format="1">
  <advance width="551"/>
  <unicode hex="00F7"/>
  <outline>
    <contour>
      <point x="20" y="441" type="line"/>
      <point x="20" y="240" type="line"/>
      <point x="531" y="240" type="line"/>
      <point x="531" y="441" type="line"/>
    </contour>
    <component base="period" xOffset="120"/>
    <component base="period" xOffset="120" yOffset="475"/>
  </outline>
</glyph>
<glyph name="oslash" format="1">
  <advance width="621"/>
  <unicode hex="00F8"/>
  <outline>
    <contour>
      <point x="518" y="564" type="line"/>
      <point x="0" y="0" type="line"/>
      <point x="103" y="0" type="line"/>
      <point x="621" y="564" type="line"/>
    </contour>
    <component base="o" xOffset="-8"/>
  </outline>
</glyph>
<glyph name="Aogonek" format="1">
  <advance width="773"/>
  <unicode hex="0104"/>
  <outline>
    <contour>
      <point x="731" y="105" type="line"/>
      <point x="694" y="90" type="line" smooth="yes"/>
      <point x="538" y="27"/>
      <point x="499" y="-26"/>
      <point x="499" y="-97" type="curve" smooth="yes"/>
      <point x="499" y="-177"/>
      <point x="559" y="-223"/>
      <point x="659" y="-223" type="curve" smooth="yes"/>
      <point x="702" y="-223"/>
      <point x="740" y="-217"/>
      <point x="773" y="-207" type="curve"/>
      <point x="773" y="-91" type="line"/>
      <point x="740" y="-102"/>
      <point x="713" y="-107"/>
      <point x="691" y="-107" type="curve" smooth="yes"/>
      <point x="667" y="-107"/>
      <point x="654" y="-98"/>
      <point x="654" y="-82" type="curve" smooth="yes"/>
      <point x="654" y="-66"/>
      <point x="666" y="-46"/>
      <point x="729" y="-19" type="curve" smooth="yes"/>
      <point x="773" y="0" type="line"/>
    </contour>
    <component base="A"/>
    <contour>
      <point x="773" y="0" type="move" name="_ogonek"/>
    </contour>
  </outline>
</glyph>
<glyph name="dcroat" format="1">
  <advance width="704"/>
  <unicode hex="0111"/>
  <outline>
    <contour>
      <point x="349" y="688" type="line"/>
      <point x="349" y="592" type="line"/>
      <point x="694" y="592" type="line"/>
      <point x="694" y="688" type="line"/>
    </contour>
    <component base="d"/>
  </outline>
</glyph>
<glyph name="Gcommaaccent" format="1">
  <advance width="756"/>
  <unicode hex="0122"/>
  <outline>
    <contour>
      <point x="454" y="-35" type="curve"/>
      <point x="298" y="-35" type="line"/>
      <point x="298" y="-182" type="line"/>
      <point x="370" y="-182" type="line"/>
      <point x="370" y="-193" type="line" smooth="yes"/>
      <point x="370" y="-245"/>
      <point x="350" y="-268"/>
      <point x="315" y="-268" type="curve"/>
      <point x="315" y="-346" type="line"/>
      <point x="429" y="-346"/>
      <point x="480" y="-266"/>
      <point x="480" y="-170" type="curve" smooth="yes"/>
      <point x="480" y="-128"/>
      <point x="472" y="-82"/>
    </contour>
    <contour>
      <point x="378" y="0" type="move" name="_bottom"/>
    </contour>
  </outline>
</glyph>
<glyph name="gcommaaccent" format="1">
  <advance width="680"/>
  <unicode hex="0123"/>
  <outline>
    <contour>
      <point x="282" y="599" type="curve"/>
      <point x="438" y="599" type="line"/>
      <point x="438" y="746" type="line"/>
      <point x="366" y="746" type="line"/>
      <point x="366" y="757" type="line" smooth="yes"/>
      <point x="366" y="809"/>
      <point x="387" y="832"/>
      <point x="421" y="832" type="curve"/>
      <point x="421" y="910" type="line"/>
      <point x="308" y="910"/>
      <point x="257" y="830"/>
      <point x="257" y="734" type="curve" smooth="yes"/>
      <point x="257" y="692"/>
      <point x="264" y="646"/>
    </contour>
    <component base="g"/>
  </outline>
</glyph>
<glyph name="Kcommaaccent" format="1">
  <advance width="798"/>
  <unicode hex="0136"/>
  <outline>
    <contour>
      <point x="475" y="-35" type="curve"/>
      <point x="319" y="-35" type="line"/>
      <point x="319" y="-182" type="line"/>
      <point x="391" y="-182" type="line"/>
      <point x="391" y="-193" type="line" smooth="yes"/>
      <point x="391" y="-245"/>
      <point x="370" y="-268"/>
      <point x="336" y="-268" type="curve"/>
      <point x="336" y="-346" type="line"/>
      <point x="449" y="-346"/>
      <point x="500" y="-266"/>
      <point x="500" y="-170" type="curve" smooth="yes"/>
      <point x="500" y="-128"/>
      <point x="493" y="-82"/>
    </contour>
    <contour>
      <point x="399" y="0" type="move" name="_bottom"/>
    </contour>
  </outline>
</glyph>
<glyph name="kcommaaccent" format="1">
  <advance width="676"/>
  <unicode hex="0137"/>
  <outline>
    <contour>
      <point x="418" y="-35" type="curve"/>
      <point x="262" y="-35" type="line"/>
      <point x="262" y="-182" type="line"/>
      <point x="334" y="-182" type="line"/>
      <point x="334" y="-193" type="line" smooth="yes"/>
      <point x="334" y="-245"/>
      <point x="313" y="-268"/>
      <point x="279" y="-268" type="curve"/>
      <point x="279" y="-346" type="line"/>
      <point x="392" y="-346"/>
      <point x="443" y="-266"/>
      <point x="443" y="-170" type="curve" smooth="yes"/>
      <point x="443" y="-128"/>
      <point x="436" y="-82"/>
    </contour>
  </outline>
</glyph>
<glyph name="Lcommaaccent" format="1">
  <advance width="511"/>
  <unicode hex="013B"/>
  <outline>
    <contour>
      <point x="366" y="-35" type="curve"/>
      <point x="210" y="-35" type="line"/>
      <point x="210" y="-182" type="line"/>
      <point x="282" y="-182" type="line"/>
      <point x="282" y="-193" type="line" smooth="yes"/>
      <point x="282" y="-245"/>
      <point x="262" y="-268"/>
      <point x="227" y="-268" type="curve"/>
      <point x="227" y="-346" type="line"/>
      <point x="341" y="-346"/>
      <point x="392" y="-266"/>
      <point x="392" y="-170" type="curve" smooth="yes"/>
      <point x="392" y="-128"/>
      <point x="384" y="-82"/>
    </contour>
    <component base="L"/>
    <contour>
      <point x="290" y="10" type="move" name="_commaaccent"/>
    </contour>
  </outline>
</glyph>
<glyph name="lcommaaccent" format="1">
  <advance width="322"/>
  <unicode hex="013C"/>
  <outline>
    <contour>
      <point x="243" y="-35" type="curve"/>
      <point x="87" y="-35" type="line"/>
      <point x="87" y="-182" type="line"/>
      <point x="159" y="-182" type="line"/>
      <point x="159" y="-193" type="line" smooth="yes"/>
      <point x="159" y="-245"/>
      <point x="138" y="-268"/>
      <point x="104" y="-268" type="curve"/>
      <point x="104" y="-346" type="line"/>
      <point x="217" y="-346"/>
      <point x="268" y="-266"/>
      <point x="268" y="-170" type="curve" smooth="yes"/>
      <point x="268" y="-128"/>
      <point x="261" y="-82"/>
    </contour>
  </outline>
</glyph>
<glyph name="Ldot" format="1">
  <advance width="506"/>
  <unicode hex="013F"/>
  <outline>
    <contour>
      <point x="414" y="327" type="curve" smooth="yes"/>
      <point x="464" y="327"/>
      <point x="501" y="364"/>
      <point x="501" y="412" type="curve" smooth="yes"/>
      <point x="501" y="462"/>
      <point x="464" y="499"/>
      <point x="414" y="499" type="curve" smooth="yes"/>
      <point x="366" y="499"/>
      <point x="329" y="462"/>
      <point x="329" y="412" type="curve" smooth="yes"/>
      <point x="329" y="364"/>
      <point x="366" y="327"/>
    </contour>
    <component base="L"/>
  </outline>
</glyph>
<glyph name="Lslash" format="1">
  <advance width="521"/>
  <unicode hex="0141"/>
  <outline>
    <contour>
      <point x="10" y="437" type="line"/>
      <point x="10" y="241" type="line"/>
      <point x="362" y="338" type="line"/>
      <point x="362" y="534" type="line"/>
    </contour>
    <component base="L" xOffset="15"/>
  </outline>
</glyph>
<glyph name="lslash" format="1">
  <advance width="372"/>
  <unicode hex="0142"/>
  <outline>
    <contour>
      <point x="10" y="437" type="line"/>
      <point x="10" y="241" type="line"/>
      <point x="362" y="338" type="line"/>
      <point x="362" y="534" type="line"/>
    </contour>
    <contour>
      <point x="75" y="740" type="line"/>
      <point x="75" y="0" type="line"/>
      <point x="297" y="0" type="line"/>
      <point x="297" y="740" type="line"/>
    </contour>
  </outline>
</glyph>
<glyph name="Ncommaaccent" format="1">
  <advance width="829"/>
  <unicode hex="0145"/>
  <outline>
    <contour>
      <point x="490" y="-35" type="curve"/>
      <point x="334" y="-35" type="line"/>
      <point x="334" y="-182" type="line"/>
      <point x="406" y="-182" type="line"/>
      <point x="406" y="-193" type="line" smooth="yes"/>
      <point x="406" y="-245"/>
      <point x="386" y="-268"/>
      <point x="351" y="-268" type="curve"/>
      <point x="351" y="-346" type="line"/>
      <point x="465" y="-346"/>
      <point x="516" y="-266"/>
      <point x="516" y="-170" type="curve" smooth="yes"/>
      <point x="516" y="-128"/>
      <point x="508" y="-82"/>
    </contour>
    <contour>
      <point x="414" y="0" type="move" name="_bottom"/>
    </contour>
  </outline>
</glyph>
<glyph name="ncommaaccent" format="1">
  <advance width="697"/>
  <unicode hex="0146"/>
  <outline>
    <contour>
      <point x="449" y="-35" type="curve"/>
      <point x="293" y="-35" type="line"/>
      <point x="293" y="-182" type="line"/>
      <point x="365" y="-182" type="line"/>
      <point x="365" y="-193" type="line" smooth="yes"/>
      <point x="365" y="-245"/>
      <point x="344" y="-268"/>
      <point x="310" y="-268" type="curve"/>
      <point x="310" y="-346" type="line"/>
      <point x="423" y="-346"/>
      <point x="474" y="-266"/>
      <point x="474" y="-170" type="curve" smooth="yes"/>
      <point x="474" y="-128"/>
      <point x="467" y="-82"/>
    </contour>
    <component base="n"/>
  </outline>
</glyph>
<glyph name="oe" format="1">
  <advance width="1022"/>
  <unicode hex="0153"/>
  <outline>
    <contour>
      <point x="391" y="349"/>
      <point x="391" y="282" type="curve"/>
      <point x="391" y="215"/>
      <point x="357" y="185"/>
      <point x="318" y="185" type="curve"/>
      <point x="278" y="185"/>
      <point x="245" y="215"/>
      <point x="245" y="282" type="curve"/>
      <point x="245" y="349"/>
      <point x="279" y="379"/>
      <point x="318" y="379" type="curve"/>
      <point x="357" y="379"/>
    </contour>
    <contour>
      <point x="20" y="462"/>
      <point x="20" y="282" type="curve"/>
      <point x="20" y="102"/>
      <point x="148" y="-7"/>
      <point x="318" y="-7" type="curve"/>
      <point x="390" y="-7"/>
      <point x="455" y="13"/>
      <point x="505" y="49" type="curve"/>
      <point x="554" y="13"/>
      <point x="616" y="-7"/>
      <point x="688" y="-7" type="curve" smooth="yes"/>
      <point x="830" y="-7"/>
      <point x="940" y="83"/>
      <point x="964" y="203" type="curve"/>
      <point x="729" y="203" type="line"/>
      <point x="721" y="186"/>
      <point x="706" y="170"/>
      <point x="677" y="170" type="curve" smooth="yes"/>
      <point x="644" y="170"/>
      <point x="616" y="185"/>
      <point x="616" y="258" type="curve" smooth="yes"/>
      <point x="616" y="311" type="line" smooth="yes"/>
      <point x="616" y="370"/>
      <point x="643" y="397"/>
      <point x="688" y="397" type="curve"/>
      <point x="721" y="397"/>
      <point x="751" y="379"/>
      <point x="751" y="334" type="curve"/>
      <point x="576" y="334" type="line"/>
      <point x="576" y="243" type="line"/>
      <point x="971" y="243" type="line"/>
      <point x="974" y="257"/>
      <point x="976" y="273"/>
      <point x="976" y="287" type="curve"/>
      <point x="976" y="464"/>
      <point x="857" y="571"/>
      <point x="688" y="571" type="curve"/>
      <point x="616" y="571"/>
      <point x="554" y="551"/>
      <point x="505" y="515" type="curve"/>
      <point x="455" y="551"/>
      <point x="390" y="571"/>
      <point x="318" y="571" type="curve"/>
      <point x="148" y="571"/>
    </contour>
  </outline>
</glyph>
<glyph name="rcommaaccent" format="1">
  <advance width="467"/>
  <unicode hex="0157"/>
  <outline>
    <contour>
      <point x="236" y="-35" type="curve"/>
      <point x="80" y="-35" type="line"/>
      <point x="80" y="-182" type="line"/>
      <point x="152" y="-182" type="line"/>
      <point x="152" y="-193" type="line" smooth="yes"/>
      <point x="152" y="-245"/>
      <point x="131" y="-268"/>
      <point x="97" y="-268" type="curve"/>
      <point x="97" y="-346" type="line"/>
      <point x="210" y="-346"/>
      <point x="261" y="-266"/>
      <point x="261" y="-170" type="curve" smooth="yes"/>
      <point x="261" y="-128"/>
      <point x="254" y="-82"/>
    </contour>
    <component base="r"/>
  </outline>
</glyph>
<glyph name="Schwa" format="1">
  <advance width="773"/>
  <unicode hex="018F"/>
  <outline>
    <contour>
      <point x="517" y="399" type="curve" smooth="yes"/>
      <point x="517" y="314" type="line" smooth="yes"/>
      <point x="517" y="236"/>
      <point x="449" y="196"/>
      <point x="380" y="196" type="curve" smooth="yes"/>
      <point x="314" y="196"/>
      <point x="260" y="233"/>
      <point x="256" y="287" type="curve"/>
      <point x="542" y="287" type="line"/>
      <point x="542" y="409" type="line"/>
      <point x="34" y="409" type="line"/>
      <point x="32" y="391"/>
      <point x="30" y="370"/>
      <point x="30" y="353" type="curve" smooth="yes"/>
      <point x="30" y="131"/>
      <point x="170" y="-9"/>
      <point x="385" y="-9" type="curve" smooth="yes"/>
      <point x="600" y="-9"/>
      <point x="743" y="134"/>
      <point x="743" y="359" type="curve" smooth="yes"/>
      <point x="743" y="586"/>
      <point x="600" y="727"/>
      <point x="385" y="727" type="curve" smooth="yes"/>
      <point x="204" y="727"/>
      <point x="73" y="611"/>
      <point x="44" y="460" type="curve"/>
      <point x="277" y="460" type="line"/>
      <point x="290" y="503"/>
      <point x="337" y="529"/>
      <point x="389" y="529" type="curve" smooth="yes"/>
      <point x="454" y="529"/>
      <point x="517" y="489"/>
    </contour>
    <contour>
      <point x="385" y="727" type="move" name="top"/>
    </contour>
  </outline>
</glyph>
<glyph name="Scommaaccent" format="1">
  <advance width="685"/>
  <unicode hex="0218"/>
  <outline>
    <contour>
      <point x="419" y="-35" type="curve"/>
      <point x="263" y="-35" type="line"/>
      <point x="263" y="-182" type="line"/>
      <point x="335" y="-182" type="line"/>
      <point x="335" y="-193" type="line" smooth="yes"/>
      <point x="335" y="-245"/>
      <point x="315" y="-268"/>
      <point x="280" y="-268" type="curve"/>
      <point x="280" y="-346" type="line"/>
      <point x="394" y="-346"/>
      <point x="445" y="-266"/>
      <point x="445" y="-170" type="curve" smooth="yes"/>
      <point x="445" y="-128"/>
      <point x="437" y="-82"/>
    </contour>
    <component base="S"/>
    <contour>
      <point x="343" y="0" type="move" name="_bottom"/>
    </contour>
  </outline>
</glyph>
<glyph name="Tcommaaccent" format="1">
  <advance width="616"/>
  <unicode hex="021A"/>
  <outline>
    <contour>
      <point x="385" y="-35" type="curve"/>
      <point x="229" y="-35" type="line"/>
      <point x="229" y="-182" type="line"/>
      <point x="301" y="-182" type="line"/>
      <point x="301" y="-193" type="line" smooth="yes"/>
      <point x="301" y="-245"/>
      <point x="280" y="-268"/>
      <point x="246" y="-268" type="curve"/>
      <point x="246" y="-346" type="line"/>
      <point x="359" y="-346"/>
      <point x="410" y="-266"/>
      <point x="410" y="-170" type="curve" smooth="yes"/>
      <point x="410" y="-128"/>
      <point x="403" y="-82"/>
    </contour>
    <component base="T"/>
  </outline>
</glyph>
<glyph name="tcommaaccent" format="1">
  <advance width="436"/>
  <unicode hex="021B"/>
  <outline>
    <contour>
      <point x="303" y="-35" type="curve"/>
      <point x="147" y="-35" type="line"/>
      <point x="147" y="-182" type="line"/>
      <point x="219" y="-182" type="line"/>
      <point x="219" y="-193" type="line" smooth="yes"/>
      <point x="219" y="-245"/>
      <point x="199" y="-268"/>
      <point x="164" y="-268" type="curve"/>
      <point x="164" y="-346" type="line"/>
      <point x="278" y="-346"/>
      <point x="329" y="-266"/>
      <point x="329" y="-170" type="curve" smooth="yes"/>
      <point x="329" y="-128"/>
      <point x="321" y="-82"/>
    </contour>
  </outline>
</glyph>
<glyph name="circumflex" format="1">
  <advance width="351"/>
  <unicode hex="02C6"/>
  <outline>
    <contour>
      <point x="341" y="603" type="line"/>
      <point x="341" y="777" type="line"/>
      <point x="176" y="852" type="line"/>
      <point x="10" y="777" type="line"/>
      <point x="10" y="603" type="line"/>
      <point x="176" y="681" type="line"/>
    </contour>
    <contour>
      <point x="176" y="564" type="move" name="_top"/>
    </contour>
  </outline>
</glyph>
<glyph name="caron" format="1">
  <advance width="351"/>
  <unicode hex="02C7"/>
  <outline>
    <contour>
      <point x="341" y="821" type="line"/>
      <point x="176" y="733" type="line"/>
      <point x="10" y="821" type="line"/>
      <point x="10" y="677" type="line"/>
      <point x="176" y="602" type="line"/>
      <point x="341" y="677" type="line"/>
    </contour>
    <contour>
      <point x="176" y="564" type="move" name="_top"/>
    </contour>
  </outline>
</glyph>
<glyph name="breve" format="1">
  <advance width="395"/>
  <unicode hex="02D8"/>
  <outline>
    <contour>
      <point x="386" y="665"/>
      <point x="386" y="803" type="curve" smooth="yes"/>
      <point x="386" y="820" type="line"/>
      <point x="283" y="820" type="line"/>
      <point x="283" y="781"/>
      <point x="263" y="758"/>
      <point x="198" y="758" type="curve"/>
      <point x="133" y="758"/>
      <point x="113" y="781"/>
      <point x="113" y="820" type="curve"/>
      <point x="10" y="820" type="line"/>
      <point x="10" y="803" type="line" smooth="yes"/>
      <point x="10" y="665"/>
      <point x="93" y="600"/>
      <point x="198" y="600" type="curve"/>
      <point x="303" y="600"/>
    </contour>
    <contour>
      <point x="198" y="564" type="move" name="_top"/>
    </contour>
  </outline>
</glyph>
<glyph name="dotaccent" format="1">
  <advance width="192"/>
  <unicode hex="02D9"/>
  <outline>
    <contour>
      <point x="47" y="620"/>
      <point x="95" y="620" type="curve" smooth="yes"/>
      <point x="145" y="620"/>
      <point x="182" y="657"/>
      <point x="182" y="705" type="curve" smooth="yes"/>
      <point x="182" y="755"/>
      <point x="145" y="792"/>
      <point x="95" y="792" type="curve" smooth="yes"/>
      <point x="47" y="792"/>
      <point x="10" y="755"/>
      <point x="10" y="705" type="curve" smooth="yes"/>
      <point x="10" y="657"/>
    </contour>
    <contour>
      <point x="97" y="564" type="move" name="_top"/>
    </contour>
  </outline>
</glyph>
<glyph name="ring" format="1">
  <advance width="283"/>
  <unicode hex="02DA"/>
  <outline>
    <contour>
      <point x="274" y="725" type="curve" smooth="yes"/>
      <point x="274" y="807"/>
      <point x="215" y="857"/>
      <point x="142" y="857" type="curve" smooth="yes"/>
      <point x="69" y="857"/>
      <point x="10" y="807"/>
      <point x="10" y="725" type="curve" smooth="yes"/>
      <point x="10" y="643"/>
      <point x="69" y="593"/>
      <point x="142" y="593" type="curve" smooth="yes"/>
      <point x="215" y="593"/>
      <point x="274" y="643"/>
    </contour>
    <contour>
      <point x="188" y="725" type="curve" smooth="yes"/>
      <point x="188" y="696.604"/>
      <point x="168" y="678"/>
      <point x="142" y="678" type="curve" smooth="yes"/>
      <point x="116" y="678"/>
      <point x="96" y="696.604"/>
      <point x="96" y="725" type="curve" smooth="yes"/>
      <point x="96" y="753.609"/>
      <point x="116" y="772"/>
      <point x="142" y="772" type="curve" smooth="yes"/>
      <point x="168" y="772"/>
      <point x="188" y="753.609"/>
    </contour>
    <contour>
      <point x="142" y="564" type="move" name="_top"/>
    </contour>
  </outline>
</glyph>
<glyph name="hungarumlaut" format="1">
  <advance width="513"/>
  <unicode hex="02DD"/>
  <outline>
    <contour>
      <point x="258" y="845" type="line"/>
      <point x="90" y="845" type="line"/>
      <point x="10" y="601" type="line"/>
      <point x="143" y="601" type="line"/>
    </contour>
    <contour>
      <point x="504" y="845" type="line"/>
      <point x="336" y="845" type="line"/>
      <point x="233" y="601" type="line"/>
      <point x="366" y="601" type="line"/>
    </contour>
    <contour>
      <point x="202" y="564" type="move" name="_top"/>
    </contour>
  </outline>
</glyph>
<glyph name="pi" format="1">
  <advance width="708"/>
  <unicode hex="03C0"/>
  <outline>
    <contour>
      <point x="10" y="564" type="line"/>
      <point x="10" y="398" type="line"/>
      <point x="75" y="398" type="line"/>
      <point x="75" y="0" type="line"/>
      <point x="297" y="0" type="line"/>
      <point x="297" y="398" type="line"/>
      <point x="416" y="398" type="line"/>
      <point x="416" y="0" type="line"/>
      <point x="638" y="0" type="line"/>
      <point x="638" y="398" type="line"/>
      <point x="703" y="398" type="line"/>
      <point x="703" y="564" type="line"/>
    </contour>
  </outline>
</glyph>
<glyph name="endash" format="1">
  <advance width="633"/>
  <unicode hex="2013"/>
  <outline>
    <contour>
      <point x="30" y="396" type="line"/>
      <point x="30" y="213" type="line"/>
      <point x="603" y="213" type="line"/>
      <point x="603" y="396" type="line"/>
    </contour>
  </outline>
</glyph>
<glyph name="daggerdbl" format="1">
  <advance width="716"/>
  <unicode hex="2021"/>
  <outline>
    <contour>
      <point x="666" y="398" type="line"/>
      <point x="666" y="564" type="line"/>
      <point x="447" y="549" type="line"/>
      <point x="468" y="794" type="line"/>
      <point x="246" y="794" type="line"/>
      <point x="268" y="549" type="line"/>
      <point x="50" y="564" type="line"/>
      <point x="50" y="398" type="line"/>
      <point x="268" y="413" type="line"/>
      <point x="268" y="111" type="line"/>
      <point x="50" y="127" type="line"/>
      <point x="50" y="-40" type="line"/>
      <point x="268" y="-25" type="line"/>
      <point x="246" y="-270" type="line"/>
      <point x="468" y="-270" type="line"/>
      <point x="447" y="-25" type="line"/>
      <point x="666" y="-40" type="line"/>
      <point x="666" y="127" type="line"/>
      <point x="447" y="111" type="line"/>
      <point x="447" y="413" type="line"/>
    </contour>
  </outline>
</glyph>
<glyph name="bullet" format="1">
  <advance width="536"/>
  <unicode hex="2022"/>
  <outline>
    <contour>
      <point x="174" y="166"/>
      <point x="268" y="166" type="curve" smooth="yes"/>
      <point x="363" y="166"/>
      <point x="436" y="239"/>
      <point x="436" y="333" type="curve" smooth="yes"/>
      <point x="436" y="428"/>
      <point x="363" y="502"/>
      <point x="268" y="502" type="curve" smooth="yes"/>
      <point x="174" y="502"/>
      <point x="100" y="428"/>
      <point x="100" y="333" type="curve" smooth="yes"/>
      <point x="100" y="239"/>
    </contour>
  </outline>
</glyph>
<glyph name="guilsinglleft" format="1">
  <advance width="377"/>
  <unicode hex="2039"/>
  <outline>
    <contour>
      <point x="337" y="106" type="line"/>
      <point x="254" y="290" type="line"/>
      <point x="337" y="474" type="line"/>
      <point x="126" y="474" type="line"/>
      <point x="45" y="290" type="line"/>
      <point x="126" y="106" type="line"/>
    </contour>
  </outline>
</glyph>
<glyph name="guilsinglright" format="1">
  <advance width="377"/>
  <unicode hex="203A"/>
  <outline>
    <contour>
      <point x="40" y="106" type="line"/>
      <point x="252" y="106" type="line"/>
      <point x="332" y="290" type="line"/>
      <point x="252" y="474" type="line"/>
      <point x="40" y="474" type="line"/>
      <point x="124" y="290" type="line"/>
    </contour>
  </outline>
</glyph>
<glyph name="fraction" format="1">
  <advance width="555"/>
  <unicode hex="2044"/>
  <outline>
    <contour>
      <point x="346" y="711" type="line"/>
      <point x="-27" y="0" type="line"/>
      <point x="185" y="0" type="line"/>
      <point x="558" y="711" type="line"/>
    </contour>
  </outline>
</glyph>
<glyph name="trademark" format="1">
  <advance width="947"/>
  <unicode hex="2122"/>
  <outline>
    <contour>
      <point x="30" y="708" type="line"/>
      <point x="30" y="581" type="line"/>
      <point x="116" y="581" type="line"/>
      <point x="116" y="358" type="line"/>
      <point x="270" y="358" type="line"/>
      <point x="270" y="581" type="line"/>
      <point x="356" y="581" type="line"/>
      <point x="356" y="708" type="line"/>
    </contour>
    <contour>
      <point x="401" y="708" type="line"/>
      <point x="401" y="358" type="line"/>
      <point x="535" y="358" type="line"/>
      <point x="535" y="649" type="line"/>
      <point x="497" y="640" type="line"/>
      <point x="602" y="358" type="line"/>
      <point x="705" y="358" type="line"/>
      <point x="819" y="640" type="line"/>
      <point x="770" y="649" type="line"/>
      <point x="776" y="358" type="line"/>
      <point x="917" y="358" type="line"/>
      <point x="917" y="708" type="line"/>
      <point x="725" y="708" type="line"/>
      <point x="605" y="411" type="line"/>
      <point x="706" y="414" type="line"/>
      <point x="612" y="708" type="line"/>
    </contour>
  </outline>
</glyph>
<glyph name="increment" format="1">
  <advance width="770"/>
  <unicode hex="2206"/>
  <outline>
    <contour>
      <point x="296" y="711" type="line"/>
      <point x="20" y="168" type="line"/>
      <point x="20" y="0" type="line"/>
      <point x="750" y="0" type="line"/>
      <point x="750" y="168" type="line"/>
      <point x="475" y="711" type="line"/>
    </contour>
    <contour>
      <point x="386" y="460" type="line"/>
      <point x="521" y="168" type="line"/>
      <point x="249" y="168" type="line"/>
    </contour>
  </outline>
</glyph>
<glyph name="product" format="1">
  <advance width="753"/>
  <unicode hex="220F"/>
  <outline>
    <contour>
      <point x="10" y="711" type="line"/>
      <point x="10" y="545" type="line"/>
      <point x="75" y="545" type="line"/>
      <point x="75" y="0" type="line"/>
      <point x="297" y="0" type="line"/>
      <point x="297" y="545" type="line"/>
      <point x="456" y="545" type="line"/>
      <point x="456" y="0" type="line"/>
      <point x="678" y="0" type="line"/>
      <point x="678" y="545" type="line"/>
      <point x="743" y="545" type="line"/>
      <point x="743" y="711" type="line"/>
    </contour>
  </outline>
</glyph>
<glyph name="summation" format="1">
  <advance width="586"/>
  <unicode hex="2211"/>
  <outline>
    <contour>
      <point x="40" y="711" type="line"/>
      <point x="40" y="453" type="line"/>
      <point x="258" y="346" type="line"/>
      <point x="40" y="214" type="line"/>
      <point x="40" y="-45" type="line"/>
      <point x="546" y="-45" type="line"/>
      <point x="546" y="123" type="line"/>
      <point x="150" y="123" type="line"/>
      <point x="144" y="50" type="line"/>
      <point x="473" y="268" type="line"/>
      <point x="473" y="435" type="line"/>
      <point x="144" y="616" type="line"/>
      <point x="195" y="544" type="line"/>
      <point x="546" y="544" type="line"/>
      <point x="546" y="711" type="line"/>
    </contour>
  </outline>
</glyph>
<glyph name="minus" format="1">
  <advance width="526"/>
  <unicode hex="2212"/>
  <outline>
    <contour>
      <point x="30" y="396" type="line"/>
      <point x="30" y="213" type="line"/>
      <point x="496" y="213" type="line"/>
      <point x="496" y="396" type="line"/>
    </contour>
  </outline>
</glyph>
<glyph name="integral" format="1">
  <advance width="312"/>
  <unicode hex="222B"/>
  <outline>
    <contour>
      <point x="85" y="746" type="curve" smooth="yes"/>
      <point x="1" y="-98" type="line" smooth="yes"/>
      <point x="-1" y="-110"/>
      <point x="-8" y="-120"/>
      <point x="-22" y="-120" type="curve" smooth="yes"/>
      <point x="-39" y="-120" type="line"/>
      <point x="-57" y="-310" type="line"/>
      <point x="-44" y="-310" type="line" smooth="yes"/>
      <point x="88" y="-310"/>
      <point x="205" y="-268"/>
      <point x="222" y="-98" type="curve" smooth="yes"/>
      <point x="306" y="746" type="line" smooth="yes"/>
      <point x="308" y="758"/>
      <point x="315" y="768"/>
      <point x="328" y="768" type="curve" smooth="yes"/>
      <point x="346" y="768" type="line"/>
      <point x="364" y="958" type="line"/>
      <point x="351" y="958" type="line" smooth="yes"/>
      <point x="219" y="958"/>
      <point x="102" y="916"/>
    </contour>
  </outline>
</glyph>
<glyph name="notequal" format="1">
  <advance width="626"/>
  <unicode hex="2260"/>
  <outline>
    <contour>
      <point x="500" y="680" type="line"/>
      <point x="21" y="-1" type="line"/>
      <point x="128" y="-1" type="line"/>
      <point x="606" y="680" type="line"/>
    </contour>
    <component base="equal"/>
  </outline>
</glyph>
<glyph name="lessequal" format="1">
  <advance width="492"/>
  <unicode hex="2264"/>
  <outline>
    <contour>
      <point x="48" y="111" type="line"/>
      <point x="48" y="-60" type="line"/>
      <point x="472" y="-60" type="line"/>
      <point x="472" y="111" type="line"/>
    </contour>
    <contour>
      <point x="472" y="195" type="line"/>
      <point x="286" y="382" type="line"/>
      <point x="286" y="368" type="line"/>
      <point x="472" y="556" type="line"/>
      <point x="200" y="556" type="line"/>
      <point x="20" y="375" type="line"/>
      <point x="200" y="195" type="line"/>
    </contour>
  </outline>
</glyph>
<glyph name="greaterequal" format="1">
  <advance width="492"/>
  <unicode hex="2265"/>
  <outline>
    <contour>
      <point x="20" y="195" type="line"/>
      <point x="292" y="195" type="line"/>
      <point x="472" y="375" type="line"/>
      <point x="292" y="556" type="line"/>
      <point x="20" y="556" type="line"/>
      <point x="206" y="368" type="line"/>
      <point x="206" y="382" type="line"/>
    </contour>
    <contour>
      <point x="444" y="111" type="line"/>
      <point x="20" y="111" type="line"/>
      <point x="20" y="-60" type="line"/>
      <point x="444" y="-60" type="line"/>
    </contour>
  </outline>
</glyph>
<glyph name="lozenge" format="1">
  <advance width="572"/>
  <unicode hex="25CA"/>
  <outline>
    <contour>
      <point x="287" y="630" type="line"/>
      <point x="10" y="355" type="line"/>
      <point x="287" y="79" type="line"/>
      <point x="562" y="355" type="line"/>
    </contour>
    <contour>
      <point x="287" y="423" type="line"/>
      <point x="355" y="355" type="line"/>
      <point x="287" y="286" type="line"/>
      <point x="218" y="355" type="line"/>
    </contour>
  </outline>
</glyph>
<glyph name="a_o" format="1">
  <advance width="995"/>
  <unicode hex="F1130"/>
  <outline>
    <contour>
      <point x="490" y="123" type="curve" smooth="yes"/>
      <point x="603" y="290" type="line"/>
      <point x="603" y="332" type="line" smooth="yes"/>
      <point x="603" y="476"/>
      <point x="490" y="572"/>
      <point x="329" y="572" type="curve" smooth="yes"/>
      <point x="174" y="572"/>
      <point x="68" y="482"/>
      <point x="37" y="354" type="curve"/>
      <point x="261" y="354" type="line"/>
      <point x="269" y="375"/>
      <point x="289" y="394"/>
      <point x="322" y="394" type="curve" smooth="yes"/>
      <point x="358" y="394"/>
      <point x="381" y="370"/>
      <point x="381" y="323" type="curve"/>
      <point x="284" y="323" type="line" smooth="yes"/>
      <point x="107" y="323"/>
      <point x="30" y="251"/>
      <point x="30" y="151" type="curve" smooth="yes"/>
      <point x="30" y="52"/>
      <point x="103" y="-11"/>
      <point x="223" y="-11" type="curve" smooth="yes"/>
      <point x="310" y="-11"/>
      <point x="414" y="10"/>
    </contour>
    <contour>
      <point x="300" y="143" type="curve" smooth="yes"/>
      <point x="272" y="143"/>
      <point x="254" y="158"/>
      <point x="254" y="186" type="curve" smooth="yes"/>
      <point x="254" y="214"/>
      <point x="277" y="233"/>
      <point x="318" y="233" type="curve" smooth="yes"/>
      <point x="380" y="233" type="line"/>
      <point x="380" y="221" type="line" smooth="yes"/>
      <point x="380" y="180"/>
      <point x="344" y="143"/>
    </contour>
    <component base="o" xOffset="359"/>
  </outline>
</glyph>
<glyph name="c_h_e.ss12" format="1">
  <advance width="1329"/>
  <unicode hex="F1520"/>
  <outline>
    <contour>
      <point x="20" y="462"/>
      <point x="20" y="282" type="curve"/>
      <point x="20" y="102"/>
      <point x="139" y="-7"/>
      <point x="308" y="-7" type="curve" smooth="yes"/>
      <point x="453" y="-7"/>
      <point x="562" y="79"/>
      <point x="589" y="227" type="curve"/>
      <point x="354" y="227" type="line"/>
      <point x="346" y="200"/>
      <point x="331" y="183"/>
      <point x="303" y="183" type="curve" smooth="yes"/>
      <point x="269" y="183"/>
      <point x="245" y="214"/>
      <point x="245" y="282" type="curve" smooth="yes"/>
      <point x="245" y="350"/>
      <point x="269" y="381"/>
      <point x="307" y="381" type="curve" smooth="yes"/>
      <point x="336" y="381"/>
      <point x="361" y="355"/>
      <point x="361" y="311" type="curve" smooth="yes"/>
      <point x="361" y="309" type="line"/>
      <point x="549" y="327" type="line"/>
      <point x="504" y="468"/>
      <point x="433" y="571"/>
      <point x="299" y="571" type="curve" smooth="yes"/>
      <point x="139" y="571"/>
    </contour>
    <contour>
      <point x="361" y="740" type="line"/>
      <point x="361" y="309" type="line"/>
      <point x="583" y="309" type="line"/>
      <point x="583" y="740" type="line"/>
    </contour>
    <contour>
      <point x="741" y="299" type="curve" smooth="yes"/>
      <point x="741" y="0" type="line"/>
      <point x="962" y="0" type="line"/>
      <point x="962" y="327" type="line" smooth="yes"/>
      <point x="962" y="473"/>
      <point x="886" y="568"/>
      <point x="756" y="568" type="curve" smooth="yes"/>
      <point x="656" y="568"/>
      <point x="595" y="511"/>
      <point x="568" y="451" type="curve"/>
      <point x="583" y="308" type="line"/>
      <point x="583" y="353"/>
      <point x="613" y="386"/>
      <point x="662" y="386" type="curve" smooth="yes"/>
      <point x="710" y="386"/>
      <point x="741" y="353"/>
    </contour>
    <component base="bout-e" xOffset="369"/>
    <contour>
      <point x="299" y="0" type="move" name="bottom"/>
    </contour>
    <contour>
      <point x="299" y="564" type="move" name="top"/>
    </contour>
  </outline>
</glyph>
<glyph name="c_q" format="1">
  <advance width="601"/>
  <unicode hex="F1540"/>
  <outline>
    <contour>
      <point x="368" y="227" type="line"/>
      <point x="368" y="-270" type="line"/>
      <point x="589" y="-270" type="line"/>
      <point x="589" y="227" type="line"/>
    </contour>
    <component base="c"/>
  </outline>
</glyph>
<glyph name="c_q_u_e.ss12" format="1">
  <advance width="1314"/>
  <unicode hex="F1560"/>
  <outline>
    <contour>
      <point x="589" y="227" type="curve"/>
      <point x="347" y="192" type="line"/>
      <point x="361" y="72"/>
      <point x="435" y="-4"/>
      <point x="551" y="-4" type="curve" smooth="yes"/>
      <point x="651" y="-4"/>
      <point x="712" y="53"/>
      <point x="739" y="113" type="curve"/>
      <point x="724" y="265" type="line"/>
      <point x="724" y="211"/>
      <point x="694" y="178"/>
      <point x="651" y="178" type="curve" smooth="yes"/>
      <point x="622" y="178"/>
      <point x="603" y="186"/>
    </contour>
    <contour>
      <point x="946" y="0" type="line"/>
      <point x="946" y="564" type="line"/>
      <point x="724" y="564" type="line"/>
      <point x="724" y="0" type="line"/>
    </contour>
    <component base="c_q"/>
    <component base="bout-e" xOffset="354" identifier="DA588A98"/>
  </outline>
</glyph>
<glyph name="d_u_d_e_l_a" format="1">
  <advance width="2434"/>
  <unicode hex="F1730"/>
  <outline>
    <contour>
      <point x="912" y="747" type="curve" smooth="yes"/>
      <point x="912" y="956" type="line"/>
      <point x="690" y="956" type="line"/>
      <point x="690" y="719" type="line" smooth="yes"/>
      <point x="690" y="558"/>
      <point x="833" y="478"/>
      <point x="991" y="478" type="curve" smooth="yes"/>
      <point x="1171" y="478"/>
      <point x="1292" y="573"/>
      <point x="1292" y="719" type="curve" smooth="yes"/>
      <point x="1292" y="956" type="line"/>
      <point x="1070" y="956" type="line"/>
      <point x="1070" y="747" type="line" smooth="yes"/>
      <point x="1070" y="693"/>
      <point x="1039" y="660"/>
      <point x="991" y="660" type="curve" smooth="yes"/>
      <point x="943" y="660"/>
      <point x="912" y="693"/>
    </contour>
    <contour>
      <point x="408" y="956" type="line"/>
      <point x="408" y="593" type="line"/>
      <point x="630" y="593" type="line"/>
      <point x="630" y="956" type="line"/>
    </contour>
    <component base="d"/>
    <component base="e" xOffset="683"/>
    <component base="l" xOffset="1464" identifier="6259A406"/>
    <component base="a" xOffset="1786" identifier="6711521C"/>
  </outline>
</glyph>
<glyph name="Eacute_E" format="1">
  <advance width="1036"/>
  <unicode hex="F1820"/>
  <outline>
    <contour>
      <point x="430" y="708" type="line"/>
      <point x="430" y="531" type="line"/>
      <point x="576" y="531" type="line"/>
      <point x="576" y="708" type="line"/>
    </contour>
    <contour>
      <point x="430" y="177" type="line"/>
      <point x="430" y="0" type="line"/>
      <point x="576" y="0" type="line"/>
      <point x="576" y="177" type="line"/>
    </contour>
    <contour>
      <point x="430" y="444" type="line"/>
      <point x="430" y="277" type="line"/>
      <point x="576" y="277" type="line"/>
      <point x="576" y="444" type="line"/>
    </contour>
    <component base="Eacute"/>
    <component base="E" xOffset="481" identifier="DCAC5CF9"/>
  </outline>
</glyph>
<glyph name="e_a" format="1">
  <advance width="981"/>
  <unicode hex="F1910"/>
  <outline>
    <contour>
      <point x="463" y="235" type="line"/>
      <point x="713" y="235" type="line"/>
      <point x="713" y="221" type="line" smooth="yes"/>
      <point x="713" y="180"/>
      <point x="677" y="143"/>
      <point x="635" y="143" type="curve" smooth="yes"/>
      <point x="606" y="143"/>
      <point x="585" y="160"/>
      <point x="584" y="196" type="curve"/>
      <point x="363" y="151" type="line"/>
      <point x="363" y="46"/>
      <point x="443" y="-11"/>
      <point x="540" y="-11" type="curve" smooth="yes"/>
      <point x="612" y="-11"/>
      <point x="688" y="20"/>
      <point x="715" y="76" type="curve"/>
      <point x="715" y="0" type="line"/>
      <point x="936" y="0" type="line"/>
      <point x="936" y="332" type="line" smooth="yes"/>
      <point x="936" y="476"/>
      <point x="846" y="572"/>
      <point x="691" y="572" type="curve" smooth="yes"/>
      <point x="529" y="572"/>
      <point x="441" y="469"/>
      <point x="411" y="334" type="curve"/>
      <point x="594" y="322" type="line"/>
      <point x="592" y="375"/>
      <point x="622" y="394"/>
      <point x="655" y="394" type="curve" smooth="yes"/>
      <point x="691" y="394"/>
      <point x="714" y="370"/>
      <point x="714" y="332" type="curve"/>
      <point x="463" y="332" type="line"/>
    </contour>
    <contour>
      <point x="216" y="332" type="line"/>
      <point x="216" y="235" type="line"/>
      <point x="593" y="235" type="line"/>
      <point x="595" y="254"/>
      <point x="596" y="273"/>
      <point x="596" y="287" type="curve" smooth="yes"/>
      <point x="596" y="464"/>
      <point x="477" y="571"/>
      <point x="308" y="571" type="curve" smooth="yes"/>
      <point x="139" y="571"/>
      <point x="20" y="462"/>
      <point x="20" y="282" type="curve" smooth="yes"/>
      <point x="20" y="102"/>
      <point x="139" y="-7"/>
      <point x="308" y="-7" type="curve" smooth="yes"/>
      <point x="450" y="-7"/>
      <point x="560" y="83"/>
      <point x="584" y="196" type="curve"/>
      <point x="349" y="196" type="line"/>
      <point x="341" y="186"/>
      <point x="326" y="170"/>
      <point x="297" y="170" type="curve" smooth="yes"/>
      <point x="264" y="170"/>
      <point x="236" y="189"/>
      <point x="236" y="258" type="curve" smooth="yes"/>
      <point x="236" y="311" type="line" smooth="yes"/>
      <point x="236" y="370"/>
      <point x="263" y="397"/>
      <point x="308" y="397" type="curve"/>
      <point x="341" y="397"/>
      <point x="371" y="379"/>
      <point x="371" y="332" type="curve"/>
    </contour>
  </outline>
</glyph>
<glyph name="e_s" format="1">
  <advance width="1003"/>
  <unicode hex="F1950"/>
  <outline>
    <contour>
      <point x="513" y="288" type="line"/>
      <point x="513" y="243" type="line"/>
      <point x="619" y="243" type="line"/>
      <point x="619" y="288" type="line"/>
    </contour>
    <contour>
      <point x="216" y="340" type="line"/>
      <point x="216" y="243" type="line"/>
      <point x="593" y="243" type="line"/>
      <point x="595" y="257"/>
      <point x="596" y="273"/>
      <point x="596" y="287" type="curve" smooth="yes"/>
      <point x="596" y="464"/>
      <point x="477" y="571"/>
      <point x="308" y="571" type="curve"/>
      <point x="139" y="571"/>
      <point x="20" y="462"/>
      <point x="20" y="282" type="curve" smooth="yes"/>
      <point x="20" y="102"/>
      <point x="139" y="-7"/>
      <point x="308" y="-7" type="curve" smooth="yes"/>
      <point x="450" y="-7"/>
      <point x="560" y="83"/>
      <point x="584" y="195" type="curve"/>
      <point x="349" y="195" type="line"/>
      <point x="341" y="186"/>
      <point x="326" y="170"/>
      <point x="297" y="170" type="curve" smooth="yes"/>
      <point x="264" y="170"/>
      <point x="236" y="189"/>
      <point x="236" y="258" type="curve" smooth="yes"/>
      <point x="236" y="311" type="line" smooth="yes"/>
      <point x="236" y="370"/>
      <point x="263" y="397"/>
      <point x="308" y="397" type="curve"/>
      <point x="341" y="397"/>
      <point x="371" y="379"/>
      <point x="371" y="340" type="curve"/>
    </contour>
    <component base="s" xOffset="426" identifier="2BAEFDC7"/>
  </outline>
</glyph>
<glyph name="e_t_t" format="1">
  <advance width="1197"/>
  <unicode hex="F1970"/>
  <outline>
    <contour>
      <point x="410" y="243" type="line"/>
      <point x="632" y="243" type="line"/>
      <point x="632" y="775" type="line"/>
      <point x="410" y="636" type="line"/>
    </contour>
    <contour>
      <point x="440" y="379" type="line"/>
      <point x="874" y="379" type="line"/>
      <point x="874" y="564" type="line"/>
      <point x="440" y="564" type="line"/>
    </contour>
    <contour>
      <point x="635" y="203" type="curve"/>
      <point x="411" y="203" type="line"/>
      <point x="419" y="51"/>
      <point x="516" y="0"/>
      <point x="642" y="0" type="curve" smooth="yes"/>
      <point x="726" y="0" type="line"/>
      <point x="726" y="189" type="line"/>
      <point x="676" y="189" type="line" smooth="yes"/>
      <point x="657" y="189"/>
      <point x="644" y="195"/>
    </contour>
    <component base="t" xOffset="761"/>
    <component base="e"/>
  </outline>
</glyph>
<glyph name="e_t_t_e.ss12" format="1">
  <advance width="1435"/>
  <unicode hex="F1980"/>
  <outline>
    <contour>
      <point x="410" y="243" type="line"/>
      <point x="632" y="243" type="line"/>
      <point x="632" y="775" type="line"/>
      <point x="410" y="636" type="line"/>
    </contour>
    <contour>
      <point x="440" y="379" type="line"/>
      <point x="874" y="379" type="line"/>
      <point x="874" y="564" type="line"/>
      <point x="440" y="564" type="line"/>
    </contour>
    <contour>
      <point x="846" y="636" type="line"/>
      <point x="846" y="231" type="line" smooth="yes"/>
      <point x="846" y="56"/>
      <point x="946" y="0"/>
      <point x="1078" y="0" type="curve" smooth="yes"/>
      <point x="1162" y="0" type="line"/>
      <point x="1162" y="189" type="line"/>
      <point x="1109" y="189" type="line" smooth="yes"/>
      <point x="1080" y="189"/>
      <point x="1068" y="201"/>
      <point x="1068" y="227" type="curve" smooth="yes"/>
      <point x="1068" y="775" type="line"/>
    </contour>
    <contour>
      <point x="635" y="203" type="curve"/>
      <point x="411" y="203" type="line"/>
      <point x="419" y="51"/>
      <point x="516" y="0"/>
      <point x="642" y="0" type="curve" smooth="yes"/>
      <point x="726" y="0" type="line"/>
      <point x="726" y="189" type="line"/>
      <point x="676" y="189" type="line" smooth="yes"/>
      <point x="657" y="189"/>
      <point x="644" y="195"/>
    </contour>
    <component base="e"/>
    <component base="bout-e" xOffset="475"/>
  </outline>
</glyph>
<glyph name="e_u" format="1">
  <advance width="992"/>
  <unicode hex="F19A0"/>
  <outline>
    <contour>
      <point x="942" y="0" type="line"/>
      <point x="942" y="564" type="line"/>
      <point x="720" y="564" type="line"/>
      <point x="720" y="0" type="line"/>
    </contour>
    <contour>
      <point x="584" y="203" type="curve"/>
      <point x="343" y="192" type="line"/>
      <point x="357" y="72"/>
      <point x="431" y="-4"/>
      <point x="547" y="-4" type="curve" smooth="yes"/>
      <point x="647" y="-4"/>
      <point x="708" y="53"/>
      <point x="735" y="113" type="curve"/>
      <point x="720" y="265" type="line"/>
      <point x="720" y="211"/>
      <point x="690" y="178"/>
      <point x="641" y="178" type="curve" smooth="yes"/>
      <point x="618" y="178"/>
      <point x="599" y="186"/>
    </contour>
    <component base="e"/>
  </outline>
</glyph>
<glyph name="e_s_s_e.ss12" format="1">
  <advance width="1994"/>
  <unicode hex="F19C0"/>
  <outline>
    <contour>
      <point x="513" y="288" type="line"/>
      <point x="513" y="243" type="line"/>
      <point x="619" y="243" type="line"/>
      <point x="619" y="288" type="line"/>
    </contour>
    <contour>
      <point x="216" y="340" type="line"/>
      <point x="216" y="243" type="line"/>
      <point x="593" y="243" type="line"/>
      <point x="595" y="257"/>
      <point x="596" y="273"/>
      <point x="596" y="287" type="curve" smooth="yes"/>
      <point x="596" y="464"/>
      <point x="477" y="571"/>
      <point x="308" y="571" type="curve"/>
      <point x="139" y="571"/>
      <point x="20" y="462"/>
      <point x="20" y="282" type="curve" smooth="yes"/>
      <point x="20" y="102"/>
      <point x="139" y="-7"/>
      <point x="308" y="-7" type="curve" smooth="yes"/>
      <point x="450" y="-7"/>
      <point x="560" y="83"/>
      <point x="584" y="195" type="curve"/>
      <point x="349" y="195" type="line"/>
      <point x="341" y="186"/>
      <point x="326" y="170"/>
      <point x="297" y="170" type="curve" smooth="yes"/>
      <point x="264" y="170"/>
      <point x="236" y="189"/>
      <point x="236" y="258" type="curve" smooth="yes"/>
      <point x="236" y="311" type="line" smooth="yes"/>
      <point x="236" y="370"/>
      <point x="263" y="397"/>
      <point x="308" y="397" type="curve"/>
      <point x="341" y="397"/>
      <point x="371" y="379"/>
      <point x="371" y="340" type="curve"/>
    </contour>
    <component base="s_s_e" xOffset="426"/>
  </outline>
</glyph>
<glyph name="f_f_e" format="1">
  <advance width="1055"/>
  <unicode hex="F2130"/>
  <outline>
    <contour>
      <point x="70" y="559" type="curve" smooth="yes"/>
      <point x="70" y="0" type="line"/>
      <point x="292" y="0" type="line"/>
      <point x="292" y="539" type="line" smooth="yes"/>
      <point x="292" y="595"/>
      <point x="314" y="611"/>
      <point x="375" y="604" type="curve"/>
      <point x="375" y="793" type="line"/>
      <point x="182" y="810"/>
      <point x="70" y="722"/>
    </contour>
    <contour>
      <point x="10" y="564" type="line"/>
      <point x="10" y="379" type="line"/>
      <point x="605" y="379" type="line"/>
      <point x="605" y="564" type="line"/>
    </contour>
    <contour>
      <point x="455" y="559" type="curve" smooth="yes"/>
      <point x="455" y="0" type="line"/>
      <point x="677" y="0" type="line"/>
      <point x="677" y="539" type="line" smooth="yes"/>
      <point x="677" y="595"/>
      <point x="699" y="611"/>
      <point x="760" y="604" type="curve"/>
      <point x="760" y="793" type="line"/>
      <point x="567" y="810"/>
      <point x="455" y="722"/>
    </contour>
    <component base="bout-e" xOffset="85"/>
  </outline>
</glyph>
<glyph name="f_v" format="1">
  <advance width="672"/>
  <unicode hex="F2150"/>
  <outline>
    <contour>
      <point x="70" y="559" type="curve" smooth="yes"/>
      <point x="70" y="0" type="line"/>
      <point x="292" y="0" type="line"/>
      <point x="292" y="539" type="line" smooth="yes"/>
      <point x="292" y="595"/>
      <point x="314" y="611"/>
      <point x="375" y="604" type="curve"/>
      <point x="375" y="793" type="line"/>
      <point x="182" y="810"/>
      <point x="70" y="722"/>
    </contour>
    <contour>
      <point x="491" y="564" type="line"/>
      <point x="240" y="0" type="line"/>
      <point x="429" y="0" type="line"/>
      <point x="727" y="564" type="line"/>
    </contour>
    <contour>
      <point x="10" y="564" type="line"/>
      <point x="10" y="379" type="line"/>
      <point x="255" y="379" type="line"/>
      <point x="255" y="564" type="line"/>
    </contour>
  </outline>
</glyph>
<glyph name="f_v_e.ss12" format="1">
  <advance width="993"/>
  <unicode hex="F2160"/>
  <outline>
    <contour>
      <point x="70" y="559" type="curve" smooth="yes"/>
      <point x="70" y="0" type="line"/>
      <point x="292" y="0" type="line"/>
      <point x="292" y="539" type="line" smooth="yes"/>
      <point x="292" y="595"/>
      <point x="314" y="611"/>
      <point x="375" y="604" type="curve"/>
      <point x="375" y="793" type="line"/>
      <point x="182" y="810"/>
      <point x="70" y="722"/>
    </contour>
    <contour>
      <point x="439" y="427" type="line"/>
      <point x="240" y="0" type="line"/>
      <point x="429" y="0" type="line"/>
      <point x="727" y="564" type="line"/>
    </contour>
    <contour>
      <point x="10" y="564" type="line"/>
      <point x="10" y="379" type="line"/>
      <point x="255" y="379" type="line"/>
      <point x="255" y="564" type="line"/>
    </contour>
    <component base="bout-e" xOffset="33"/>
  </outline>
</glyph>
<glyph name="h_o_f" format="1">
  <advance width="1104"/>
  <unicode hex="F2510"/>
  <outline>
    <contour>
      <point x="50" y="740" type="line"/>
      <point x="50" y="0" type="line"/>
      <point x="272" y="0" type="line"/>
      <point x="272" y="740" type="line"/>
    </contour>
    <contour>
      <point x="430" y="299" type="curve" smooth="yes"/>
      <point x="430" y="277" type="line"/>
      <point x="651" y="277" type="line"/>
      <point x="651" y="327" type="line" smooth="yes"/>
      <point x="651" y="473"/>
      <point x="575" y="568"/>
      <point x="445" y="568" type="curve" smooth="yes"/>
      <point x="345" y="568"/>
      <point x="284" y="511"/>
      <point x="257" y="451" type="curve"/>
      <point x="272" y="299" type="line"/>
      <point x="272" y="353"/>
      <point x="302" y="386"/>
      <point x="351" y="386" type="curve" smooth="yes"/>
      <point x="399" y="386"/>
      <point x="430" y="353"/>
    </contour>
    <contour>
      <point x="804" y="559" type="curve" smooth="yes"/>
      <point x="804" y="277" type="line"/>
      <point x="1026" y="277" type="line"/>
      <point x="1026" y="539" type="line" smooth="yes"/>
      <point x="1026" y="595"/>
      <point x="1048" y="611"/>
      <point x="1109" y="604" type="curve"/>
      <point x="1109" y="793" type="line"/>
      <point x="916" y="810"/>
      <point x="804" y="722"/>
    </contour>
    <contour>
      <point x="844" y="564" type="line"/>
      <point x="844" y="379" type="line"/>
      <point x="1109" y="379" type="line"/>
      <point x="1109" y="564" type="line"/>
    </contour>
    <component base="o" xOffset="410"/>
  </outline>
</glyph>
<glyph name="I_E" format="1">
  <advance width="674"/>
  <unicode hex="F2610"/>
  <outline>
    <contour>
      <point x="34" y="708" type="line"/>
      <point x="34" y="532" type="line"/>
      <point x="358" y="532" type="line"/>
      <point x="358" y="708" type="line"/>
    </contour>
    <contour>
      <point x="34" y="176" type="line"/>
      <point x="34" y="0" type="line"/>
      <point x="358" y="0" type="line"/>
      <point x="358" y="176" type="line"/>
    </contour>
    <component base="E" xOffset="119"/>
  </outline>
</glyph>
<glyph name="l_l" format="1">
  <advance width="644"/>
  <unicode hex="F3320"/>
  <outline>
    <contour>
      <point x="50" y="47" type="line"/>
      <point x="50" y="0" type="line" smooth="yes"/>
      <point x="50" y="-112"/>
      <point x="138" y="-244"/>
      <point x="322" y="-244" type="curve" smooth="yes"/>
      <point x="506" y="-244"/>
      <point x="594" y="-112"/>
      <point x="594" y="0" type="curve" smooth="yes"/>
      <point x="594" y="47" type="line"/>
      <point x="372" y="47" type="line"/>
      <point x="372" y="0" type="line" smooth="yes"/>
      <point x="372" y="-42"/>
      <point x="357" y="-70"/>
      <point x="322" y="-70" type="curve" smooth="yes"/>
      <point x="287" y="-70"/>
      <point x="272" y="-42"/>
      <point x="272" y="0" type="curve" smooth="yes"/>
      <point x="272" y="47" type="line"/>
    </contour>
    <component base="l"/>
    <component base="l" xOffset="322"/>
  </outline>
</glyph>
<glyph name="l_u" format="1">
  <advance width="703"/>
  <unicode hex="F3350"/>
  <outline>
    <contour>
      <point x="50" y="646" type="line"/>
      <point x="50" y="300" type="line"/>
      <point x="272" y="300" type="line"/>
      <point x="272" y="785" type="line"/>
    </contour>
    <component base="u" xOffset="5"/>
  </outline>
</glyph>
<glyph name="n_n" format="1">
  <advance width="1034"/>
  <unicode hex="F3740"/>
  <outline>
    <contour>
      <point x="767" y="459" type="curve" smooth="yes"/>
      <point x="767" y="160" type="line"/>
      <point x="988" y="160" type="line"/>
      <point x="988" y="487" type="line" smooth="yes"/>
      <point x="988" y="633"/>
      <point x="902" y="728"/>
      <point x="772" y="728" type="curve" smooth="yes"/>
      <point x="672" y="728"/>
      <point x="572" y="680"/>
      <point x="520" y="524" type="curve"/>
      <point x="612" y="459" type="line"/>
      <point x="612" y="513"/>
      <point x="641" y="546"/>
      <point x="688" y="546" type="curve" smooth="yes"/>
      <point x="736" y="546"/>
      <point x="767" y="513"/>
    </contour>
    <component base="n"/>
  </outline>
</glyph>
<glyph name="o_t" format="1">
  <advance width="1055"/>
  <unicode hex="F3940"/>
  <outline>
    <contour>
      <point x="721" y="636" type="line"/>
      <point x="721" y="249" type="line"/>
      <point x="943" y="249" type="line"/>
      <point x="943" y="775" type="line"/>
    </contour>
    <contour>
      <point x="651" y="379" type="line"/>
      <point x="1035" y="379" type="line"/>
      <point x="1035" y="564" type="line"/>
      <point x="651" y="564" type="line"/>
    </contour>
    <contour>
      <point x="616" y="283" type="line"/>
      <point x="394" y="236" type="line"/>
      <point x="394" y="124"/>
      <point x="485" y="-8"/>
      <point x="669" y="-8" type="curve" smooth="yes"/>
      <point x="853" y="-8"/>
      <point x="943" y="124"/>
      <point x="943" y="236" type="curve" smooth="yes"/>
      <point x="943" y="283" type="line"/>
      <point x="721" y="283" type="line"/>
      <point x="721" y="236" type="line" smooth="yes"/>
      <point x="721" y="194"/>
      <point x="704" y="166"/>
      <point x="669" y="166" type="curve" smooth="yes"/>
      <point x="634" y="166"/>
      <point x="616" y="194"/>
      <point x="616" y="236" type="curve" smooth="yes"/>
    </contour>
    <component base="o"/>
  </outline>
</glyph>
<glyph name="o_idieresis" format="1">
  <advance width="1003"/>
  <unicode hex="F3970"/>
  <outline>
    <contour>
      <point x="716" y="564" type="line"/>
      <point x="716" y="240" type="line"/>
      <point x="938" y="240" type="line"/>
      <point x="938" y="564" type="line"/>
    </contour>
    <contour>
      <point x="616" y="283" type="line"/>
      <point x="394" y="236" type="line"/>
      <point x="394" y="124"/>
      <point x="482" y="-8"/>
      <point x="666" y="-8" type="curve" smooth="yes"/>
      <point x="850" y="-8"/>
      <point x="938" y="124"/>
      <point x="938" y="236" type="curve" smooth="yes"/>
      <point x="938" y="283" type="line"/>
      <point x="716" y="283" type="line"/>
      <point x="716" y="236" type="line" smooth="yes"/>
      <point x="716" y="194"/>
      <point x="701" y="166"/>
      <point x="666" y="166" type="curve" smooth="yes"/>
      <point x="631" y="166"/>
      <point x="616" y="194"/>
      <point x="616" y="236" type="curve" smooth="yes"/>
    </contour>
    <component base="o"/>
    <component base="dieresis" xOffset="619"/>
  </outline>
</glyph>
<glyph name="o_idieresis_n_e.ss12" format="1">
  <advance width="1684"/>
  <unicode hex="F3980"/>
  <outline>
    <contour>
      <point x="1096" y="299" type="curve" smooth="yes"/>
      <point x="1096" y="0" type="line"/>
      <point x="1317" y="0" type="line"/>
      <point x="1317" y="327" type="line" smooth="yes"/>
      <point x="1317" y="473"/>
      <point x="1241" y="568"/>
      <point x="1111" y="568" type="curve" smooth="yes"/>
      <point x="1011" y="568"/>
      <point x="950" y="511"/>
      <point x="923" y="451" type="curve"/>
      <point x="938" y="299" type="line"/>
      <point x="938" y="353"/>
      <point x="968" y="386"/>
      <point x="1017" y="386" type="curve" smooth="yes"/>
      <point x="1065" y="386"/>
      <point x="1096" y="353"/>
    </contour>
    <component base="bout-e" xOffset="724"/>
    <component base="o_idieresis"/>
  </outline>
</glyph>
<glyph name="p_m" format="1">
  <advance width="1435"/>
  <unicode hex="F4110"/>
  <outline>
    <contour>
      <point x="789" y="299" type="curve" smooth="yes"/>
      <point x="789" y="0" type="line"/>
      <point x="1010" y="0" type="line"/>
      <point x="1010" y="327" type="line" smooth="yes"/>
      <point x="1010" y="473"/>
      <point x="925" y="568"/>
      <point x="794" y="568" type="curve" smooth="yes"/>
      <point x="699" y="568"/>
      <point x="641" y="516"/>
      <point x="616" y="461" type="curve"/>
      <point x="631" y="299" type="line"/>
      <point x="631" y="347"/>
      <point x="661" y="376"/>
      <point x="710" y="376" type="curve" smooth="yes"/>
      <point x="758" y="376"/>
      <point x="789" y="347"/>
    </contour>
    <contour>
      <point x="1168" y="299" type="curve" smooth="yes"/>
      <point x="1168" y="0" type="line"/>
      <point x="1389" y="0" type="line"/>
      <point x="1389" y="327" type="line" smooth="yes"/>
      <point x="1389" y="473"/>
      <point x="1308" y="568"/>
      <point x="1162" y="568" type="curve" smooth="yes"/>
      <point x="1060" y="568"/>
      <point x="986" y="497"/>
      <point x="954" y="427" type="curve"/>
      <point x="1010" y="299" type="line"/>
      <point x="1010" y="347"/>
      <point x="1040" y="376"/>
      <point x="1089" y="376" type="curve" smooth="yes"/>
      <point x="1137" y="376"/>
      <point x="1168" y="347"/>
    </contour>
    <component base="p"/>
  </outline>
</glyph>
<glyph name="r_e" format="1">
  <advance width="980"/>
  <unicode hex="F4510"/>
  <outline>
    <contour>
      <point x="217" y="291" type="curve"/>
      <point x="272" y="231" type="line"/>
      <point x="272" y="308"/>
      <point x="314" y="331"/>
      <point x="394" y="331" type="curve" smooth="yes"/>
      <point x="539" y="331" type="line"/>
      <point x="629" y="559" type="line"/>
      <point x="457" y="559" type="line" smooth="yes"/>
      <point x="327" y="559"/>
      <point x="217" y="428"/>
    </contour>
    <contour>
      <point x="50" y="564" type="line"/>
      <point x="50" y="0" type="line"/>
      <point x="272" y="0" type="line"/>
      <point x="272" y="564" type="line"/>
    </contour>
    <component base="bout-e" xOffset="20"/>
  </outline>
</glyph>
<glyph name="r_e.ss10" format="1">
  <advance width="959"/>
  <unicode hex="F4511"/>
  <outline>
    <contour>
      <point x="217" y="291" type="curve"/>
      <point x="272" y="231" type="line"/>
      <point x="272" y="367"/>
      <point x="402" y="621"/>
      <point x="676" y="621" type="curve" smooth="yes"/>
      <point x="717" y="621" type="line"/>
      <point x="717" y="821" type="line"/>
      <point x="677" y="821" type="line" smooth="yes"/>
      <point x="396" y="821"/>
      <point x="217" y="416"/>
    </contour>
    <contour>
      <point x="50" y="564" type="line"/>
      <point x="50" y="0" type="line"/>
      <point x="272" y="0" type="line"/>
      <point x="272" y="564" type="line"/>
    </contour>
    <component base="bout-e" xOffset="-1" yOffset="-32" identifier="431540EC"/>
  </outline>
</glyph>
<glyph name="r_i" format="1">
  <advance width="720"/>
  <unicode hex="F4570"/>
  <outline>
    <contour>
      <point x="217" y="291" type="curve"/>
      <point x="272" y="231" type="line"/>
      <point x="272" y="308"/>
      <point x="314" y="331"/>
      <point x="394" y="331" type="curve" smooth="yes"/>
      <point x="669" y="331" type="line"/>
      <point x="669" y="559" type="line"/>
      <point x="457" y="559" type="line" smooth="yes"/>
      <point x="327" y="559"/>
      <point x="217" y="428"/>
    </contour>
    <contour>
      <point x="50" y="564" type="line"/>
      <point x="50" y="0" type="line"/>
      <point x="272" y="0" type="line"/>
      <point x="272" y="564" type="line"/>
    </contour>
    <contour>
      <point x="447" y="281" type="line"/>
      <point x="447" y="0" type="line"/>
      <point x="669" y="0" type="line"/>
      <point x="669" y="281" type="line"/>
    </contour>
    <contour>
      <point x="431" y="718" type="curve" smooth="yes"/>
      <point x="431" y="657"/>
      <point x="480" y="609"/>
      <point x="559" y="609" type="curve" smooth="yes"/>
      <point x="637" y="609"/>
      <point x="686" y="657"/>
      <point x="686" y="718" type="curve" smooth="yes"/>
      <point x="686" y="780"/>
      <point x="637" y="829"/>
      <point x="559" y="829" type="curve" smooth="yes"/>
      <point x="480" y="829"/>
      <point x="431" y="780"/>
    </contour>
  </outline>
</glyph>
<glyph name="r_i.ss10" format="1">
  <advance width="785"/>
  <unicode hex="F4571"/>
  <outline>
    <contour>
      <point x="217" y="291" type="curve"/>
      <point x="272" y="231" type="line"/>
      <point x="272" y="308"/>
      <point x="402" y="611"/>
      <point x="593" y="611" type="curve" smooth="yes"/>
      <point x="737" y="611" type="line"/>
      <point x="737" y="821" type="line"/>
      <point x="667" y="821" type="line" smooth="yes"/>
      <point x="396" y="821"/>
      <point x="217" y="416"/>
    </contour>
    <contour>
      <point x="50" y="564" type="line"/>
      <point x="50" y="0" type="line"/>
      <point x="272" y="0" type="line"/>
      <point x="272" y="564" type="line"/>
    </contour>
    <contour>
      <point x="517" y="564" type="line"/>
      <point x="517" y="0" type="line"/>
      <point x="739" y="0" type="line"/>
      <point x="739" y="564" type="line"/>
    </contour>
  </outline>
</glyph>
<glyph name="r_s" format="1">
  <advance width="921"/>
  <unicode hex="F45C0"/>
  <outline>
    <contour>
      <point x="217" y="291" type="curve"/>
      <point x="272" y="231" type="line"/>
      <point x="272" y="308"/>
      <point x="314" y="331"/>
      <point x="394" y="331" type="curve" smooth="yes"/>
      <point x="539" y="331" type="line"/>
      <point x="629" y="559" type="line"/>
      <point x="457" y="559" type="line" smooth="yes"/>
      <point x="327" y="559"/>
      <point x="217" y="428"/>
    </contour>
    <contour>
      <point x="50" y="564" type="line"/>
      <point x="50" y="0" type="line"/>
      <point x="272" y="0" type="line"/>
      <point x="272" y="564" type="line"/>
    </contour>
    <component base="s" xOffset="344"/>
  </outline>
</glyph>
<glyph name="r_s.ss10" format="1">
  <advance width="541"/>
  <unicode hex="F45C1"/>
  <outline>
    <contour>
      <point x="276" y="-162" type="curve" smooth="yes"/>
      <point x="420" y="-162"/>
      <point x="519" y="-92"/>
      <point x="519" y="30" type="curve" smooth="yes"/>
      <point x="519" y="224"/>
      <point x="271" y="185"/>
      <point x="271" y="277" type="curve" smooth="yes"/>
      <point x="271" y="325"/>
      <point x="339" y="331"/>
      <point x="393" y="331" type="curve" smooth="yes"/>
      <point x="499" y="331" type="line"/>
      <point x="499" y="568" type="line"/>
      <point x="456" y="568" type="line" smooth="yes"/>
      <point x="326" y="568"/>
      <point x="216" y="428"/>
      <point x="216" y="291" type="curve"/>
      <point x="49" y="240" type="line"/>
      <point x="49" y="32"/>
      <point x="315" y="89"/>
      <point x="315" y="18" type="curve" smooth="yes"/>
      <point x="315" y="2"/>
      <point x="301" y="-9"/>
      <point x="278" y="-9" type="curve" smooth="yes"/>
      <point x="250" y="-9"/>
      <point x="230" y="6"/>
      <point x="225" y="40" type="curve"/>
      <point x="12" y="40" type="line"/>
      <point x="22" y="-75"/>
      <point x="116" y="-162"/>
    </contour>
    <contour>
      <point x="49" y="564" type="line"/>
      <point x="49" y="238" type="line"/>
      <point x="271" y="171" type="line"/>
      <point x="271" y="564" type="line"/>
    </contour>
  </outline>
</glyph>
<glyph name="r_s_e.ss12" format="1">
  <advance width="1243"/>
  <unicode hex="F45D0"/>
  <outline>
    <contour>
      <point x="217" y="291" type="curve"/>
      <point x="272" y="231" type="line"/>
      <point x="272" y="308"/>
      <point x="314" y="331"/>
      <point x="394" y="331" type="curve" smooth="yes"/>
      <point x="539" y="331" type="line"/>
      <point x="629" y="559" type="line"/>
      <point x="457" y="559" type="line" smooth="yes"/>
      <point x="327" y="559"/>
      <point x="217" y="428"/>
    </contour>
    <contour>
      <point x="50" y="564" type="line"/>
      <point x="50" y="0" type="line"/>
      <point x="272" y="0" type="line"/>
      <point x="272" y="564" type="line"/>
    </contour>
    <component base="s_e" xOffset="344"/>
  </outline>
</glyph>
<glyph name="s_c" format="1">
  <advance width="876"/>
  <unicode hex="F4710"/>
  <outline>
    <contour>
      <point x="345" y="369" type="curve"/>
      <point x="549" y="369" type="line"/>
      <point x="558" y="376"/>
      <point x="570" y="381"/>
      <point x="583" y="381" type="curve" smooth="yes"/>
      <point x="611" y="381"/>
      <point x="626" y="364"/>
      <point x="634" y="337" type="curve"/>
      <point x="869" y="337" type="line"/>
      <point x="842" y="485"/>
      <point x="733" y="571"/>
      <point x="588" y="571" type="curve" smooth="yes"/>
      <point x="447" y="571"/>
      <point x="341" y="496"/>
    </contour>
    <contour>
      <point x="533" y="226" type="curve"/>
      <point x="358" y="95" type="line"/>
      <point x="409" y="30"/>
      <point x="490" y="-7"/>
      <point x="588" y="-7" type="curve" smooth="yes"/>
      <point x="733" y="-7"/>
      <point x="842" y="79"/>
      <point x="869" y="227" type="curve"/>
      <point x="634" y="227" type="line"/>
      <point x="626" y="200"/>
      <point x="611" y="183"/>
      <point x="583" y="183" type="curve" smooth="yes"/>
      <point x="560" y="183"/>
      <point x="542" y="197"/>
    </contour>
    <component base="s"/>
  </outline>
</glyph>
<glyph name="s_c_e.ss12" format="1">
  <advance width="1243"/>
  <unicode hex="F4720"/>
  <outline>
    <contour>
      <point x="587" y="571" type="curve" smooth="yes"/>
      <point x="446" y="571"/>
      <point x="341" y="496"/>
      <point x="345" y="369" type="curve"/>
      <point x="549" y="369" type="line"/>
      <point x="558" y="376"/>
      <point x="570" y="381"/>
      <point x="585" y="381" type="curve" smooth="yes"/>
      <point x="625" y="381"/>
      <point x="657" y="351"/>
      <point x="657" y="244" type="curve"/>
      <point x="875" y="337" type="line"/>
      <point x="848" y="485"/>
      <point x="732" y="571"/>
    </contour>
    <contour>
      <point x="861" y="194" type="curve"/>
      <point x="616" y="194" type="line"/>
      <point x="607" y="187"/>
      <point x="597" y="183"/>
      <point x="583" y="183" type="curve" smooth="yes"/>
      <point x="560" y="183"/>
      <point x="542" y="197"/>
      <point x="533" y="226" type="curve"/>
      <point x="358" y="95" type="line"/>
      <point x="409" y="30"/>
      <point x="490" y="-7"/>
      <point x="588" y="-7" type="curve" smooth="yes"/>
      <point x="722" y="-7"/>
      <point x="825" y="66"/>
    </contour>
    <component base="s"/>
    <component base="bout-e" xOffset="283"/>
  </outline>
</glyph>
<glyph name="s_e" format="1">
  <advance width="899"/>
  <unicode hex="F4740"/>
  <outline>
    <contour>
      <point x="345" y="369" type="curve"/>
      <point x="542" y="369" type="line"/>
      <point x="553" y="386"/>
      <point x="573" y="397"/>
      <point x="601" y="397" type="curve" smooth="yes"/>
      <point x="634" y="397"/>
      <point x="664" y="379"/>
      <point x="664" y="340" type="curve"/>
      <point x="357" y="340" type="line"/>
      <point x="313" y="243" type="line"/>
      <point x="886" y="243" type="line"/>
      <point x="888" y="257"/>
      <point x="889" y="273"/>
      <point x="889" y="287" type="curve" smooth="yes"/>
      <point x="889" y="464"/>
      <point x="770" y="571"/>
      <point x="601" y="571" type="curve" smooth="yes"/>
      <point x="459" y="571"/>
      <point x="355" y="494"/>
    </contour>
    <component base="s" identifier="24E0A3D1"/>
  </outline>
</glyph>
<glyph name="s_l" format="1">
  <advance width="577"/>
  <unicode hex="F4760"/>
  <outline>
    <contour>
      <point x="171" y="646" type="line"/>
      <point x="171" y="450" type="line"/>
      <point x="393" y="450" type="line"/>
      <point x="393" y="785" type="line"/>
    </contour>
    <component base="s"/>
  </outline>
</glyph>
<glyph name="s_s" format="1">
  <advance width="1246"/>
  <unicode hex="F4790"/>
  <outline>
    <contour>
      <point x="607" y="158" type="line" smooth="yes"/>
      <point x="688" y="41"/>
      <point x="806" y="-7"/>
      <point x="939" y="-7" type="curve" smooth="yes"/>
      <point x="1119" y="-7"/>
      <point x="1209" y="69"/>
      <point x="1209" y="169" type="curve" smooth="yes"/>
      <point x="1209" y="386"/>
      <point x="914" y="321"/>
      <point x="914" y="391" type="curve" smooth="yes"/>
      <point x="914" y="408"/>
      <point x="927" y="417"/>
      <point x="949" y="417" type="curve" smooth="yes"/>
      <point x="985" y="417"/>
      <point x="1007" y="399"/>
      <point x="1013" y="369" type="curve"/>
      <point x="1210" y="369" type="line"/>
      <point x="1194" y="480"/>
      <point x="1115" y="571"/>
      <point x="954" y="571" type="curve" smooth="yes"/>
      <point x="795" y="571"/>
      <point x="714" y="487"/>
      <point x="714" y="385" type="curve" smooth="yes"/>
      <point x="714" y="178"/>
      <point x="1005" y="227"/>
      <point x="1005" y="172" type="curve" smooth="yes"/>
      <point x="1005" y="158"/>
      <point x="990" y="146"/>
      <point x="947" y="146" type="curve" smooth="yes"/>
      <point x="885" y="146"/>
      <point x="798" y="181"/>
      <point x="742" y="263" type="curve" smooth="yes"/>
      <point x="652" y="394" type="line" smooth="yes"/>
      <point x="565" y="520"/>
      <point x="445" y="571"/>
      <point x="305" y="571" type="curve" smooth="yes"/>
      <point x="136" y="571"/>
      <point x="45" y="487"/>
      <point x="45" y="385" type="curve" smooth="yes"/>
      <point x="45" y="178"/>
      <point x="336" y="246"/>
      <point x="336" y="172" type="curve" smooth="yes"/>
      <point x="336" y="158"/>
      <point x="322" y="146"/>
      <point x="299" y="146" type="curve" smooth="yes"/>
      <point x="265" y="146"/>
      <point x="238" y="161"/>
      <point x="233" y="195" type="curve"/>
      <point x="20" y="195" type="line"/>
      <point x="30" y="80"/>
      <point x="137" y="-7"/>
      <point x="300" y="-7" type="curve" smooth="yes"/>
      <point x="450" y="-7"/>
      <point x="540" y="69"/>
      <point x="540" y="169" type="curve" smooth="yes"/>
      <point x="540" y="386"/>
      <point x="245" y="321"/>
      <point x="245" y="391" type="curve" smooth="yes"/>
      <point x="245" y="408"/>
      <point x="260" y="417"/>
      <point x="292" y="417" type="curve" smooth="yes"/>
      <point x="338" y="417"/>
      <point x="444" y="392"/>
      <point x="522" y="280" type="curve" smooth="yes"/>
    </contour>
  </outline>
</glyph>
<glyph name="s_s_e" format="1">
  <advance width="1568"/>
  <unicode hex="F47A0"/>
  <outline>
    <contour>
      <point x="1014" y="369" type="curve"/>
      <point x="1211" y="369" type="line"/>
      <point x="1222" y="386"/>
      <point x="1242" y="397"/>
      <point x="1270" y="397" type="curve" smooth="yes"/>
      <point x="1303" y="397"/>
      <point x="1333" y="379"/>
      <point x="1333" y="340" type="curve"/>
      <point x="1026" y="340" type="line"/>
      <point x="982" y="243" type="line"/>
      <point x="1555" y="243" type="line"/>
      <point x="1557" y="257"/>
      <point x="1558" y="273"/>
      <point x="1558" y="287" type="curve" smooth="yes"/>
      <point x="1558" y="464"/>
      <point x="1439" y="571"/>
      <point x="1270" y="571" type="curve" smooth="yes"/>
      <point x="1128" y="571"/>
      <point x="1024" y="494"/>
    </contour>
    <component base="s_s"/>
  </outline>
</glyph>
<glyph name="s_t" format="1">
  <advance width="954"/>
  <unicode hex="F47C0"/>
  <outline>
    <contour>
      <point x="300" y="-7" type="curve" smooth="yes"/>
      <point x="450" y="-7"/>
      <point x="540" y="69"/>
      <point x="540" y="169" type="curve" smooth="yes"/>
      <point x="540" y="395"/>
      <point x="245" y="311"/>
      <point x="245" y="362" type="curve" smooth="yes"/>
      <point x="245" y="379"/>
      <point x="259" y="381"/>
      <point x="281" y="381" type="curve" smooth="yes"/>
      <point x="917" y="381" type="line"/>
      <point x="917" y="564" type="line"/>
      <point x="302" y="564" type="line" smooth="yes"/>
      <point x="110" y="564"/>
      <point x="45" y="487"/>
      <point x="45" y="385" type="curve" smooth="yes"/>
      <point x="45" y="148"/>
      <point x="336" y="246"/>
      <point x="336" y="172" type="curve" smooth="yes"/>
      <point x="336" y="158"/>
      <point x="322" y="146"/>
      <point x="299" y="146" type="curve" smooth="yes"/>
      <point x="265" y="146"/>
      <point x="238" y="161"/>
      <point x="233" y="195" type="curve"/>
      <point x="20" y="195" type="line"/>
      <point x="30" y="80"/>
      <point x="137" y="-7"/>
    </contour>
    <contour>
      <point x="603" y="636" type="line"/>
      <point x="603" y="231" type="line" smooth="yes"/>
      <point x="603" y="56"/>
      <point x="703" y="0"/>
      <point x="835" y="0" type="curve" smooth="yes"/>
      <point x="919" y="0" type="line"/>
      <point x="919" y="189" type="line"/>
      <point x="866" y="189" type="line" smooth="yes"/>
      <point x="837" y="189"/>
      <point x="825" y="201"/>
      <point x="825" y="227" type="curve" smooth="yes"/>
      <point x="825" y="775" type="line"/>
    </contour>
  </outline>
</glyph>
<glyph name="t_e" format="1">
  <advance width="675"/>
  <unicode hex="F4910"/>
  <outline>
    <contour>
      <point x="85" y="636" type="line"/>
      <point x="85" y="231" type="line" smooth="yes"/>
      <point x="85" y="56"/>
      <point x="185" y="0"/>
      <point x="317" y="0" type="curve" smooth="yes"/>
      <point x="401" y="0" type="line"/>
      <point x="401" y="189" type="line"/>
      <point x="348" y="189" type="line" smooth="yes"/>
      <point x="319" y="189"/>
      <point x="307" y="201"/>
      <point x="307" y="227" type="curve" smooth="yes"/>
      <point x="307" y="775" type="line"/>
    </contour>
    <contour>
      <point x="15" y="379" type="line"/>
      <point x="259" y="379" type="line"/>
      <point x="259" y="564" type="line"/>
      <point x="15" y="564" type="line"/>
    </contour>
    <component base="bout-e" xOffset="-285"/>
  </outline>
</glyph>
<glyph name="t_e.ss10" format="1">
  <advance width="948"/>
  <unicode hex="F4911"/>
  <outline>
    <contour>
      <point x="85" y="636" type="line"/>
      <point x="85" y="231" type="line" smooth="yes"/>
      <point x="85" y="56"/>
      <point x="185" y="0"/>
      <point x="317" y="0" type="curve" smooth="yes"/>
      <point x="401" y="0" type="line"/>
      <point x="401" y="189" type="line"/>
      <point x="348" y="189" type="line" smooth="yes"/>
      <point x="319" y="189"/>
      <point x="307" y="201"/>
      <point x="307" y="227" type="curve" smooth="yes"/>
      <point x="307" y="775" type="line"/>
    </contour>
    <contour>
      <point x="15" y="379" type="line"/>
      <point x="399" y="379" type="line"/>
      <point x="399" y="564" type="line"/>
      <point x="15" y="564" type="line"/>
    </contour>
    <component base="bout-e" xOffset="-12" yOffset="136"/>
  </outline>
</glyph>
<glyph name="t_t_e" format="1">
  <advance width="1111"/>
  <unicode hex="F4980"/>
  <outline>
    <contour>
      <point x="521" y="636" type="line"/>
      <point x="521" y="231" type="line" smooth="yes"/>
      <point x="521" y="56"/>
      <point x="621" y="0"/>
      <point x="753" y="0" type="curve" smooth="yes"/>
      <point x="837" y="0" type="line"/>
      <point x="837" y="189" type="line"/>
      <point x="784" y="189" type="line" smooth="yes"/>
      <point x="755" y="189"/>
      <point x="743" y="201"/>
      <point x="743" y="227" type="curve" smooth="yes"/>
      <point x="743" y="775" type="line"/>
    </contour>
    <contour>
      <point x="349" y="379" type="line"/>
      <point x="733" y="379" type="line"/>
      <point x="733" y="564" type="line"/>
      <point x="349" y="564" type="line"/>
    </contour>
    <component base="t"/>
    <component base="bout-e" xOffset="151"/>
  </outline>
</glyph>
<glyph name="t_t_e.ss10" format="1">
  <advance width="1384"/>
  <unicode hex="F4981"/>
  <outline>
    <contour>
      <point x="228" y="378" type="line"/>
      <point x="572" y="378" type="line"/>
      <point x="572" y="564" type="line"/>
      <point x="228" y="564" type="line"/>
    </contour>
    <component base="t"/>
    <component base="t_e.ss10" xOffset="436" identifier="3CB9D56E"/>
  </outline>
</glyph>
<glyph name="x_c" format="1">
  <advance width="868"/>
  <unicode hex="F5710"/>
  <outline>
    <contour>
      <point x="350" y="94" type="line"/>
      <point x="492" y="236" type="line"/>
      <point x="248" y="564" type="line"/>
      <point x="0" y="564" type="line"/>
    </contour>
    <contour>
      <point x="373" y="213" type="line"/>
      <point x="249" y="375" type="line"/>
      <point x="10" y="0" type="line"/>
      <point x="254" y="0" type="line"/>
    </contour>
    <component base="c" xOffset="267"/>
  </outline>
</glyph>
<glyph name="x_c_e.ss12" format="1">
  <advance width="1231"/>
  <unicode hex="F5720"/>
  <outline>
    <contour>
      <point x="350" y="94" type="line"/>
      <point x="492" y="236" type="line"/>
      <point x="248" y="564" type="line"/>
      <point x="0" y="564" type="line"/>
    </contour>
    <contour>
      <point x="373" y="213" type="line"/>
      <point x="249" y="375" type="line"/>
      <point x="10" y="0" type="line"/>
      <point x="254" y="0" type="line"/>
    </contour>
    <contour>
      <point x="575" y="571" type="curve" smooth="yes"/>
      <point x="406" y="571"/>
      <point x="287" y="462"/>
      <point x="287" y="282" type="curve"/>
      <point x="287" y="102"/>
      <point x="406" y="-7"/>
      <point x="575" y="-7" type="curve" smooth="yes"/>
      <point x="709" y="-7"/>
      <point x="813" y="67"/>
      <point x="849" y="195" type="curve"/>
      <point x="604" y="195" type="line"/>
      <point x="595" y="187"/>
      <point x="584" y="183"/>
      <point x="570" y="183" type="curve" smooth="yes"/>
      <point x="536" y="183"/>
      <point x="512" y="214"/>
      <point x="512" y="282" type="curve" smooth="yes"/>
      <point x="512" y="350"/>
      <point x="540" y="381"/>
      <point x="574" y="381" type="curve" smooth="yes"/>
      <point x="613" y="381"/>
      <point x="645" y="351"/>
      <point x="645" y="244" type="curve"/>
      <point x="863" y="337" type="line"/>
      <point x="836" y="485"/>
      <point x="720" y="571"/>
    </contour>
    <component base="bout-e" xOffset="271"/>
  </outline>
</glyph>
<glyph name="x_s" format="1">
  <advance width="1001"/>
  <unicode hex="F57A0"/>
  <outline>
    <contour>
      <point x="0" y="564" type="line"/>
      <point x="375" y="123" type="line" smooth="yes"/>
      <point x="472" y="8"/>
      <point x="579" y="-8"/>
      <point x="696" y="-8" type="curve" smooth="yes"/>
      <point x="855" y="-8"/>
      <point x="956" y="69"/>
      <point x="956" y="178" type="curve" smooth="yes"/>
      <point x="956" y="386"/>
      <point x="681" y="321"/>
      <point x="681" y="391" type="curve" smooth="yes"/>
      <point x="681" y="408"/>
      <point x="694" y="417"/>
      <point x="713" y="417" type="curve" smooth="yes"/>
      <point x="749" y="417"/>
      <point x="767" y="399"/>
      <point x="773" y="369" type="curve"/>
      <point x="970" y="369" type="line"/>
      <point x="954" y="480"/>
      <point x="869" y="571"/>
      <point x="708" y="571" type="curve" smooth="yes"/>
      <point x="552" y="571"/>
      <point x="481" y="487"/>
      <point x="481" y="385" type="curve" smooth="yes"/>
      <point x="481" y="178"/>
      <point x="752" y="246"/>
      <point x="752" y="172" type="curve" smooth="yes"/>
      <point x="752" y="158"/>
      <point x="743" y="146"/>
      <point x="702" y="146" type="curve" smooth="yes"/>
      <point x="664" y="146"/>
      <point x="593" y="163"/>
      <point x="531" y="235" type="curve" smooth="yes"/>
      <point x="248" y="564" type="line"/>
    </contour>
    <contour>
      <point x="373" y="213" type="line"/>
      <point x="249" y="375" type="line"/>
      <point x="10" y="0" type="line"/>
      <point x="254" y="0" type="line"/>
    </contour>
  </outline>
</glyph>
<glyph name="x_s_e.ss12" format="1">
  <advance width="1327"/>
  <unicode hex="F57B0"/>
  <outline>
    <contour>
      <point x="0" y="564" type="line"/>
      <point x="375" y="123" type="line" smooth="yes"/>
      <point x="472" y="8"/>
      <point x="579" y="-8"/>
      <point x="696" y="-8" type="curve" smooth="yes"/>
      <point x="855" y="-8"/>
      <point x="956" y="69"/>
      <point x="956" y="178" type="curve" smooth="yes"/>
      <point x="956" y="386"/>
      <point x="681" y="321"/>
      <point x="681" y="391" type="curve" smooth="yes"/>
      <point x="681" y="408"/>
      <point x="694" y="417"/>
      <point x="713" y="417" type="curve" smooth="yes"/>
      <point x="749" y="417"/>
      <point x="767" y="399"/>
      <point x="773" y="369" type="curve"/>
      <point x="970" y="369" type="line"/>
      <point x="954" y="480"/>
      <point x="869" y="571"/>
      <point x="708" y="571" type="curve" smooth="yes"/>
      <point x="552" y="571"/>
      <point x="481" y="487"/>
      <point x="481" y="385" type="curve" smooth="yes"/>
      <point x="481" y="178"/>
      <point x="752" y="246"/>
      <point x="752" y="172" type="curve" smooth="yes"/>
      <point x="752" y="158"/>
      <point x="743" y="146"/>
      <point x="702" y="146" type="curve" smooth="yes"/>
      <point x="664" y="146"/>
      <point x="593" y="163"/>
      <point x="531" y="235" type="curve" smooth="yes"/>
      <point x="248" y="564" type="line"/>
    </contour>
    <contour>
      <point x="373" y="213" type="line"/>
      <point x="249" y="375" type="line"/>
      <point x="10" y="0" type="line"/>
      <point x="254" y="0" type="line"/>
    </contour>
    <contour>
      <point x="773" y="369" type="curve"/>
      <point x="970" y="369" type="line"/>
      <point x="981" y="386"/>
      <point x="1001" y="397"/>
      <point x="1029" y="397" type="curve" smooth="yes"/>
      <point x="1062" y="397"/>
      <point x="1092" y="379"/>
      <point x="1092" y="340" type="curve"/>
      <point x="785" y="340" type="line"/>
      <point x="741" y="243" type="line"/>
      <point x="1314" y="243" type="line"/>
      <point x="1316" y="257"/>
      <point x="1317" y="273"/>
      <point x="1317" y="287" type="curve" smooth="yes"/>
      <point x="1317" y="464"/>
      <point x="1198" y="571"/>
      <point x="1029" y="571" type="curve" smooth="yes"/>
      <point x="887" y="571"/>
      <point x="783" y="494"/>
    </contour>
  </outline>
</glyph>
<glyph name="A.ss07" format="1">
  <advance width="773"/>
  <outline>
    <contour>
      <point x="515" y="708" type="line"/>
      <point x="259" y="708" type="line"/>
      <point x="0" y="0" type="line"/>
      <point x="233" y="0" type="line"/>
      <point x="426" y="593" type="line"/>
      <point x="347" y="593" type="line"/>
      <point x="539" y="0" type="line"/>
      <point x="773" y="0" type="line"/>
    </contour>
    <contour>
      <point x="384" y="274" type="line"/>
      <point x="267" y="107" type="line"/>
      <point x="634" y="107" type="line"/>
      <point x="579" y="274" type="line"/>
    </contour>
    <contour>
      <point x="773" y="0" type="move" name="ogonek"/>
    </contour>
    <contour>
      <point x="387" y="711" type="move" name="top"/>
    </contour>
  </outline>
</glyph>
<glyph name="Aogonek.ss07" format="1">
  <advance width="773"/>
  <outline>
    <component base="A.ss07"/>
    <component base="ogonek" xOffset="481"/>
    <contour>
      <point x="773" y="0" type="move" name="_ogonek"/>
    </contour>
  </outline>
</glyph>
<glyph name="H.ss07" format="1">
  <advance width="755"/>
  <outline>
    <contour>
      <point x="50" y="708" type="line"/>
      <point x="50" y="0" type="line"/>
      <point x="272" y="0" type="line"/>
      <point x="272" y="708" type="line"/>
    </contour>
    <contour>
      <point x="483" y="708" type="line"/>
      <point x="483" y="0" type="line"/>
      <point x="705" y="0" type="line"/>
      <point x="705" y="708" type="line"/>
    </contour>
    <contour>
      <point x="396" y="453" type="line"/>
      <point x="272" y="276" type="line"/>
      <point x="505" y="276" type="line"/>
      <point x="505" y="453" type="line"/>
    </contour>
  </outline>
</glyph>
<glyph name="L.ss07" format="1">
  <advance width="506"/>
  <outline>
    <contour>
      <point x="50" y="0" type="line"/>
      <point x="272" y="0" type="line"/>
      <point x="272" y="708" type="line"/>
      <point x="50" y="708" type="line"/>
    </contour>
    <contour>
      <point x="389" y="168" type="line"/>
      <point x="272" y="0" type="line"/>
      <point x="486" y="0" type="line"/>
      <point x="486" y="168" type="line"/>
    </contour>
    <contour>
      <point x="265" y="0" type="move" name="bottom"/>
    </contour>
    <contour>
      <point x="265" y="10" type="move" name="commaaccent"/>
    </contour>
    <contour>
      <point x="231" y="711" type="move" name="top"/>
    </contour>
    <contour>
      <point x="466" y="711" type="move" name="topright"/>
    </contour>
  </outline>
</glyph>
<glyph name="Ldot.ss07" format="1">
  <advance width="506"/>
  <outline>
    <contour>
      <point x="414" y="327" type="curve" smooth="yes"/>
      <point x="464" y="327"/>
      <point x="501" y="364"/>
      <point x="501" y="412" type="curve" smooth="yes"/>
      <point x="501" y="462"/>
      <point x="464" y="499"/>
      <point x="414" y="499" type="curve" smooth="yes"/>
      <point x="366" y="499"/>
      <point x="329" y="462"/>
      <point x="329" y="412" type="curve" smooth="yes"/>
      <point x="329" y="364"/>
      <point x="366" y="327"/>
    </contour>
    <component base="L.ss07"/>
  </outline>
</glyph>
<glyph name="Lslash.ss07" format="1">
  <advance width="521"/>
  <outline>
    <contour>
      <point x="-8" y="437" type="line"/>
      <point x="-8" y="241" type="line"/>
      <point x="344" y="338" type="line"/>
      <point x="344" y="534" type="line"/>
    </contour>
    <component base="L.ss07"/>
  </outline>
</glyph>
<glyph name="R.ss07" format="1">
  <advance width="670"/>
  <outline>
    <contour>
      <point x="424" y="498"/>
      <point x="424" y="462" type="curve" smooth="yes"/>
      <point x="424" y="420"/>
      <point x="402" y="402"/>
      <point x="360" y="402" type="curve" smooth="yes"/>
      <point x="272" y="402" type="line"/>
      <point x="272" y="522" type="line"/>
      <point x="360" y="522" type="line" smooth="yes"/>
      <point x="402" y="522"/>
    </contour>
    <contour>
      <point x="380" y="708" type="curve" smooth="yes"/>
      <point x="50" y="708" type="line"/>
      <point x="50" y="0" type="line"/>
      <point x="272" y="0" type="line"/>
      <point x="272" y="254" type="line"/>
      <point x="380" y="254" type="line"/>
      <point x="558" y="254"/>
      <point x="649" y="352"/>
      <point x="649" y="476" type="curve"/>
      <point x="649" y="605.586"/>
      <point x="558" y="708"/>
    </contour>
    <contour>
      <point x="526" y="216" type="line"/>
      <point x="271" y="255" type="line"/>
      <point x="406" y="0" type="line"/>
      <point x="650" y="0" type="line"/>
    </contour>
    <contour>
      <point x="325" y="0" type="move" name="bottom"/>
    </contour>
    <contour>
      <point x="325" y="711" type="move" name="top"/>
    </contour>
  </outline>
</glyph>
<glyph name="Rcommaaccent.ss07" format="1">
  <advance width="701"/>
  <outline>
    <contour>
      <point x="426" y="-35" type="curve"/>
      <point x="270" y="-35" type="line"/>
      <point x="270" y="-182" type="line"/>
      <point x="342" y="-182" type="line"/>
      <point x="342" y="-193" type="line" smooth="yes"/>
      <point x="342" y="-245"/>
      <point x="322" y="-268"/>
      <point x="287" y="-268" type="curve"/>
      <point x="287" y="-346" type="line"/>
      <point x="401" y="-346"/>
      <point x="452" y="-266"/>
      <point x="452" y="-170" type="curve" smooth="yes"/>
      <point x="452" y="-128"/>
      <point x="444" y="-82"/>
    </contour>
    <component base="R.ss07"/>
    <contour>
      <point x="350" y="0" type="move" name="_bottom"/>
    </contour>
  </outline>
</glyph>
<glyph name="T.ss07" format="1">
  <advance width="616"/>
  <outline>
    <contour>
      <point x="10" y="532" type="line"/>
      <point x="606" y="532" type="line"/>
      <point x="606" y="708" type="line"/>
      <point x="10" y="708" type="line"/>
    </contour>
    <contour>
      <point x="418" y="432" type="line"/>
      <point x="196" y="532" type="line"/>
      <point x="196" y="0" type="line"/>
      <point x="418" y="0" type="line"/>
    </contour>
    <contour>
      <point x="303" y="0" type="move" name="bottom"/>
    </contour>
    <contour>
      <point x="303" y="711" type="move" name="top"/>
    </contour>
  </outline>
</glyph>
<glyph name="a.ss02" format="1">
  <advance width="680"/>
  <outline>
    <contour>
      <point x="20" y="464"/>
      <point x="20" y="282" type="curve"/>
      <point x="20" y="100"/>
      <point x="123" y="-7"/>
      <point x="253" y="-7" type="curve"/>
      <point x="328" y="-7"/>
      <point x="382" y="26"/>
      <point x="409" y="77" type="curve"/>
      <point x="409" y="0" type="line"/>
      <point x="630" y="0" type="line"/>
      <point x="630" y="564" type="line"/>
      <point x="409" y="564" type="line"/>
      <point x="409" y="487" type="line"/>
      <point x="382" y="538"/>
      <point x="328" y="571"/>
      <point x="253" y="571" type="curve"/>
      <point x="123" y="571"/>
    </contour>
    <contour>
      <point x="409" y="344"/>
      <point x="409" y="282" type="curve"/>
      <point x="409" y="220"/>
      <point x="373" y="187"/>
      <point x="327" y="187" type="curve"/>
      <point x="281" y="187"/>
      <point x="245" y="220"/>
      <point x="245" y="282" type="curve"/>
      <point x="245" y="344"/>
      <point x="281" y="377"/>
      <point x="327" y="377" type="curve"/>
      <point x="373" y="377"/>
    </contour>
    <contour>
      <point x="630" y="0" type="move" name="ogonek"/>
    </contour>
    <contour>
      <point x="347" y="564" type="move" name="top"/>
    </contour>
  </outline>
</glyph>
<glyph name="a_u_l_a" format="1">
  <advance width="2488"/>
  <outline>
    <contour>
      <point x="1524" y="76" type="curve"/>
      <point x="1524" y="0" type="line"/>
      <point x="1745" y="0" type="line"/>
      <point x="1745" y="476" type="line"/>
      <point x="1524" y="456" type="line"/>
      <point x="1524" y="323" type="line"/>
      <point x="1426" y="323" type="line" smooth="yes"/>
      <point x="1249" y="323"/>
      <point x="1172" y="251"/>
      <point x="1172" y="151" type="curve" smooth="yes"/>
      <point x="1172" y="46"/>
      <point x="1252" y="-11"/>
      <point x="1349" y="-11" type="curve" smooth="yes"/>
      <point x="1421" y="-11"/>
      <point x="1497" y="20"/>
    </contour>
    <contour>
      <point x="1442" y="143" type="curve" smooth="yes"/>
      <point x="1414" y="143"/>
      <point x="1396" y="158"/>
      <point x="1396" y="186" type="curve" smooth="yes"/>
      <point x="1396" y="214"/>
      <point x="1419" y="233"/>
      <point x="1460" y="233" type="curve" smooth="yes"/>
      <point x="1522" y="233" type="line"/>
      <point x="1522" y="221" type="line" smooth="yes"/>
      <point x="1522" y="180"/>
      <point x="1486" y="143"/>
    </contour>
    <component base="agrave"/>
    <component base="l" xOffset="820" identifier="95E85D69"/>
    <component base="a" xOffset="1142" yOffset="392" identifier="583CBF89"/>
    <component base="u" xOffset="1790" yOffset="392" identifier="9DF74FD6"/>
  </outline>
</glyph>
<glyph name="ampersand.ss03" format="1">
  <advance width="700"/>
  <outline>
    <contour>
      <point x="361" y="715" type="curve" smooth="yes"/>
      <point x="214" y="715"/>
      <point x="138" y="628"/>
      <point x="138" y="537" type="curve" smooth="yes"/>
      <point x="138" y="476"/>
      <point x="155.759" y="426.255"/>
      <point x="208" y="375" type="curve"/>
      <point x="225" y="354" type="line"/>
      <point x="305" y="373" type="line"/>
      <point x="286" y="410"/>
      <point x="264" y="433"/>
      <point x="222" y="433" type="curve" smooth="yes"/>
      <point x="112" y="433"/>
      <point x="25" y="348"/>
      <point x="25" y="218" type="curve" smooth="yes"/>
      <point x="25" y="98"/>
      <point x="104" y="-7"/>
      <point x="264" y="-7" type="curve" smooth="yes"/>
      <point x="377" y="-7"/>
      <point x="451" y="49"/>
      <point x="481" y="114" type="curve"/>
      <point x="487" y="124"/>
      <point x="493" y="135"/>
      <point x="499" y="145" type="curve"/>
      <point x="402" y="106" type="line"/>
      <point x="479" y="0" type="line"/>
      <point x="700" y="0" type="line"/>
      <point x="366" y="468" type="line" smooth="yes"/>
      <point x="351" y="490"/>
      <point x="345" y="500"/>
      <point x="345" y="512" type="curve" smooth="yes"/>
      <point x="345" y="524"/>
      <point x="353" y="532"/>
      <point x="365" y="532" type="curve" smooth="yes"/>
      <point x="381" y="532"/>
      <point x="388" y="523"/>
      <point x="391" y="505" type="curve" smooth="yes"/>
      <point x="393" y="494"/>
      <point x="394" y="480"/>
      <point x="394" y="464" type="curve"/>
      <point x="600" y="464" type="line"/>
      <point x="602" y="503"/>
      <point x="598" y="546"/>
      <point x="584" y="584" type="curve" smooth="yes"/>
      <point x="556.048" y="655.877"/>
      <point x="495" y="715"/>
    </contour>
    <contour>
      <point x="266" y="176" type="curve" smooth="yes"/>
      <point x="235" y="176"/>
      <point x="214" y="195"/>
      <point x="214" y="224" type="curve" smooth="yes"/>
      <point x="214" y="252"/>
      <point x="235" y="270"/>
      <point x="266" y="270" type="curve" smooth="yes"/>
      <point x="297" y="270"/>
      <point x="318" y="252"/>
      <point x="318" y="224" type="curve" smooth="yes"/>
      <point x="318" y="195"/>
      <point x="297" y="176"/>
    </contour>
  </outline>
</glyph>
<glyph name="asterisk.alt" format="1">
  <advance width="561"/>
  <outline>
    <contour>
      <point x="327" y="625" type="line"/>
      <point x="356" y="744" type="line"/>
      <point x="245" y="625" type="line"/>
      <point x="153" y="708" type="line"/>
      <point x="195" y="555" type="line"/>
      <point x="84" y="519" type="line"/>
      <point x="244" y="477" type="line"/>
      <point x="216" y="360" type="line"/>
      <point x="327" y="477" type="line"/>
      <point x="414" y="391" type="line"/>
      <point x="376" y="552" type="line"/>
      <point x="487" y="588" type="line"/>
    </contour>
  </outline>
</glyph>
<glyph name="bout-e" format="1">
  <advance width="960"/>
  <outline>
    <contour>
      <point x="374" y="282" type="line"/>
      <point x="374" y="243" type="line"/>
      <point x="947" y="243" type="line"/>
      <point x="949" y="257"/>
      <point x="950" y="273"/>
      <point x="950" y="287" type="curve" smooth="yes"/>
      <point x="950" y="464"/>
      <point x="831" y="571"/>
      <point x="662" y="571" type="curve" smooth="yes"/>
      <point x="493" y="571"/>
      <point x="374" y="462"/>
      <point x="374" y="282" type="curve"/>
      <point x="590" y="271" type="line"/>
      <point x="590" y="311" type="line" smooth="yes"/>
      <point x="590" y="370"/>
      <point x="617" y="397"/>
      <point x="662" y="397" type="curve" smooth="yes"/>
      <point x="695" y="397"/>
      <point x="725" y="379"/>
      <point x="725" y="340" type="curve"/>
      <point x="418" y="340" type="line"/>
    </contour>
  </outline>
</glyph>
<glyph name="colon.ss01" format="1">
  <advance width="332"/>
  <outline>
    <contour>
      <point x="62" y="212" type="line"/>
      <point x="62" y="0" type="line"/>
      <point x="282" y="0" type="line"/>
      <point x="282" y="212" type="line"/>
    </contour>
    <contour>
      <point x="62" y="603" type="line"/>
      <point x="62" y="391" type="line"/>
      <point x="282" y="391" type="line"/>
      <point x="282" y="603" type="line"/>
    </contour>
  </outline>
</glyph>
<glyph name="comma.ss01" format="1">
  <advance width="276"/>
  <outline>
    <contour>
      <point x="196" y="131" type="curve"/>
      <point x="25" y="131" type="line"/>
      <point x="25" y="-61" type="line"/>
      <point x="112" y="-61" type="line"/>
      <point x="112" y="-72" type="line" smooth="yes"/>
      <point x="112" y="-124"/>
      <point x="91" y="-132"/>
      <point x="57" y="-132" type="curve"/>
      <point x="57" y="-210" type="line"/>
      <point x="189" y="-210"/>
      <point x="237" y="-119"/>
      <point x="237" y="-23" type="curve" smooth="yes"/>
      <point x="237" y="33"/>
      <point x="221" y="90"/>
    </contour>
  </outline>
</glyph>
<glyph name="divide.ss01" format="1">
  <advance width="551"/>
  <outline>
    <contour>
      <point x="20" y="441" type="line"/>
      <point x="20" y="240" type="line"/>
      <point x="531" y="240" type="line"/>
      <point x="531" y="441" type="line"/>
    </contour>
    <contour>
      <point x="164" y="212" type="line"/>
      <point x="164" y="0" type="line"/>
      <point x="384" y="0" type="line"/>
      <point x="384" y="212" type="line"/>
    </contour>
    <contour>
      <point x="164" y="681" type="line"/>
      <point x="164" y="469" type="line"/>
      <point x="384" y="469" type="line"/>
      <point x="384" y="681" type="line"/>
    </contour>
  </outline>
</glyph>
<glyph name="e.ss07" format="1">
  <advance width="616"/>
  <outline>
    <contour>
      <point x="304" y="340" type="line"/>
      <point x="236" y="243" type="line"/>
      <point x="593" y="243" type="line"/>
      <point x="595" y="257"/>
      <point x="596" y="273"/>
      <point x="596" y="287" type="curve"/>
      <point x="596" y="464"/>
      <point x="477" y="571"/>
      <point x="308" y="571" type="curve"/>
      <point x="139" y="571"/>
      <point x="20" y="462"/>
      <point x="20" y="282" type="curve"/>
      <point x="20" y="102"/>
      <point x="139" y="-7"/>
      <point x="308" y="-7" type="curve" smooth="yes"/>
      <point x="450" y="-7"/>
      <point x="560" y="83"/>
      <point x="584" y="203" type="curve"/>
      <point x="349" y="203" type="line"/>
      <point x="341" y="186"/>
      <point x="326" y="170"/>
      <point x="297" y="170" type="curve" smooth="yes"/>
      <point x="264" y="170"/>
      <point x="236" y="189"/>
      <point x="236" y="258" type="curve" smooth="yes"/>
      <point x="236" y="311" type="line" smooth="yes"/>
      <point x="236" y="370"/>
      <point x="263" y="397"/>
      <point x="308" y="397" type="curve"/>
      <point x="341" y="397"/>
      <point x="371" y="379"/>
      <point x="371" y="340" type="curve"/>
    </contour>
    <contour>
      <point x="308" y="-7" type="move" name="bottom"/>
    </contour>
    <contour>
      <point x="403" y="8" type="move" name="ogonek"/>
    </contour>
    <contour>
      <point x="308" y="571" type="move" name="top"/>
    </contour>
  </outline>
</glyph>
<glyph name="e_a.001" format="1">
  <advance width="981"/>
  <outline>
    <contour>
      <point x="715" y="76" type="curve"/>
      <point x="715" y="0" type="line"/>
      <point x="936" y="0" type="line"/>
      <point x="936" y="332" type="line" smooth="yes"/>
      <point x="936" y="476"/>
      <point x="846" y="572"/>
      <point x="691" y="572" type="curve" smooth="yes"/>
      <point x="529" y="572"/>
      <point x="441" y="469"/>
      <point x="411" y="334" type="curve"/>
      <point x="594" y="322" type="line"/>
      <point x="592" y="375"/>
      <point x="622" y="394"/>
      <point x="655" y="394" type="curve" smooth="yes"/>
      <point x="691" y="394"/>
      <point x="714" y="370"/>
      <point x="714" y="323" type="curve"/>
      <point x="617" y="323" type="line" smooth="yes"/>
      <point x="440" y="323"/>
      <point x="363" y="251"/>
      <point x="363" y="151" type="curve" smooth="yes"/>
      <point x="363" y="46"/>
      <point x="443" y="-11"/>
      <point x="540" y="-11" type="curve" smooth="yes"/>
      <point x="612" y="-11"/>
      <point x="688" y="20"/>
    </contour>
    <contour>
      <point x="633" y="143" type="curve" smooth="yes"/>
      <point x="605" y="143"/>
      <point x="587" y="158"/>
      <point x="587" y="186" type="curve" smooth="yes"/>
      <point x="587" y="214"/>
      <point x="610" y="233"/>
      <point x="651" y="233" type="curve" smooth="yes"/>
      <point x="713" y="233" type="line"/>
      <point x="713" y="221" type="line" smooth="yes"/>
      <point x="713" y="180"/>
      <point x="677" y="143"/>
    </contour>
    <component base="bout-e" xOffset="-354"/>
  </outline>
</glyph>
<glyph name="e_a.ss11" format="1">
  <advance width="1008"/>
  <outline>
    <contour>
      <point x="344" y="243" type="line"/>
      <point x="344" y="340" type="line"/>
      <point x="216" y="340" type="line"/>
      <point x="216" y="243" type="line"/>
    </contour>
    <contour>
      <point x="381" y="300" type="curve" smooth="yes"/>
      <point x="395" y="152" type="line" smooth="yes"/>
      <point x="405" y="48"/>
      <point x="470" y="-11"/>
      <point x="567" y="-11" type="curve" smooth="yes"/>
      <point x="639" y="-11"/>
      <point x="715" y="20"/>
      <point x="742" y="76" type="curve"/>
      <point x="742" y="0" type="line"/>
      <point x="963" y="0" type="line"/>
      <point x="963" y="332" type="line" smooth="yes"/>
      <point x="963" y="476"/>
      <point x="853" y="572"/>
      <point x="683" y="572" type="curve" smooth="yes"/>
      <point x="647" y="572"/>
      <point x="589" y="564"/>
      <point x="544" y="539" type="curve"/>
      <point x="641" y="382" type="line"/>
      <point x="656" y="393"/>
      <point x="674" y="394"/>
      <point x="682" y="394" type="curve" smooth="yes"/>
      <point x="718" y="394"/>
      <point x="741" y="370"/>
      <point x="741" y="323" type="curve"/>
      <point x="636" y="323" type="line"/>
      <point x="636" y="233" type="line"/>
      <point x="740" y="233" type="line"/>
      <point x="740" y="221" type="line" smooth="yes"/>
      <point x="740" y="180"/>
      <point x="707" y="143"/>
      <point x="649" y="143" type="curve" smooth="yes"/>
      <point x="621" y="143"/>
      <point x="605" y="158"/>
      <point x="602" y="197" type="curve" smooth="yes"/>
      <point x="591" y="325" type="line" smooth="yes"/>
      <point x="579" y="462"/>
      <point x="477" y="571"/>
      <point x="308" y="571" type="curve" smooth="yes"/>
      <point x="139" y="571"/>
      <point x="20" y="462"/>
      <point x="20" y="282" type="curve" smooth="yes"/>
      <point x="20" y="102"/>
      <point x="139" y="-7"/>
      <point x="308" y="-7" type="curve" smooth="yes"/>
      <point x="338" y="-7"/>
      <point x="364" y="-4"/>
      <point x="400" y="6" type="curve"/>
      <point x="336" y="178" type="line"/>
      <point x="316" y="171"/>
      <point x="308" y="170"/>
      <point x="297" y="170" type="curve" smooth="yes"/>
      <point x="264" y="170"/>
      <point x="236" y="189"/>
      <point x="236" y="258" type="curve" smooth="yes"/>
      <point x="236" y="311" type="line" smooth="yes"/>
      <point x="236" y="370"/>
      <point x="263" y="397"/>
      <point x="308" y="397" type="curve" smooth="yes"/>
      <point x="341" y="397"/>
      <point x="374" y="379"/>
    </contour>
  </outline>
</glyph>
<glyph name="e_s.001" format="1">
  <advance width="1003"/>
  <outline>
    <contour>
      <point x="513" y="288" type="line"/>
      <point x="513" y="243" type="line"/>
      <point x="619" y="243" type="line"/>
      <point x="619" y="288" type="line"/>
    </contour>
    <component base="s" xOffset="426" identifier="819209B6"/>
    <component base="bout-e" xOffset="-354"/>
  </outline>
</glyph>
<glyph name="e_s_s_e.ss12.001" format="1">
  <advance width="1994"/>
  <outline>
    <contour>
      <point x="513" y="288" type="line"/>
      <point x="513" y="243" type="line"/>
      <point x="619" y="243" type="line"/>
      <point x="619" y="288" type="line"/>
    </contour>
    <component base="bout-e" xOffset="-354"/>
    <component base="s_s_e" xOffset="426"/>
  </outline>
</glyph>
<glyph name="e_t_t.001" format="1">
  <advance width="1197"/>
  <outline>
    <contour>
      <point x="410" y="636" type="line"/>
      <point x="410" y="231" type="line" smooth="yes"/>
      <point x="410" y="56"/>
      <point x="510" y="0"/>
      <point x="642" y="0" type="curve" smooth="yes"/>
      <point x="726" y="0" type="line"/>
      <point x="726" y="189" type="line"/>
      <point x="673" y="189" type="line" smooth="yes"/>
      <point x="644" y="189"/>
      <point x="632" y="201"/>
      <point x="632" y="227" type="curve" smooth="yes"/>
      <point x="632" y="775" type="line"/>
    </contour>
    <contour>
      <point x="440" y="379" type="line"/>
      <point x="874" y="379" type="line"/>
      <point x="874" y="564" type="line"/>
      <point x="440" y="564" type="line"/>
    </contour>
    <component base="bout-e" xOffset="-354" identifier="1A783F05"/>
    <component base="t" xOffset="761"/>
  </outline>
</glyph>
<glyph name="e_t_t_e.ss12.001" format="1">
  <advance width="1435"/>
  <outline>
    <contour>
      <point x="410" y="636" type="line"/>
      <point x="410" y="231" type="line" smooth="yes"/>
      <point x="410" y="56"/>
      <point x="510" y="0"/>
      <point x="642" y="0" type="curve" smooth="yes"/>
      <point x="726" y="0" type="line"/>
      <point x="726" y="189" type="line"/>
      <point x="673" y="189" type="line" smooth="yes"/>
      <point x="644" y="189"/>
      <point x="632" y="201"/>
      <point x="632" y="227" type="curve" smooth="yes"/>
      <point x="632" y="775" type="line"/>
    </contour>
    <contour>
      <point x="440" y="379" type="line"/>
      <point x="904" y="379" type="line"/>
      <point x="904" y="564" type="line"/>
      <point x="440" y="564" type="line"/>
    </contour>
    <contour>
      <point x="846" y="636" type="line"/>
      <point x="846" y="231" type="line" smooth="yes"/>
      <point x="846" y="56"/>
      <point x="946" y="0"/>
      <point x="1078" y="0" type="curve" smooth="yes"/>
      <point x="1162" y="0" type="line"/>
      <point x="1162" y="189" type="line"/>
      <point x="1109" y="189" type="line" smooth="yes"/>
      <point x="1080" y="189"/>
      <point x="1068" y="201"/>
      <point x="1068" y="227" type="curve" smooth="yes"/>
      <point x="1068" y="775" type="line"/>
    </contour>
    <component base="bout-e" xOffset="-354" identifier="D36A7A94"/>
    <component base="bout-e" xOffset="475"/>
  </outline>
</glyph>
<glyph name="exclam.ss01" format="1">
  <advance width="442"/>
  <outline>
    <contour>
      <point x="100" y="755" type="line"/>
      <point x="126" y="281" type="line"/>
      <point x="316" y="281" type="line"/>
      <point x="342" y="755" type="line"/>
    </contour>
    <contour>
      <point x="111" y="212" type="line"/>
      <point x="111" y="0" type="line"/>
      <point x="331" y="0" type="line"/>
      <point x="331" y="212" type="line"/>
    </contour>
  </outline>
</glyph>
<glyph name="f.ss07" format="1">
  <advance width="449"/>
  <outline>
    <contour>
      <point x="70" y="559" type="curve" smooth="yes"/>
      <point x="70" y="0" type="line"/>
      <point x="292" y="0" type="line"/>
      <point x="292" y="534" type="line" smooth="yes"/>
      <point x="292" y="588"/>
      <point x="314" y="608"/>
      <point x="365" y="608" type="curve" smooth="yes"/>
      <point x="454" y="608" type="line"/>
      <point x="454" y="797" type="line"/>
      <point x="395" y="797" type="line" smooth="yes"/>
      <point x="181" y="797"/>
      <point x="70" y="742"/>
    </contour>
    <contour>
      <point x="156" y="379" type="line"/>
      <point x="156" y="564" type="line"/>
      <point x="10" y="564" type="line"/>
      <point x="10" y="379" type="line"/>
    </contour>
    <contour>
      <point x="421" y="564" type="line"/>
      <point x="292" y="379" type="line"/>
      <point x="454" y="379" type="line"/>
      <point x="454" y="564" type="line"/>
    </contour>
  </outline>
</glyph>
<glyph name="f_f" format="1">
  <advance width="770"/>
  <outline>
    <contour>
      <point x="70" y="559" type="curve" smooth="yes"/>
      <point x="70" y="0" type="line"/>
      <point x="292" y="0" type="line"/>
      <point x="292" y="539" type="line" smooth="yes"/>
      <point x="292" y="595"/>
      <point x="314" y="611"/>
      <point x="375" y="604" type="curve"/>
      <point x="375" y="793" type="line"/>
      <point x="182" y="810"/>
      <point x="70" y="722"/>
    </contour>
    <contour>
      <point x="10" y="564" type="line"/>
      <point x="10" y="379" type="line"/>
      <point x="405" y="379" type="line"/>
      <point x="405" y="564" type="line"/>
    </contour>
    <component base="f" xOffset="385"/>
  </outline>
</glyph>
<glyph name="f_f.ss07" format="1">
  <advance width="913"/>
  <outline>
    <contour>
      <point x="70" y="559" type="curve" smooth="yes"/>
      <point x="70" y="0" type="line"/>
      <point x="292" y="0" type="line"/>
      <point x="292" y="534" type="line" smooth="yes"/>
      <point x="292" y="588"/>
      <point x="314" y="608"/>
      <point x="365" y="608" type="curve" smooth="yes"/>
      <point x="454" y="608" type="line"/>
      <point x="454" y="797" type="line"/>
      <point x="395" y="797" type="line" smooth="yes"/>
      <point x="181" y="797"/>
      <point x="70" y="742"/>
    </contour>
    <contour>
      <point x="156" y="379" type="line"/>
      <point x="156" y="564" type="line"/>
      <point x="10" y="564" type="line"/>
      <point x="10" y="379" type="line"/>
    </contour>
    <contour>
      <point x="421" y="564" type="line"/>
      <point x="292" y="379" type="line"/>
      <point x="464" y="379" type="line"/>
      <point x="464" y="564" type="line"/>
    </contour>
    <component base="f.ss07" xOffset="449"/>
  </outline>
</glyph>
<glyph name="period.ss01" format="1">
  <advance width="277"/>
  <outline>
    <contour>
      <point x="28" y="212" type="line"/>
      <point x="28" y="0" type="line"/>
      <point x="248" y="0" type="line"/>
      <point x="248" y="212" type="line"/>
    </contour>
  </outline>
</glyph>
<glyph name="quotedblleft.ss06" format="1">
  <advance width="506"/>
  <outline>
    <contour>
      <point x="300" y="565" type="curve"/>
      <point x="456" y="565" type="line"/>
      <point x="456" y="712" type="line"/>
      <point x="384" y="712" type="line"/>
      <point x="384" y="723" type="line" smooth="yes"/>
      <point x="384" y="775"/>
      <point x="405" y="798"/>
      <point x="439" y="798" type="curve"/>
      <point x="439" y="876" type="line"/>
      <point x="326" y="876"/>
      <point x="275" y="796"/>
      <point x="275" y="700" type="curve" smooth="yes"/>
      <point x="275" y="658"/>
      <point x="282" y="612"/>
    </contour>
    <contour>
      <point x="76" y="565" type="curve"/>
      <point x="232" y="565" type="line"/>
      <point x="232" y="712" type="line"/>
      <point x="160" y="712" type="line"/>
      <point x="160" y="723" type="line" smooth="yes"/>
      <point x="160" y="775"/>
      <point x="180" y="798"/>
      <point x="215" y="798" type="curve"/>
      <point x="215" y="876" type="line"/>
      <point x="101" y="876"/>
      <point x="50" y="796"/>
      <point x="50" y="700" type="curve" smooth="yes"/>
      <point x="50" y="658"/>
      <point x="58" y="612"/>
    </contour>
    <contour>
      <point x="152" y="530" type="move" name="_top"/>
    </contour>
  </outline>
</glyph>
<glyph name="quoteleft.ss06" format="1">
  <advance width="281"/>
  <outline>
    <contour>
      <point x="76" y="565" type="curve"/>
      <point x="232" y="565" type="line"/>
      <point x="232" y="712" type="line"/>
      <point x="160" y="712" type="line"/>
      <point x="160" y="723" type="line" smooth="yes"/>
      <point x="160" y="775"/>
      <point x="180" y="798"/>
      <point x="215" y="798" type="curve"/>
      <point x="215" y="876" type="line"/>
      <point x="101" y="876"/>
      <point x="50" y="796"/>
      <point x="50" y="700" type="curve" smooth="yes"/>
      <point x="50" y="658"/>
      <point x="58" y="612"/>
    </contour>
    <contour>
      <point x="152" y="530" type="move" name="_top"/>
    </contour>
  </outline>
</glyph>
<glyph name="r.ss07" format="1">
  <advance width="519"/>
  <outline>
    <contour>
      <point x="50" y="564" type="line"/>
      <point x="50" y="0" type="line"/>
      <point x="272" y="0" type="line"/>
      <point x="272" y="564" type="line"/>
    </contour>
    <contour>
      <point x="436" y="564" type="line"/>
      <point x="272" y="328" type="line"/>
      <point x="499" y="328" type="line"/>
      <point x="499" y="564" type="line"/>
    </contour>
    <contour>
      <point x="155" y="0" type="move" name="bottom"/>
    </contour>
    <contour>
      <point x="275" y="564" type="move" name="top"/>
    </contour>
  </outline>
</glyph>
<glyph name="s_c.alt" format="1">
  <advance width="940"/>
  <outline>
    <contour>
      <point x="361" y="247" type="curve"/>
      <point x="420" y="91" type="line"/>
      <point x="471" y="28"/>
      <point x="551" y="-7"/>
      <point x="647" y="-7" type="curve" smooth="yes"/>
      <point x="792" y="-7"/>
      <point x="901" y="79"/>
      <point x="928" y="227" type="curve"/>
      <point x="693" y="227" type="line"/>
      <point x="685" y="200"/>
      <point x="670" y="183"/>
      <point x="642" y="183" type="curve" smooth="yes"/>
      <point x="608" y="183"/>
      <point x="584" y="214"/>
      <point x="584" y="282" type="curve" smooth="yes"/>
      <point x="584" y="350"/>
      <point x="608" y="381"/>
      <point x="642" y="381" type="curve" smooth="yes"/>
      <point x="670" y="381"/>
      <point x="685" y="364"/>
      <point x="693" y="337" type="curve"/>
      <point x="928" y="337" type="line"/>
      <point x="901" y="485"/>
      <point x="792" y="571"/>
      <point x="647" y="571" type="curve" smooth="yes"/>
      <point x="478" y="571"/>
      <point x="359" y="462"/>
      <point x="359" y="282" type="curve" smooth="yes"/>
      <point x="359" y="270"/>
      <point x="360" y="258"/>
    </contour>
    <contour>
      <point x="522" y="96" type="curve"/>
      <point x="433" y="322" type="line"/>
      <point x="349" y="355"/>
      <point x="245" y="350"/>
      <point x="245" y="391" type="curve" smooth="yes"/>
      <point x="245" y="408"/>
      <point x="257" y="417"/>
      <point x="287" y="417" type="curve" smooth="yes"/>
      <point x="313" y="417"/>
      <point x="366" y="403"/>
      <point x="374" y="369" type="curve"/>
      <point x="571" y="369" type="line"/>
      <point x="555" y="480"/>
      <point x="446" y="571"/>
      <point x="285" y="571" type="curve" smooth="yes"/>
      <point x="126" y="571"/>
      <point x="45" y="487"/>
      <point x="45" y="385" type="curve" smooth="yes"/>
      <point x="45" y="178"/>
      <point x="336" y="246"/>
      <point x="336" y="172" type="curve" smooth="yes"/>
      <point x="336" y="158"/>
      <point x="322" y="146"/>
      <point x="299" y="146" type="curve" smooth="yes"/>
      <point x="265" y="146"/>
      <point x="238" y="161"/>
      <point x="233" y="195" type="curve"/>
      <point x="20" y="195" type="line"/>
      <point x="30" y="80"/>
      <point x="137" y="-7"/>
      <point x="300" y="-7" type="curve" smooth="yes"/>
      <point x="411" y="-7"/>
      <point x="489" y="34"/>
    </contour>
  </outline>
</glyph>
<glyph name="two.ss04" format="1">
  <advance width="566"/>
  <outline>
    <contour>
      <point x="28" y="177" type="curve"/>
      <point x="28" y="10" type="line"/>
      <point x="545" y="10" type="line"/>
      <point x="545" y="189" type="line"/>
      <point x="316" y="189" type="line"/>
      <point x="432" y="262"/>
      <point x="542" y="383"/>
      <point x="542" y="528" type="curve" smooth="yes"/>
      <point x="542" y="644"/>
      <point x="477" y="747"/>
      <point x="295" y="747" type="curve" smooth="yes"/>
      <point x="158" y="747"/>
      <point x="32" y="672"/>
      <point x="25" y="478" type="curve"/>
      <point x="240" y="478" type="line"/>
      <point x="236" y="537"/>
      <point x="256" y="561"/>
      <point x="280" y="561" type="curve" smooth="yes"/>
      <point x="303" y="561"/>
      <point x="318" y="543"/>
      <point x="318" y="511" type="curve" smooth="yes"/>
      <point x="318" y="406"/>
      <point x="169" y="283"/>
    </contour>
  </outline>
</glyph>
<glyph name="y.ss07" format="1">
  <advance width="683"/>
  <outline>
    <contour>
      <point x="109" y="0" type="line"/>
      <point x="337" y="0" type="line"/>
      <point x="239" y="564" type="line"/>
      <point x="10" y="564" type="line"/>
    </contour>
    <contour>
      <point x="444" y="564" type="line"/>
      <point x="285" y="-270" type="line"/>
      <point x="514" y="-270" type="line"/>
      <point x="673" y="564" type="line"/>
    </contour>
    <contour>
      <point x="341" y="564" type="move" name="top"/>
    </contour>
  </outline>
</glyph>
